<svg xmlns="http://www.w3.org/2000/svg" xmlns:xlink="http://www.w3.org/1999/xlink" width="260" height="260" viewBox="0 0 260 260">
  <defs>
    <clipPath id="clip-path">
      <rect id="Rectangle_7" data-name="Rectangle 7" width="260" height="260" transform="translate(140 1080)" fill="#fff"/>
    </clipPath>
  </defs>
  <g id="audi" transform="translate(-140 -1080)" clip-path="url(#clip-path)">
    <g id="Layer_2" data-name="Layer 2" transform="translate(179.984 1177.762)">
      <g id="Layer_1" data-name="Layer 1" transform="translate(0.016 0.013)">
        <path id="Path_42" data-name="Path 42" d="M50.907,6.805c13.176-9.061,26.181-9.05,39.165,0q19.5-13.528,39.069-.064a31.394,31.394,0,0,1,42.971,4.072,32.535,32.535,0,0,1,1.066,41.212A31.522,31.522,0,0,1,129.109,57.3a31.639,31.639,0,0,1-39.026-.117,31.469,31.469,0,0,1-39.069,0c-7.846,5.916-16.6,8.155-26.256,6.066A30.317,30.317,0,0,1,6.806,51.823,32.385,32.385,0,0,1,8.021,10.664,31.341,31.341,0,0,1,50.907,6.805ZM45.843,52.089q-13.672-20.2,0-40.146C36.665,4.481,22.114,5.8,13.863,14.8a25.147,25.147,0,0,0-.533,33.9C21.677,58.155,36.175,59.7,45.843,52.089Zm88.479,0c8.528,7.334,23.516,6.066,31.735-2.7a25.126,25.126,0,0,0,.362-34.464c-8.432-9.114-23.25-10.543-32.1-3.049q13.666,20.1,0,40.231Zm-49.3-.16a32.492,32.492,0,0,1,0-39.837c-7.2-6.524-21.256-6.556-28.942-.043a32.588,32.588,0,0,1,0,39.879c7.046,6.545,21.107,6.567,28.942.021Zm10.287,0c7.579,6.588,21.395,6.449,28.526.053q-13.645-20.073,0-40.114C117.351,5.473,101.8,5.547,95.3,12q13.442,19.988.011,39.986ZM129.1,17.06c-7.249,8.837-6.2,23,.085,29.848C135.793,39.361,135.8,24.81,129.1,17.06Zm-78.032.1C43.935,25.588,44.777,40,51.173,46.8c6.4-8.134,6.4-21.16-.107-29.624Zm39.037.053c-6.865,8.155-6.4,22.386,0,29.56,6.567-7.91,6.535-21.96,0-29.539Z" transform="translate(-0.016 -0.013)" fill="#aab1c0"/>
      </g>
    </g>
  </g>
</svg>
