<svg xmlns="http://www.w3.org/2000/svg" xmlns:xlink="http://www.w3.org/1999/xlink" width="260" height="260" viewBox="0 0 260 260">
  <defs>
    <clipPath id="clip-path">
      <rect id="Rectangle_8" data-name="Rectangle 8" width="260" height="260" transform="translate(416 1080)" fill="#fff"/>
    </clipPath>
  </defs>
  <g id="bmw" transform="translate(-416 -1080)" clip-path="url(#clip-path)">
    <g id="Layer_2" data-name="Layer 2" transform="translate(467.381 1131.383)" opacity="0.53">
      <path id="Path_43" data-name="Path 43" d="M78.959,0a78.618,78.618,0,1,0,78.277,78.959A78.618,78.618,0,0,0,78.959,0Zm-.485,152.193a73.707,73.707,0,1,0-.036,0Z" fill="#8b93a5"/>
      <path id="Path_44" data-name="Path 44" d="M97.142,53.051A46.657,46.657,0,0,0,53.051,97.142c-.09,2.01.538,2.494,2.458,2.476H99.547V55.581C99.637,53.589,99.17,52.961,97.142,53.051Z" transform="translate(-20.964 -20.965)" fill="#8b93a5"/>
      <path id="Path_45" data-name="Path 45" d="M129.941,129.941Z" transform="translate(-51.358 -51.359)" fill="#8b93a5"/>
      <path id="Path_46" data-name="Path 46" d="M174.067,129.94H130.03v44.038c0,1.92.449,2.548,2.458,2.458A46.657,46.657,0,0,0,176.526,132.4C176.615,130.317,175.987,129.922,174.067,129.94Z" transform="translate(-51.393 -51.359)" fill="#8b93a5"/>
      <path id="Path_47" data-name="Path 47" d="M50.25,66.666c3.589-4.02,7.824-7.447,10.767-11.916,2.423-3.589.341-7.447-3.984-7.645-1.274,0-1.795-.269-1.938-1.6a4.522,4.522,0,0,0-4.486-3.966,6.712,6.712,0,0,0-3.93,1.579A84.342,84.342,0,0,0,36.863,53.71a1.292,1.292,0,0,0,.161,2.189Q42.731,61.175,48.4,66.523C48.976,66.971,49.5,67.492,50.25,66.666ZM43.216,55.54c-.61-.718-1.795-1.22-.808-2.476a62.2,62.2,0,0,1,6.712-7.035,1.633,1.633,0,0,1,2.046-.323,2.046,2.046,0,0,1,1,1.795,5.9,5.9,0,0,1-.79,1.579c-1.992,2.189-4.074,4.307-6.083,6.478a1.249,1.249,0,0,1-2.1-.036Zm4.917,2.153c2.189-2.118,4.253-4.379,6.388-6.55a2.207,2.207,0,0,1,2.548-.628,1.489,1.489,0,0,1,.808,1.615A3.015,3.015,0,0,1,56.836,54.1c-1.938,2.1-3.948,4.163-5.85,6.317-1,1.131-1.795.915-2.71,0S46.984,58.735,48.133,57.694Z" transform="translate(-14.36 -16.42)" fill="#8b93a5"/>
      <path id="Path_48" data-name="Path 48" d="M111.725,35.368c2.135,0,3.194-.556,3.122-2.979a29.053,29.053,0,0,1,.7-9.206,56.418,56.418,0,0,1,3.356,6.765,2.548,2.548,0,0,0,2.638,1.92,2.71,2.71,0,0,0,2.907-1.956c.987-2.387,2.118-4.738,3.176-7.178h.52c.179,3.589.377,7.178.538,10.767.108,2.548,2.153,1.436,3.374,1.795,1.669.395,1.166-1.059,1.148-1.795q-.215-7.178-.574-14.464c0-1.077.467-2.835-1.489-2.6s-4.5-1.795-5.76,1.454q-1.642,4.2-3.428,8.47c-.323-.233-.556-.305-.61-.449-.843-1.956-1.687-3.912-2.494-5.886-1.651-4.074-1.633-4.02-5.976-3.7-1.328,0-2.01.413-2.064,1.9-.162,5.2-.413,10.39-.664,15.594C110.092,35.045,110.54,35.35,111.725,35.368Z" transform="translate(-43.533 -6.333)" fill="#8b93a5"/>
      <path id="Path_49" data-name="Path 49" d="M205.13,52.609c-.933-.969-1.382-2.782-3.41-1.346-2.4,1.7-4.989,3.176-7.483,4.755-.233.2-.431.682-.772.341s0-.628.269-.861c.951-1.992,1.795-4.056,2.889-5.994.754-1.346.359-2.135-.646-3.087s-1.795-1.7-3.3-.825c-2.028,1.166-4.235,2.064-6.353,3.069l-.485-.538c1.795-2.638,3.589-5.276,5.24-7.95,1.418-2.171-1.059-2.315-1.795-3.248s-1.543,0-2.028.718c-2.6,4.056-5.222,8.111-7.77,12.2-.467.736-1.795,1.7-.377,2.548s1.938,3.32,4.486,2.01,4.791-2.369,7.178-3.589l.592-.126-.215.574c-1.184,2.387-2.3,4.827-3.589,7.178s1.148,2.961,1.9,4.343,1.795.485,2.584,0c4.092-2.548,8.147-5.132,12.221-7.681C205.256,54.475,206.3,53.919,205.13,52.609Z" transform="translate(-70.541 -14.44)" fill="#8b93a5"/>
    </g>
  </g>
</svg>
