<svg xmlns="http://www.w3.org/2000/svg" width="122" height="75.746" viewBox="0 0 122 75.746">
  <defs>
    <style>
      .cls-1 {
        fill: #fff;
      }
    </style>
  </defs>
  <g id="footer-dots" transform="translate(-607.238 -660.43)">
    <g id="Group_59" data-name="Group 59" transform="translate(607.238 660.43)">
      <rect id="Rectangle_54" data-name="Rectangle 54" class="cls-1" width="5.048" height="5.048" rx="2.524"/>
      <rect id="Rectangle_55" data-name="Rectangle 55" class="cls-1" width="5.048" height="5.048" rx="2.524" transform="translate(19.492)"/>
      <rect id="Rectangle_56" data-name="Rectangle 56" class="cls-1" width="5.048" height="5.048" rx="2.524" transform="translate(38.984)"/>
      <rect id="Rectangle_57" data-name="Rectangle 57" class="cls-1" width="5.048" height="5.048" rx="2.524" transform="translate(58.476)"/>
      <rect id="Rectangle_58" data-name="Rectangle 58" class="cls-1" width="5.048" height="5.048" rx="2.524" transform="translate(77.968)"/>
      <rect id="Rectangle_59" data-name="Rectangle 59" class="cls-1" width="5.048" height="5.048" rx="2.524" transform="translate(97.46)"/>
      <rect id="Rectangle_60" data-name="Rectangle 60" class="cls-1" width="5.048" height="5.048" rx="2.524" transform="translate(116.952)"/>
    </g>
    <g id="Group_60" data-name="Group 60" transform="translate(607.238 672.213)">
      <rect id="Rectangle_61" data-name="Rectangle 61" class="cls-1" width="5.048" height="5.048" rx="2.524"/>
      <rect id="Rectangle_62" data-name="Rectangle 62" class="cls-1" width="5.048" height="5.048" rx="2.524" transform="translate(19.492)"/>
      <rect id="Rectangle_63" data-name="Rectangle 63" class="cls-1" width="5.048" height="5.048" rx="2.524" transform="translate(38.984)"/>
      <rect id="Rectangle_64" data-name="Rectangle 64" class="cls-1" width="5.048" height="5.048" rx="2.524" transform="translate(58.476)"/>
      <rect id="Rectangle_65" data-name="Rectangle 65" class="cls-1" width="5.048" height="5.048" rx="2.524" transform="translate(77.968)"/>
      <rect id="Rectangle_66" data-name="Rectangle 66" class="cls-1" width="5.048" height="5.048" rx="2.524" transform="translate(97.46)"/>
      <rect id="Rectangle_67" data-name="Rectangle 67" class="cls-1" width="5.048" height="5.048" rx="2.524" transform="translate(116.952)"/>
    </g>
    <g id="Group_61" data-name="Group 61" transform="translate(607.238 683.996)">
      <rect id="Rectangle_68" data-name="Rectangle 68" class="cls-1" width="5.048" height="5.048" rx="2.524"/>
      <rect id="Rectangle_69" data-name="Rectangle 69" class="cls-1" width="5.048" height="5.048" rx="2.524" transform="translate(19.492)"/>
      <rect id="Rectangle_70" data-name="Rectangle 70" class="cls-1" width="5.048" height="5.048" rx="2.524" transform="translate(38.984)"/>
      <rect id="Rectangle_71" data-name="Rectangle 71" class="cls-1" width="5.048" height="5.048" rx="2.524" transform="translate(58.476)"/>
      <rect id="Rectangle_72" data-name="Rectangle 72" class="cls-1" width="5.048" height="5.048" rx="2.524" transform="translate(77.968)"/>
      <rect id="Rectangle_73" data-name="Rectangle 73" class="cls-1" width="5.048" height="5.048" rx="2.524" transform="translate(97.46)"/>
      <rect id="Rectangle_74" data-name="Rectangle 74" class="cls-1" width="5.048" height="5.048" rx="2.524" transform="translate(116.952)"/>
    </g>
    <g id="Group_62" data-name="Group 62" transform="translate(607.238 695.779)">
      <rect id="Rectangle_75" data-name="Rectangle 75" class="cls-1" width="5.048" height="5.048" rx="2.524"/>
      <rect id="Rectangle_76" data-name="Rectangle 76" class="cls-1" width="5.048" height="5.048" rx="2.524" transform="translate(19.492)"/>
      <rect id="Rectangle_77" data-name="Rectangle 77" class="cls-1" width="5.048" height="5.048" rx="2.524" transform="translate(38.984)"/>
      <rect id="Rectangle_78" data-name="Rectangle 78" class="cls-1" width="5.048" height="5.048" rx="2.524" transform="translate(58.476)"/>
      <rect id="Rectangle_79" data-name="Rectangle 79" class="cls-1" width="5.048" height="5.048" rx="2.524" transform="translate(77.968)"/>
      <rect id="Rectangle_80" data-name="Rectangle 80" class="cls-1" width="5.048" height="5.048" rx="2.524" transform="translate(97.46)"/>
      <rect id="Rectangle_81" data-name="Rectangle 81" class="cls-1" width="5.048" height="5.048" rx="2.524" transform="translate(116.952)"/>
    </g>
    <g id="Group_63" data-name="Group 63" transform="translate(607.238 707.562)">
      <rect id="Rectangle_82" data-name="Rectangle 82" class="cls-1" width="5.048" height="5.048" rx="2.524"/>
      <rect id="Rectangle_83" data-name="Rectangle 83" class="cls-1" width="5.048" height="5.048" rx="2.524" transform="translate(19.492)"/>
      <rect id="Rectangle_84" data-name="Rectangle 84" class="cls-1" width="5.048" height="5.048" rx="2.524" transform="translate(38.984)"/>
      <rect id="Rectangle_85" data-name="Rectangle 85" class="cls-1" width="5.048" height="5.048" rx="2.524" transform="translate(58.476)"/>
      <rect id="Rectangle_86" data-name="Rectangle 86" class="cls-1" width="5.048" height="5.048" rx="2.524" transform="translate(77.968)"/>
      <rect id="Rectangle_87" data-name="Rectangle 87" class="cls-1" width="5.048" height="5.048" rx="2.524" transform="translate(97.46)"/>
      <rect id="Rectangle_88" data-name="Rectangle 88" class="cls-1" width="5.048" height="5.048" rx="2.524" transform="translate(116.952)"/>
    </g>
    <g id="Group_64" data-name="Group 64" transform="translate(607.238 719.344)">
      <rect id="Rectangle_89" data-name="Rectangle 89" class="cls-1" width="5.048" height="5.048" rx="2.524"/>
      <rect id="Rectangle_90" data-name="Rectangle 90" class="cls-1" width="5.048" height="5.048" rx="2.524" transform="translate(19.492)"/>
      <rect id="Rectangle_91" data-name="Rectangle 91" class="cls-1" width="5.048" height="5.048" rx="2.524" transform="translate(38.984)"/>
      <rect id="Rectangle_92" data-name="Rectangle 92" class="cls-1" width="5.048" height="5.048" rx="2.524" transform="translate(58.476)"/>
      <rect id="Rectangle_93" data-name="Rectangle 93" class="cls-1" width="5.048" height="5.048" rx="2.524" transform="translate(77.968)"/>
      <rect id="Rectangle_94" data-name="Rectangle 94" class="cls-1" width="5.048" height="5.048" rx="2.524" transform="translate(97.46)"/>
      <rect id="Rectangle_95" data-name="Rectangle 95" class="cls-1" width="5.048" height="5.048" rx="2.524" transform="translate(116.952)"/>
    </g>
    <g id="Group_65" data-name="Group 65" transform="translate(607.238 731.127)">
      <rect id="Rectangle_96" data-name="Rectangle 96" class="cls-1" width="5.048" height="5.048" rx="2.524"/>
      <rect id="Rectangle_97" data-name="Rectangle 97" class="cls-1" width="5.048" height="5.048" rx="2.524" transform="translate(19.492)"/>
      <rect id="Rectangle_98" data-name="Rectangle 98" class="cls-1" width="5.048" height="5.048" rx="2.524" transform="translate(38.984)"/>
      <rect id="Rectangle_99" data-name="Rectangle 99" class="cls-1" width="5.048" height="5.048" rx="2.524" transform="translate(58.476)"/>
      <rect id="Rectangle_100" data-name="Rectangle 100" class="cls-1" width="5.048" height="5.048" rx="2.524" transform="translate(77.968)"/>
      <rect id="Rectangle_101" data-name="Rectangle 101" class="cls-1" width="5.048" height="5.048" rx="2.524" transform="translate(97.46)"/>
      <rect id="Rectangle_102" data-name="Rectangle 102" class="cls-1" width="5.048" height="5.048" rx="2.524" transform="translate(116.952)"/>
    </g>
  </g>
</svg>
