<svg xmlns="http://www.w3.org/2000/svg" width="121.229" height="88.589" viewBox="0 0 121.229 88.589">
  <defs>
    <style>
      .cls-1 {
        fill: #020c1a;
      }
    </style>
  </defs>
  <path id="footer-logo" class="cls-1" d="M199.119,33.751A52.676,52.676,0,0,0,146.506,86.37c0,.645.016,1.289.039,1.93-.388.816-.8,1.673-1.243,2.583A28.193,28.193,0,0,1,140.89,97.4V89.727h-8.7c-1.031,0-1.683,1.225-1.683,2.394v3.244c0,1.181,6.566,2.085,8.927,3.552a55.65,55.65,0,0,1-4.894,4.035,117.617,117.617,0,0,1,16.777-1.169c31.526,0,40.865,18.689,73.949,18.689a26.882,26.882,0,0,1,9.775,1.869V108.589c0-2.979-2.739-4.573-6.154-7.277a40.092,40.092,0,0,1-3.025-2.658,20,20,0,0,1,2.91-1.044c2.648-.79,5.558-1.454,5.558-2.246V92.121c0-1.169-.652-2.394-1.685-2.394h-8.7v6.852a28.319,28.319,0,0,1-3.69-5.7C214.61,79.4,214.806,75.5,192.046,75.5h-18.53c-8.074,0-13.253.494-16.836,1.638a43.435,43.435,0,0,1,85.88,9.228,44.107,44.107,0,0,1-.568,7.032,2.293,2.293,0,0,0,1.414,2.494l4.356,1.738a2.291,2.291,0,0,0,3.1-1.715,52.625,52.625,0,0,0-51.747-62.168ZM215.16,115.6l13.2-5.191,2.167-.848v7.975H215.16Z" transform="translate(-130.509 -33.751)"/>
</svg>
