<svg xmlns="http://www.w3.org/2000/svg" width="122" height="75.746" viewBox="0 0 122 75.746">
  <g id="footer-dots" transform="translate(-607.238 -660.43)" opacity="0.12" style="isolation: isolate">
    <g id="Group_59" data-name="Group 59" transform="translate(607.238 660.43)">
      <rect id="Rectangle_54" data-name="Rectangle 54" width="5.048" height="5.048" rx="2.524" fill="#003471"/>
      <rect id="Rectangle_55" data-name="Rectangle 55" width="5.048" height="5.048" rx="2.524" transform="translate(19.492)" fill="#003471"/>
      <rect id="Rectangle_56" data-name="Rectangle 56" width="5.048" height="5.048" rx="2.524" transform="translate(38.984)" fill="#003471"/>
      <rect id="Rectangle_57" data-name="Rectangle 57" width="5.048" height="5.048" rx="2.524" transform="translate(58.476)" fill="#003471"/>
      <rect id="Rectangle_58" data-name="Rectangle 58" width="5.048" height="5.048" rx="2.524" transform="translate(77.968)" fill="#003471"/>
      <rect id="Rectangle_59" data-name="Rectangle 59" width="5.048" height="5.048" rx="2.524" transform="translate(97.46)" fill="#003471"/>
      <rect id="Rectangle_60" data-name="Rectangle 60" width="5.048" height="5.048" rx="2.524" transform="translate(116.952)" fill="#003471"/>
    </g>
    <g id="Group_60" data-name="Group 60" transform="translate(607.238 672.213)">
      <rect id="Rectangle_61" data-name="Rectangle 61" width="5.048" height="5.048" rx="2.524" fill="#003471"/>
      <rect id="Rectangle_62" data-name="Rectangle 62" width="5.048" height="5.048" rx="2.524" transform="translate(19.492)" fill="#003471"/>
      <rect id="Rectangle_63" data-name="Rectangle 63" width="5.048" height="5.048" rx="2.524" transform="translate(38.984)" fill="#003471"/>
      <rect id="Rectangle_64" data-name="Rectangle 64" width="5.048" height="5.048" rx="2.524" transform="translate(58.476)" fill="#003471"/>
      <rect id="Rectangle_65" data-name="Rectangle 65" width="5.048" height="5.048" rx="2.524" transform="translate(77.968)" fill="#003471"/>
      <rect id="Rectangle_66" data-name="Rectangle 66" width="5.048" height="5.048" rx="2.524" transform="translate(97.46)" fill="#003471"/>
      <rect id="Rectangle_67" data-name="Rectangle 67" width="5.048" height="5.048" rx="2.524" transform="translate(116.952)" fill="#003471"/>
    </g>
    <g id="Group_61" data-name="Group 61" transform="translate(607.238 683.996)">
      <rect id="Rectangle_68" data-name="Rectangle 68" width="5.048" height="5.048" rx="2.524" fill="#003471"/>
      <rect id="Rectangle_69" data-name="Rectangle 69" width="5.048" height="5.048" rx="2.524" transform="translate(19.492)" fill="#003471"/>
      <rect id="Rectangle_70" data-name="Rectangle 70" width="5.048" height="5.048" rx="2.524" transform="translate(38.984)" fill="#003471"/>
      <rect id="Rectangle_71" data-name="Rectangle 71" width="5.048" height="5.048" rx="2.524" transform="translate(58.476)" fill="#003471"/>
      <rect id="Rectangle_72" data-name="Rectangle 72" width="5.048" height="5.048" rx="2.524" transform="translate(77.968)" fill="#003471"/>
      <rect id="Rectangle_73" data-name="Rectangle 73" width="5.048" height="5.048" rx="2.524" transform="translate(97.46)" fill="#003471"/>
      <rect id="Rectangle_74" data-name="Rectangle 74" width="5.048" height="5.048" rx="2.524" transform="translate(116.952)" fill="#003471"/>
    </g>
    <g id="Group_62" data-name="Group 62" transform="translate(607.238 695.779)">
      <rect id="Rectangle_75" data-name="Rectangle 75" width="5.048" height="5.048" rx="2.524" fill="#003471"/>
      <rect id="Rectangle_76" data-name="Rectangle 76" width="5.048" height="5.048" rx="2.524" transform="translate(19.492)" fill="#003471"/>
      <rect id="Rectangle_77" data-name="Rectangle 77" width="5.048" height="5.048" rx="2.524" transform="translate(38.984)" fill="#003471"/>
      <rect id="Rectangle_78" data-name="Rectangle 78" width="5.048" height="5.048" rx="2.524" transform="translate(58.476)" fill="#003471"/>
      <rect id="Rectangle_79" data-name="Rectangle 79" width="5.048" height="5.048" rx="2.524" transform="translate(77.968)" fill="#003471"/>
      <rect id="Rectangle_80" data-name="Rectangle 80" width="5.048" height="5.048" rx="2.524" transform="translate(97.46)" fill="#003471"/>
      <rect id="Rectangle_81" data-name="Rectangle 81" width="5.048" height="5.048" rx="2.524" transform="translate(116.952)" fill="#003471"/>
    </g>
    <g id="Group_63" data-name="Group 63" transform="translate(607.238 707.562)">
      <rect id="Rectangle_82" data-name="Rectangle 82" width="5.048" height="5.048" rx="2.524" fill="#003471"/>
      <rect id="Rectangle_83" data-name="Rectangle 83" width="5.048" height="5.048" rx="2.524" transform="translate(19.492)" fill="#003471"/>
      <rect id="Rectangle_84" data-name="Rectangle 84" width="5.048" height="5.048" rx="2.524" transform="translate(38.984)" fill="#003471"/>
      <rect id="Rectangle_85" data-name="Rectangle 85" width="5.048" height="5.048" rx="2.524" transform="translate(58.476)" fill="#003471"/>
      <rect id="Rectangle_86" data-name="Rectangle 86" width="5.048" height="5.048" rx="2.524" transform="translate(77.968)" fill="#003471"/>
      <rect id="Rectangle_87" data-name="Rectangle 87" width="5.048" height="5.048" rx="2.524" transform="translate(97.46)" fill="#003471"/>
      <rect id="Rectangle_88" data-name="Rectangle 88" width="5.048" height="5.048" rx="2.524" transform="translate(116.952)" fill="#003471"/>
    </g>
    <g id="Group_64" data-name="Group 64" transform="translate(607.238 719.344)">
      <rect id="Rectangle_89" data-name="Rectangle 89" width="5.048" height="5.048" rx="2.524" fill="#003471"/>
      <rect id="Rectangle_90" data-name="Rectangle 90" width="5.048" height="5.048" rx="2.524" transform="translate(19.492)" fill="#003471"/>
      <rect id="Rectangle_91" data-name="Rectangle 91" width="5.048" height="5.048" rx="2.524" transform="translate(38.984)" fill="#003471"/>
      <rect id="Rectangle_92" data-name="Rectangle 92" width="5.048" height="5.048" rx="2.524" transform="translate(58.476)" fill="#003471"/>
      <rect id="Rectangle_93" data-name="Rectangle 93" width="5.048" height="5.048" rx="2.524" transform="translate(77.968)" fill="#003471"/>
      <rect id="Rectangle_94" data-name="Rectangle 94" width="5.048" height="5.048" rx="2.524" transform="translate(97.46)" fill="#003471"/>
      <rect id="Rectangle_95" data-name="Rectangle 95" width="5.048" height="5.048" rx="2.524" transform="translate(116.952)" fill="#003471"/>
    </g>
    <g id="Group_65" data-name="Group 65" transform="translate(607.238 731.127)">
      <rect id="Rectangle_96" data-name="Rectangle 96" width="5.048" height="5.048" rx="2.524" fill="#003471"/>
      <rect id="Rectangle_97" data-name="Rectangle 97" width="5.048" height="5.048" rx="2.524" transform="translate(19.492)" fill="#003471"/>
      <rect id="Rectangle_98" data-name="Rectangle 98" width="5.048" height="5.048" rx="2.524" transform="translate(38.984)" fill="#003471"/>
      <rect id="Rectangle_99" data-name="Rectangle 99" width="5.048" height="5.048" rx="2.524" transform="translate(58.476)" fill="#003471"/>
      <rect id="Rectangle_100" data-name="Rectangle 100" width="5.048" height="5.048" rx="2.524" transform="translate(77.968)" fill="#003471"/>
      <rect id="Rectangle_101" data-name="Rectangle 101" width="5.048" height="5.048" rx="2.524" transform="translate(97.46)" fill="#003471"/>
      <rect id="Rectangle_102" data-name="Rectangle 102" width="5.048" height="5.048" rx="2.524" transform="translate(116.952)" fill="#003471"/>
    </g>
  </g>
</svg>
