<svg xmlns="http://www.w3.org/2000/svg" width="70.142" height="56.162" viewBox="0 0 70.142 56.162">
  <g id="game" transform="translate(-748.378 -829.222)">
    <path id="Path_93" data-name="Path 93" d="M808.1,874.6h-1.743c-10.653,0-21.307.027-31.96-.033-1.442-.008-1.9.431-1.755,1.819a15.182,15.182,0,0,1-.015,2.928,2.47,2.47,0,0,1-4.919.038c.01-5.219.032-10.442.272-15.655.1-2.264,1.5-4.062,3.1-5.665a6.967,6.967,0,0,0,1.509-2.245c.946-2.353,1.755-4.761,2.631-7.142,1.376-3.742,3.933-5.568,7.873-5.582q7.33-.027,14.66,0c3.953.019,6.375,1.769,7.736,5.494.587,1.6,1.217,3.192,1.788,4.8a13.608,13.608,0,0,0,3.429,5.822c1.986,1.838,2.475,4.475,2.486,7.139q.021,5.938,0,11.875a7.151,7.151,0,0,1-.129,1.458,2.263,2.263,0,0,1-2.292,1.9,2.183,2.183,0,0,1-2.424-1.708,21.407,21.407,0,0,1-.237-3.344C808.078,875.933,808.1,875.36,808.1,874.6Zm-17.8-5.111h14.208c3.864,0,3.864,0,3.58-3.914a5.112,5.112,0,0,0-4.993-5q-12.67-.115-25.341,0A4.648,4.648,0,0,0,773.141,864a12.124,12.124,0,0,0-.458,3.3c-.069,2.182-.02,2.185,2.093,2.186Zm12.318-14.242a47.841,47.841,0,0,0-2.143-5.608,3.176,3.176,0,0,0-2.333-1.39c-5.169-.124-10.343-.11-15.513-.008a2.871,2.871,0,0,0-2.166,1.176,59.453,59.453,0,0,0-2.26,5.829Z" transform="translate(5.322 3.808)" fill="#fb3"/>
    <path id="Path_94" data-name="Path 94" d="M789.112,842.691c-2.066.5-4,.92-5.909,1.442a3.589,3.589,0,0,0-1.644.922c-1.336,1.456-2.993,1.523-4.8,1.5-5.571-.071-11.142.014-16.713-.037-5.386-.05-7.185,3.358-6.68,8.228.108,1.044.913.835,1.561.837q9.311.013,18.62.006h1.6c-.077,3.182-1.918,5.024-4.928,5.024-5.032,0-10.067.048-15.1-.031-1.448-.023-1.919.471-1.793,1.854a18.562,18.562,0,0,1-.014,2.929,2.474,2.474,0,0,1-4.932.194c0-5.172.013-10.348.24-15.512.1-2.324,1.52-4.154,3.167-5.778a6.384,6.384,0,0,0,1.43-2.127c.971-2.449,1.83-4.943,2.723-7.424a7.723,7.723,0,0,1,7.524-5.464c5.082-.048,10.166-.041,15.248,0a7.425,7.425,0,0,1,7.306,5.081C787.089,837.151,788.112,839.986,789.112,842.691Zm-5.8-1.164c-.717-1.995-1.312-3.742-1.977-5.464a2.485,2.485,0,0,0-2.529-1.634c-5.122,0-10.246-.051-15.365.054a3.052,3.052,0,0,0-2.307,1.181,54.914,54.914,0,0,0-2.288,5.863Z" transform="translate(0)" fill="#fb3"/>
    <path id="Path_95" data-name="Path 95" d="M758.387,844.445a2.543,2.543,0,0,1,.092,5.085,2.52,2.52,0,0,1-2.531-2.491A2.56,2.56,0,0,1,758.387,844.445Z" transform="translate(2.084 4.191)" fill="#fb3"/>
    <path id="Path_96" data-name="Path 96" d="M796.817,860.9a2.538,2.538,0,0,1-2.594,2.43,2.487,2.487,0,0,1-2.366-2.639,2.482,2.482,0,1,1,4.96.209Z" transform="translate(11.97 8.01)" fill="#fb3"/>
    <path id="Path_97" data-name="Path 97" d="M780.262,860.825a2.547,2.547,0,0,1-2.528,2.5,2.521,2.521,0,0,1-2.454-2.561,2.491,2.491,0,0,1,4.981.063Z" transform="translate(7.407 8.01)" fill="#fb3"/>
  </g>
</svg>
