<svg xmlns="http://www.w3.org/2000/svg" width="260" height="260" viewBox="0 0 260 260">
  <g id="Group_86" data-name="Group 86" transform="translate(-416 -1080)">
    <path id="Path_1620" data-name="Path 1620" d="M411.18,360.452A77.22,77.22,0,1,1,488.918,437.6,77.106,77.106,0,0,1,411.18,360.452Zm4.568-.062a72.616,72.616,0,1,0,72.725-72.59A72.594,72.594,0,0,0,415.748,360.389Zm118.306.9c.126,24.309-20.748,44.8-45.141,44.836-23.857.032-46.512-18.306-46.264-46.751a44.976,44.976,0,0,1,44.78-44.731C516.135,314.467,534.641,337.4,534.054,361.294Zm-45.592-.855a15.614,15.614,0,0,0-1.655-.172q-20.064-.015-40.129,0c-.541,0-1.082.054-1.761.091,0,.565-.009,1,0,1.433a41.2,41.2,0,0,0,8.8,24.85A42.811,42.811,0,0,0,486.458,403.9c1.619.094,2.092-.4,2.077-2.03-.077-8.506-.027-17.014-.039-25.521-.008-5.315-.048-10.631-.075-15.946,6.326.032,12.652.078,18.978.091,7.561.016,15.121-.024,22.681.028,1.348.009,1.981-.327,1.813-1.774-.194-1.665-.183-3.357-.439-5.01a43.7,43.7,0,0,0-34.1-35.954c-2.9-.614-5.908-.739-8.972-1.1-.057.971-.111,1.464-.112,1.957q-.007,20.077,0,40.155A14.122,14.122,0,0,0,488.463,360.439ZM451.128,313.49c.722-.043,1.327-.1,1.933-.111a4.444,4.444,0,0,1,4.33,6.316,5.3,5.3,0,0,1-.888,1.606c-3.585,3.913-7.2,7.794-10.935,11.815l-13.14-12.383c3.513-4.16,6.692-8.514,11.014-11.755C447.1,306.237,450.705,308.343,451.128,313.49Zm-5.265,14.2c2.639-2.873,5.193-5.6,7.677-8.389a1.76,1.76,0,0,0-.105-2.693,1.786,1.786,0,0,0-2.582.115c-1.437,1.327-2.793,2.743-4.159,4.145-1.27,1.3-2.51,2.634-3.842,4.035Zm-5.145-5.219c2.274-2.458,4.618-4.921,6.872-7.465a2.031,2.031,0,0,0,.082-3.013c-1.052-1.026-2.078-.5-2.932.354-1.7,1.694-3.4,3.394-5.009,5.169-2.382,2.62-2.35,2.649.51,4.849A2.565,2.565,0,0,0,440.717,322.467Zm53.8-23.883c.027.325.066.65.078.976.115,3.3.185,6.6.376,9.894.035.592.445,1.5.894,1.661a15.054,15.054,0,0,0,3.354.375c-.252-5.95-.476-11.691-.784-17.428-.019-.364-.643-.851-1.08-1a6.747,6.747,0,0,0-1.832-.115c-3.12-.122-3.118-.121-4.286,2.762-1.018,2.512-2.043,5.022-3.228,7.933-.411-.894-.652-1.369-.853-1.861-1.075-2.639-2.108-5.3-3.237-7.912-.2-.465-.768-1.068-1.188-1.087a16.559,16.559,0,0,0-4,.281,1.939,1.939,0,0,0-1.261,1.315c-.3,5.193-.488,10.392-.692,15.59-.019.482.058.967.1,1.585a10.87,10.87,0,0,1,2.1-.264c1.708.131,2-.737,2-2.23,0-3.243.177-6.486.3-9.728a10.849,10.849,0,0,1,.334-1.485c.43.909.667,1.387.885,1.873,1.034,2.293,1.988,4.627,3.143,6.857a3.113,3.113,0,0,0,1.87,1.233c1.671.436,2.7-.3,3.231-1.99a32.521,32.521,0,0,1,1.631-3.676c.566-1.237,1.142-2.47,1.714-3.7Zm41.886,23.25-4.906,3.205a72.507,72.507,0,0,1,3.543-7.938c.207-.422.505-1.131.324-1.355a10.213,10.213,0,0,0-2.515-2.414c-.384-.231-1.311.337-1.944.64-2.337,1.118-4.654,2.276-7.049,3.454-.044-.35-.107-.486-.064-.552,1.474-2.242,2.946-4.485,4.442-6.712,2.226-3.313,2.234-3.308-1.247-5.471-.039-.024-.106,0-.332,0l-9.565,14.976c1.03.869,1.939,1.533,2.72,2.325a1.608,1.608,0,0,0,2.222.263c2.261-1.225,4.56-2.381,6.85-3.551.452-.231.936-.4,1.4-.6-1.185,3.014-2.616,5.72-3.985,8.458-.218.437-.408,1.187-.19,1.489.864,1.2,1.9,2.28,2.874,3.417l15.289-9.655-2.7-3.354Z" transform="translate(57.38 849.37)" fill="#939393"/>
    <rect id="Rectangle_124" data-name="Rectangle 124" width="260" height="260" transform="translate(416 1080)" fill="none"/>
  </g>
</svg>
