<svg xmlns="http://www.w3.org/2000/svg" width="70" height="70" viewBox="0 0 70 70">
  <defs>
    <style>
      .cls-1 {
        fill: #1a83ff;
      }
    </style>
  </defs>
  <g id="klient-te-kenaqur" transform="translate(-2 -2)">
    <circle id="Ellipse_27" data-name="Ellipse 27" class="cls-1" cx="4" cy="4" r="4" transform="translate(44.294 25.647)"/>
    <circle id="Ellipse_28" data-name="Ellipse 28" class="cls-1" cx="4" cy="4" r="4" transform="translate(22.706 25.647)"/>
    <path id="Path_106" data-name="Path 106" class="cls-1" d="M36.965,2A35,35,0,1,0,72,37,34.983,34.983,0,0,0,36.965,2ZM37,65A28,28,0,1,1,65,37,27.992,27.992,0,0,1,37,65Zm0-14a13.989,13.989,0,0,1-12.075-7H19.08a19.232,19.232,0,0,0,35.84,0H49.075A13.989,13.989,0,0,1,37,51Z"/>
  </g>
</svg>
