<svg xmlns="http://www.w3.org/2000/svg" width="51.229" height="37.436" viewBox="0 0 51.229 37.436">
  <defs>
    <style>
      .cls-1 {
        fill: #020c1a;
      }
    </style>
  </defs>
  <path id="Logo" class="cls-1" d="M159.5,33.751a22.26,22.26,0,0,0-22.233,22.236c0,.273.007.545.016.816-.164.345-.336.707-.525,1.091a11.914,11.914,0,0,1-1.865,2.755V57.405H131.22c-.436,0-.711.518-.711,1.012v1.371c0,.5,2.775.881,3.772,1.5a23.515,23.515,0,0,1-2.068,1.705A49.7,49.7,0,0,1,139.3,62.5c13.322,0,17.269,7.9,31.249,7.9a11.36,11.36,0,0,1,4.131.79V65.376c0-1.259-1.158-1.932-2.6-3.075a16.943,16.943,0,0,1-1.278-1.123,8.45,8.45,0,0,1,1.23-.441c1.119-.334,2.349-.615,2.349-.949V58.417c0-.494-.276-1.012-.712-1.012H170v2.9a11.967,11.967,0,0,1-1.559-2.407c-2.387-4.852-2.3-6.5-11.922-6.5h-7.831a24.8,24.8,0,0,0-7.115.692,18.355,18.355,0,0,1,36.291,3.9,18.639,18.639,0,0,1-.24,2.971.969.969,0,0,0,.6,1.054l1.841.734a.968.968,0,0,0,1.312-.725A22.238,22.238,0,0,0,159.5,33.751Zm6.779,34.589,5.579-2.194.916-.358v3.37h-6.494Z" transform="translate(-130.509 -33.751)"/>
</svg>
