<svg id="esoVPn6ZjhS1" xmlns="http://www.w3.org/2000/svg" xmlns:xlink="http://www.w3.org/1999/xlink" viewBox="0 0 51.229 37.436" shape-rendering="geometricPrecision" text-rendering="geometricPrecision"><style><![CDATA[#esoVPn6ZjhS2_tr {animation: esoVPn6ZjhS2_tr__tr 500ms linear 1 normal forwards}@keyframes esoVPn6ZjhS2_tr__tr { 0% {transform: translate(25.610399px,18.7165px) rotate(53820.000003deg);animation-timing-function: cubic-bezier(0.49,0,1,1)} 100% {transform: translate(25.610399px,18.7165px) rotate(54000deg)}} #esoVPn6ZjhS2_ts {animation: esoVPn6ZjhS2_ts__ts 500ms linear 1 normal forwards}@keyframes esoVPn6ZjhS2_ts__ts { 0% {transform: scale(1,1);animation-timing-function: cubic-bezier(0.42,0,1,1)} 100% {transform: scale(0.5,0.5)}} #esoVPn6ZjhS2 {animation: esoVPn6ZjhS2_c_o 500ms linear 1 normal forwards}@keyframes esoVPn6ZjhS2_c_o { 0% {opacity: 0} 100% {opacity: 1}}]]></style><g id="esoVPn6ZjhS2_tr" transform="translate(25.610399,18.7165) rotate(53820.000003)"><g id="esoVPn6ZjhS2_ts" transform="scale(1,1)"><path id="esoVPn6ZjhS2" d="M159.5,33.751c-12.273949.01488-22.219776,9.962049-22.233,22.236c0,.273.007.545.016.816-.164.345-.336.707-.525,1.091-.489757,1.001039-1.117543,1.928411-1.865,2.755v-3.244h-3.673c-.436,0-.711.518-.711,1.012v1.371c0,.5,2.775.881,3.772,1.5-.656357.607188-1.346812,1.176446-2.068,1.705c2.347549-.333175,4.715931-.497929,7.087-.493c13.322,0,17.269,7.9,31.249,7.9c1.414169.00391,2.815176.271834,4.131.79v-5.814c0-1.259-1.158-1.932-2.6-3.075-.444537-.352696-.871075-.727501-1.278-1.123.398003-.178527.809232-.325968,1.23-.441c1.119-.334,2.349-.615,2.349-.949v-1.371c0-.494-.276-1.012-.712-1.012h-3.669v2.9c-.614271-.736941-1.137695-1.545076-1.559-2.407-2.387-4.852-2.3-6.5-11.922-6.5h-7.831c-2.39264-.114153-4.789198.118935-7.115.692c1.992388-9.164168,10.572659-15.352504,19.897222-14.350443s16.394045,8.872192,16.393778,18.250443c-.00056.995152-.080816,1.988662-.24,2.971-.071766.448538.177678.886727.6,1.054l1.841.734c.269701.107951.573626.089069.827891-.051436s.431985-.387775.484109-.673564c1.198568-6.495988-.552806-13.18861-4.779673-18.264831s-10.491691-8.010584-17.097327-8.008169Zm6.779,34.589l5.579-2.194.916-.358v3.37h-6.494Z" transform="translate(-156.1276,-52.4705)" opacity="0" fill="#020c1a"/></g></g></svg>