<svg xmlns="http://www.w3.org/2000/svg" width="70" height="92.183" viewBox="0 0 70 92.183">
  <defs>
    <style>
      .cls-1 {
        fill: #1a83ff;
      }
    </style>
  </defs>
  <path id="lokacione" class="cls-1" d="M35,92.183a7.424,7.424,0,0,1-4.98-1.926A119.378,119.378,0,0,1,12.32,70C4.145,57.938,0,46.161,0,35a35,35,0,0,1,70,0c0,11.155-4.145,22.931-12.32,35a119.425,119.425,0,0,1-17.7,20.257A7.411,7.411,0,0,1,35,92.183ZM35,7.776A27.253,27.253,0,0,0,7.776,35c0,9.629,3.694,19.926,10.979,30.605A109.344,109.344,0,0,0,35,84.27,108.7,108.7,0,0,0,51.241,65.6C58.526,54.924,62.22,44.627,62.22,35A27.253,27.253,0,0,0,35,7.776Zm0,42.778A15.554,15.554,0,1,1,50.554,35,15.571,15.571,0,0,1,35,50.554Zm0-23.332A7.778,7.778,0,1,0,42.778,35,7.785,7.785,0,0,0,35,27.222Z"/>
</svg>
