<svg xmlns="http://www.w3.org/2000/svg" xmlns:xlink="http://www.w3.org/1999/xlink" width="196" height="196" viewBox="0 0 196 196">
  <defs>
    <clipPath id="clip-path">
      <rect id="Rectangle_12" data-name="Rectangle 12" width="196" height="196" transform="translate(1244.104 1080.104)" fill="#fff" opacity="0.7"/>
    </clipPath>
  </defs>
  <g id="mercedes" transform="translate(-1244.104 -1080.104)" clip-path="url(#clip-path)">
    <g id="Layer_2" data-name="Layer 2" transform="translate(1244 1113.253)">
      <path id="Path_56" data-name="Path 56" d="M153.062,23.345a35.563,35.563,0,0,1,4.858,16.047C160,66.37,137.984,88.023,111.087,85.08,96.033,83.433,85,75.363,77.931,61.932c.526.572,1.086,1.168,1.577,1.74,1.577,1.962,3.13,3.948,4.672,5.921-10.686-17-12.66-34.184-.164-50.839C94.141,5.3,108.331.465,124.775,4.027c13.781,2.99,23.089,11.679,28.357,24.736q-2.745-4.543-5.524-9.075c-.327.385-.327.572-.234.712A43.878,43.878,0,0,1,154.1,40.875a34.64,34.64,0,0,1-3.445,18l.561-2.336a78.779,78.779,0,0,0,2.266-9.343,38.039,38.039,0,0,0-28.59-40.842c-2.639-.619-5.384-.841-8.3-1.285.292,1.869.514,3.258.736,4.672,1.518,9.238,3.06,18.476,4.531,27.738.105.619,0,1.647-.42,1.927-1.518,1.039-3.2,1.845-5.15,2.908V7.146c0-1.168-.339-1.939-1.88-1.9-21.338.549-38.541,20.146-36.2,41.285a47.58,47.58,0,0,0,3.667,13.361,5.489,5.489,0,0,1-1.074-1.355,64.923,64.923,0,0,1-2.406-7.241c-.619-2.686-.841-5.466-1.238-8.175-.526,13.489,4.45,24.526,15.51,32.246,13.431,9.437,28.135,10.675,42.407,2.429,18.558-10.815,23.8-27.539,18.908-48.059l2.7,10.161a28.286,28.286,0,0,0-.584-6.131C155.234,30.259,154.09,26.813,153.062,23.345Z" transform="translate(-18.496 -0.704)" fill="#8b93a5"/>
      <path id="Path_57" data-name="Path 57" d="M19.282,143.73c-2.336,6.33-4.672,12.66-7.253,19.609C9.472,156.4,7.1,150.013,4.742,143.613l-.4.082c-.2,5.758-.5,11.516-.491,17.262,0,.794,1.495,1.588,2.254,2.336H0c3.34-.689,2.546-3.364,2.651-5.559.187-3.831.35-7.673.467-11.516.07-2.207,1.063-4.952-3.118-5.092l.455-.607c1.9,0,3.807-.07,5.688.07.339,0,.712.876.911,1.4,1.892,5.092,3.749,10.2,5.84,15.79,1.028-2.71,1.892-4.975,2.745-7.241,1.086-2.9,2.207-5.839,3.223-8.7a1.647,1.647,0,0,1,2.044-1.331,43.027,43.027,0,0,0,4.426,0v.526a3.621,3.621,0,0,0-1.168.455c-.6.572-1.553,1.261-1.553,1.9,0,5.839.093,11.6.432,17.378,0,.9,1.495,1.729,2.231,2.523h-7.93c3.5-.549,2.593-3.2,2.6-5.361V143.788Z" transform="translate(0 -34.455)" fill="#8b93a5"/>
      <path id="Path_58" data-name="Path 58" d="M175.067,140.77c.993-.07,1.623-.164,2.254-.164,2.558,0,5.127-.07,7.673,0,3.282.128,5.244,1.472,5.956,3.9.794,2.674,0,4.672-3.048,6.727,2.254.829,3.877,2.2,4.263,4.672.549,3.434-1.39,6.809-4.87,7.218a101.2,101.2,0,0,1-11.761.105,1.671,1.671,0,0,1,0-.3c2.336-.28,2.733-1.717,2.663-3.807-.152-4.169,0-8.351,0-12.532C178.185,142.685,178.185,142.685,175.067,140.77Zm6.05,11.34v8.736c0,.514.6,1.39.993,1.437,2.044.245,4.263.584,5.84-1.285a6.307,6.307,0,0,0,.712-6.657c-.841-2.172-2.78-2.266-4.672-2.231C183.1,152.122,182.226,152.11,181.116,152.11Zm.082-1.168c2.453-.117,4.975.712,6.307-1.927a5.571,5.571,0,0,0-.2-5.91c-1.553-2.161-3.936-1.308-6.108-1.39Z" transform="translate(-42.954 -34.485)" fill="#8b93a5"/>
      <path id="Path_59" data-name="Path 59" d="M117.788,149.433a42.651,42.651,0,0,0-.093-6.085c-.128-.829-1.168-1.518-1.822-2.254l4.672-.864v18.8c0,1.81,0,3.434,2.429,3.749l-4.356.888-.666-2.149c-1.6,2.091-3.62,2.955-6.131,1.95a6.365,6.365,0,0,1-4.111-5.98,20.24,20.24,0,0,1,1.039-7.241,5.115,5.115,0,0,1,9.04-.818Zm-7.7,5.98a30.566,30.566,0,0,0,1.3,5.5,2.943,2.943,0,0,0,5.466-.012,13.641,13.641,0,0,0-.082-10.873,3.842,3.842,0,0,0-2.943-1.81,3.656,3.656,0,0,0-2.6,2A26.861,26.861,0,0,0,110.092,155.412Z" transform="translate(-26.423 -34.4)" fill="#8b93a5"/>
      <path id="Path_60" data-name="Path 60" d="M226.491,165.454h-7.007c2.488-.467,2.336-2.266,2.336-4.123-.082-2.628-.082-5.267,0-7.9.058-1.74.07-3.282-2.336-3.6l4.45-1,.35,2.488c.455-.4.818-.736,1.168-1.051a5.139,5.139,0,0,1,5.5-.841,4.438,4.438,0,0,1,2.873,4.275c.082,2.558.07,5.127,0,7.685,0,1.752-.269,3.574,2.184,4.053h-6.9c2.593-.642,1.985-2.721,1.985-4.485,0-2.429,0-4.858-.07-7.288a2.756,2.756,0,0,0-2.569-3.072c-1.869-.222-3.585.736-3.737,2.581a95.439,95.439,0,0,0-.128,10.511C224.657,164.251,225.755,164.776,226.491,165.454Z" transform="translate(-53.851 -36.511)" fill="#8b93a5"/>
      <path id="Path_61" data-name="Path 61" d="M143.061,157.033H132.55c.234,1.67.327,3.13.666,4.531a3.761,3.761,0,0,0,3.842,3.223,4.123,4.123,0,0,0,4.123-2.955,3.5,3.5,0,0,1,1.285-1.518c-.07,3.083-1.565,4.905-4.1,5.5a6.435,6.435,0,0,1-7.171-2.908,11.083,11.083,0,0,1,.21-11.2,5.758,5.758,0,0,1,6.108-2.71,5.291,5.291,0,0,1,4.672,4.1A21.076,21.076,0,0,1,143.061,157.033Zm-2.99-1.32c-.117-3.9-1.366-5.921-3.5-5.84s-3.726,2.511-3.574,5.84Z" transform="translate(-31.842 -36.523)" fill="#8b93a5"/>
      <path id="Path_62" data-name="Path 62" d="M213.077,160.507c-.362,2.931-1.822,4.672-4.38,5.3a6.715,6.715,0,0,1-7.089-2.7c-1.927-2.955-1.822-8.666.21-11.551a6.026,6.026,0,0,1,6.143-2.546,5.291,5.291,0,0,1,4.566,4.018,39.3,39.3,0,0,1,.794,3.924H202.659a43.48,43.48,0,0,0,1.448,5.945c.619,1.6,2.219,2.032,3.9,1.857a4.111,4.111,0,0,0,3.5-2.943,9.248,9.248,0,0,1,1.086-1.635Zm-2.71-4.788c-.187-4.1-1.495-6.085-3.726-5.84s-3.5,2.663-3.329,5.84Z" transform="translate(-49.127 -36.528)" fill="#8b93a5"/>
      <path id="Path_63" data-name="Path 63" d="M47.681,157.024H37.17c.21,1.612.28,3.06.607,4.45a3.761,3.761,0,0,0,3.784,3.293,4.123,4.123,0,0,0,4.251-3.048,3.153,3.153,0,0,1,1.168-1.437,4.905,4.905,0,0,1-3.772,5.431,6.447,6.447,0,0,1-7.4-2.756,10.955,10.955,0,0,1,.269-11.352A5.723,5.723,0,0,1,42.3,149a5.3,5.3,0,0,1,4.59,4.006C47.225,154.209,47.377,155.482,47.681,157.024Zm-3.048-1.378c0-3.714-1.261-5.84-3.4-5.84s-3.679,2.336-3.7,5.84Z" transform="translate(-8.428 -36.513)" fill="#8b93a5"/>
      <path id="Path_64" data-name="Path 64" d="M100.365,157.054H89.854a45.545,45.545,0,0,0,.689,4.672,3.761,3.761,0,0,0,3.749,3.095,4.134,4.134,0,0,0,4.181-2.908,3.959,3.959,0,0,1,1.261-1.577,4.847,4.847,0,0,1-3.422,5.3,6.739,6.739,0,0,1-7.334-1.962c-2.534-3.142-2.336-9.67.3-12.683a6,6,0,0,1,10.184,1.892,33.962,33.962,0,0,1,.9,4.169ZM97.4,155.723c-.21-2.254-.164-4.461-2.266-5.477a3.585,3.585,0,0,0-3.107.374c-1.612,1.168-1.857,3.165-1.915,5.1Z" transform="translate(-21.391 -36.532)" fill="#8b93a5"/>
      <path id="Path_65" data-name="Path 65" d="M160.73,149.568v4.31l-.385.105c-.245-.619-.467-1.25-.724-1.857a3.352,3.352,0,0,0-4.882-1.612,2.429,2.429,0,0,0-.14,4.38,40.979,40.979,0,0,0,3.831,1.81c2.966,1.366,3.971,3,3.317,5.431a5.267,5.267,0,0,1-5.956,3.726,23.566,23.566,0,0,1-3.5-1.039L151,166.245v-5.84l.35-.152c.269.584.561,1.168.818,1.764.981,2.242,2.931,3.41,5,2.569a4.053,4.053,0,0,0,2.266-2.441c.164-.782-.724-2.055-1.495-2.686a15.931,15.931,0,0,0-3.434-1.693c-3.13-1.483-4.088-3.293-3.083-5.839s3.772-3.5,6.657-2.663A15.826,15.826,0,0,0,160.73,149.568Z" transform="translate(-37.049 -36.544)" fill="#8b93a5"/>
      <path id="Path_66" data-name="Path 66" d="M246.628,164.764c5.524.292,5.524.292,8.876-3.784-.222,1.39-.385,2.8-.736,4.158-.07.292-.841.572-1.3.572H242.961l9.075-14.984c-3.807-1.039-5.092-.514-8.245,3.095l.736-4.228h11.294Z" transform="translate(-59.612 -36.697)" fill="#8b93a5"/>
      <path id="Path_67" data-name="Path 67" d="M53.331,149.675l4.356-.747.374,2.476c.549-.572.934-1.063,1.4-1.472,1.95-1.693,5.01-1.168,5.419,1.1a2.546,2.546,0,0,1-.993,2.207c-1.074.432-1.635-.3-1.635-1.553,0-1.705-1.25-1.483-2.044-.841a4.018,4.018,0,0,0-1.472,2.488A87.827,87.827,0,0,0,58.47,163.4c0,.712,1.238,1.366,1.892,2.044H53.354c2.476-.432,2.266-2.254,2.242-4.018v-8.689C55.62,150.492,55.608,150.492,53.331,149.675Z" transform="translate(-13.085 -36.534)" fill="#8b93a5"/>
      <path id="Path_68" data-name="Path 68" d="M80.116,160.312c-.2,2.756-1.448,4.52-3.667,5.2a6.085,6.085,0,0,1-6.505-2.137c-2.546-3.223-2.429-9.343.257-12.462,2.079-2.429,4.94-2.791,8.245-.993l1.331-1.857v5.84l-.315.163c-.269-.584-.561-1.168-.794-1.752a3.562,3.562,0,0,0-3.5-2.616,3.5,3.5,0,0,0-3.235,2.628,15.323,15.323,0,0,0-.14,9.729,3.27,3.27,0,0,0,3.317,2.523,3.5,3.5,0,0,0,3.422-2.628c.292-.7.677-1.366,1.016-2.044Z" transform="translate(-16.711 -36.321)" fill="#8b93a5"/>
      <path id="Path_69" data-name="Path 69" d="M138.376,3.5c-2.511-.642-4.987-1.425-7.545-2-10.92-2.476-21.139-.467-30.763,5.092.35-.362.619-.853,1.039-1.086A41.706,41.706,0,0,1,138.073,3.28C138.189,3.327,138.271,3.5,138.376,3.5Z" transform="translate(-24.552 0.008)" fill="#8b93a5"/>
      <path id="Path_70" data-name="Path 70" d="M76.03,35.487c-.7,2.838-1.542,5.653-2.055,8.526a41.227,41.227,0,0,0,2.3,22.494,4.835,4.835,0,0,1-.9-1.168,41.834,41.834,0,0,1,.339-29.4,1.635,1.635,0,0,1,.315-.455Z" transform="translate(-17.88 -8.701)" fill="#8b93a5"/>
      <path id="Path_71" data-name="Path 71" d="M174.01,159.3h-6.026c-.3,0-.6-.479-.888-.736.245-.245.491-.689.747-.7a44.083,44.083,0,0,1,4.812,0C172.971,157.843,173.286,158.5,174.01,159.3Z" transform="translate(-40.998 -38.711)" fill="#8b93a5"/>
      <path id="Path_72" data-name="Path 72" d="M84.531,74.445a7.218,7.218,0,0,0,2.453-.315c9.343-5.115,18.768-10.3,28.146-15.463.7-.4,1.413-.759,2.488-1.343a55.185,55.185,0,0,1-.082,5.956c0,.491-1.063,1.039-1.74,1.285q-14.015,5.08-28.123,10.091c-.747.269-1.495.572-2.336.876l.607,1.168Z" transform="translate(-20.74 -14.058)" fill="#8b93a5"/>
      <path id="Path_73" data-name="Path 73" d="M161.184,77.372l.21-1.495-19.212-7.218c-3.726-1.4-7.463-2.721-11.083-4.216a2.628,2.628,0,0,1-1.308-1.81,46,46,0,0,1,0-5.139c.841.432,1.472.736,2.091,1.086q14.108,8.082,28.333,16.14c.7.4,1.4,1.168,2.207.164C162.013,75.713,161.6,76.543,161.184,77.372Z" transform="translate(-31.827 -14.1)" fill="#8b93a5"/>
      <path id="Path_74" data-name="Path 74" d="M105.965,100.936a38.2,38.2,0,0,0,31.288,1.495,2.955,2.955,0,0,1,.794-.082c-3.831,2.172-8.082,2.815-12.333,3.13a36.765,36.765,0,0,1-18.231-3.387A9.484,9.484,0,0,1,105.965,100.936Z" transform="translate(-25.999 -24.759)" fill="#8b93a5"/>
      <path id="Path_75" data-name="Path 75" d="M114.784,53.552,89.16,71.5l-.234-.21a11.047,11.047,0,0,1,.794-.853c6.937-5.653,13.945-11.247,20.789-17C112.156,52.034,113.3,52.1,114.784,53.552Z" transform="translate(-21.819 -12.856)" fill="#8b93a5"/>
      <path id="Path_76" data-name="Path 76" d="M126.8,10.544q-1.869,15.521-3.749,31.09c-1.752-.35-2.172-1.168-1.857-2.885,1.775-9.25,3.434-18.523,5.127-27.784a2.45,2.45,0,0,1,.163-.549Z" transform="translate(-29.712 -2.549)" fill="#8b93a5"/>
      <path id="Path_77" data-name="Path 77" d="M135.676,53.022c.724,0,1.717-.315,2.161,0,7.486,6.026,14.914,12.135,22.19,18.523L135.664,53.606Z" transform="translate(-33.286 -12.969)" fill="#8b93a5"/>
      <path id="Path_78" data-name="Path 78" d="M127.226,48.7c-.245-.584-.712-1.168-.677-1.74.3-5.594.689-11.165,1.308-16.736V48.468Z" transform="translate(-31.049 -7.41)" fill="#8b93a5"/>
      <path id="Path_79" data-name="Path 79" d="M130.886,55.574c.584,0,1.308-.222,1.729,0,4.368,2.826,8.689,5.734,12.847,8.969l-14.61-8.362Z" transform="translate(-32.105 -13.605)" fill="#8b93a5"/>
      <path id="Path_80" data-name="Path 80" d="M125.124,56.225l-6.715,3.819c2.126-1.507,3.5-4.251,6.423-4.485Z" transform="translate(-29.052 -13.626)" fill="#8b93a5"/>
    </g>
  </g>
</svg>
