<svg xmlns="http://www.w3.org/2000/svg" width="211" height="139" viewBox="0 0 211 139">
  <g id="nissan" transform="translate(-1539 -1142)">
    <g id="nissan-2" data-name="nissan" transform="translate(3106.982 666.278)">
      <path id="Path_1544" data-name="Path 1544" d="M-1500.411,530.081c.12,0,.241,0,.361,0h11.875c.075,0,.151,0,.226,0a.333.333,0,0,0,.33-.188c.242-.256.2-.615.331-.911q.008-.088.016-.175h0a1.357,1.357,0,0,0,.369-.869h0a.436.436,0,0,0,.163-.208c.142-.342.283-.685.437-1.022.321-.7.639-1.408.989-2.1.066-.13.015-.224.03-.332.113-.009.1-.115.141-.181h0a6.936,6.936,0,0,0,.589-.99c.1-.15.175-.306.362-.361.194-.1-.056-.269.087-.431a6.05,6.05,0,0,0,.62-.98,4.987,4.987,0,0,0,.51-.941,2.268,2.268,0,0,0,.514-.725,1,1,0,0,0,.132-.117c.717-.893,1.282-1.9,2.08-2.734a.222.222,0,0,0,.046-.21c.131-.015.2-.109.283-.2.515-.528.876-1.211,1.567-1.562a.142.142,0,0,0,.054-.111c-.005-.2.155-.281.261-.4.078-.088.194-.149.182-.293a.411.411,0,0,0,.3-.185,12.411,12.411,0,0,1,1.032-1,4.256,4.256,0,0,0,.584-.616,9.736,9.736,0,0,0,1.266-1.1h0c.3-.089.459-.37.7-.545.643-.473,1.276-.959,1.913-1.441a.369.369,0,0,0,.189-.281h.005v0l.086,0c.044,0,.1.014.131-.006a19.221,19.221,0,0,0,2.041-1.351h0c.065-.106.229-.036.285-.16h0a1.144,1.144,0,0,0,.249-.095c.388-.264.79-.5,1.2-.732h0q1.48-.658,2.889-1.455h0c.161-.133.317-.058.486-.006.115.035.286.054.223-.176h0a.593.593,0,0,1,.335-.26c.205-.071.4-.177.6-.267.08-.007.165-.006.2-.1h0a.956.956,0,0,0,.267-.019c.807-.3,1.628-.558,2.42-.9.068-.006.141,0,.185-.069.089-.008.178-.014.228-.106h0a1.847,1.847,0,0,0,.848-.182h0l.009-.01a.236.236,0,0,1,.109-.071l.156-.017h0c.128-.023.271-.169.371.049.023.049.106.029.1.005-.062-.327.259-.188.365-.306h0c.121-.025.258.014.356-.1a.115.115,0,0,0,.073-.027h0a6.9,6.9,0,0,0,1.092-.249h0c.1-.012.206.013.274-.088h0c.436-.014.863-.113,1.295-.152.462-.042.911-.158,1.368-.222a4.227,4.227,0,0,0,1.14-.182l.37-.034a1.409,1.409,0,0,0,.92-.137c.642.013,1.281-.038,1.922-.068,1.243-.058,2.49-.016,3.736-.019a.964.964,0,0,1,.4.062,9.644,9.644,0,0,0,1.348.009h0l.19.085h0l.255.026h0c.327.153.674.03,1.01.074l.006,0c.127.137.293.064.442.084h0l.437.017a.338.338,0,0,1,.107.07,3.387,3.387,0,0,0,.574.084,6.175,6.175,0,0,0,1.692.192.834.834,0,0,0,.538.115c.2.2.475.131.716.18h0c.136.147.308.065.467.072l.027.016.032,0c.041.1.125.09.208.081.076.083.184.066.279.093h0a2.136,2.136,0,0,0,.874.183h0c.038.1.125.092.208.095l.1.078h0l1.256.374c.562.294,1.187.421,1.77.667a2.075,2.075,0,0,0,.934.236h0a.116.116,0,0,0,.107.093h0a2.093,2.093,0,0,0,.782.285h0a4.345,4.345,0,0,0,1.122.53h0a6.176,6.176,0,0,0,1.255.673,16.964,16.964,0,0,0,1.9.907c.077.152.245.166.37.247.059.114.191.063.275.122h0c.146.3.5.3.72.507a7.444,7.444,0,0,0,1.179.715,1.924,1.924,0,0,0,.995.57h0a.3.3,0,0,0,.159.258c.307.215.618.422.927.633h0a8.9,8.9,0,0,0,1,.816,2.492,2.492,0,0,0,.719.531,2.082,2.082,0,0,0,.734.628h0c.516.517,1.04,1.023,1.59,1.506a31.1,31.1,0,0,1,2.348,2.461,24.8,24.8,0,0,1,2.2,2.761c.046.068.169.142.117.217-.107.153-.051.174.093.176s.143.184.262.22c.167.388.525.643.708,1.02-.037.09-.176.151-.119.263.078.157.171-.028.256-.01a.57.57,0,0,1,.15.085c.014.076.01.159.083.211l.1.1h0a.7.7,0,0,0,.044.126c.6,1.029,1.2,2.06,1.809,3.084.064.108.059.279.232.308h0a.229.229,0,0,0,.078.272h0a1.62,1.62,0,0,0,.175.5q.3.64.6,1.281a.1.1,0,0,0,.062.1h0a.289.289,0,0,0,.025.085.087.087,0,0,0,.058.1h0l.081.1h0c0,.08.006.156.106.175.006.055.012.111.018.167a.477.477,0,0,1,.069.108l-.069-.108a.107.107,0,0,0,.069.108h0c-.033.3.2.488.288.739.215.613.512,1.2.67,1.831.03.122.067.27.233.3a1.108,1.108,0,0,0,.134.016l12.267,0a1.3,1.3,0,0,0,.315-.016c.214-.054.287-.193.267-.428a3.621,3.621,0,0,1,.014-1.034.283.283,0,0,0-.128-.345c-.067-.117-.182-.087-.282-.089-.241,0-.483,0-.724,0a.108.108,0,0,0-.092-.1h0c-.265-.116-.546-.019-.816-.066h0l-.011-.006a.294.294,0,0,0-.262-.084h0l-.626-.014a.43.43,0,0,0-.1-.065l-.794-.03a.238.238,0,0,1-.108-.087h0c-.537-.1-1.088-.029-1.628-.166-.263-.067-.57-.062-.826-.131a6.57,6.57,0,0,1-1.923-.778c-.033-.125-.1-.2-.244-.179l-.18-.1h0a.785.785,0,0,0-.071-.111,8.309,8.309,0,0,1-1.258-1.914c-.016-.033-.073-.045-.112-.067l-.1-.175h0l-.012-.087h0a5.087,5.087,0,0,0-.466-1,.285.285,0,0,0-.067-.089c-.006-.072,0-.15-.077-.194l-.083-.1h0c.05-.237-.125-.395-.217-.575a9.7,9.7,0,0,0-.99-1.752,3.429,3.429,0,0,0-.6-.928h0a.9.9,0,0,0-.29-.54.364.364,0,0,0-.181-.283c-.026-.165-.006-.443-.085-.475-.291-.116-.337-.441-.577-.581-.049-.09-.091-.185-.147-.271-.423-.646-.894-1.258-1.357-1.876a22.049,22.049,0,0,0-1.6-2.024,3.1,3.1,0,0,0-.664-.64h0a.126.126,0,0,0-.033-.079h0a5.064,5.064,0,0,0-1.315-1.476c-.16-.148-.236-.38-.464-.459h0c-.173-.184-.355-.362-.519-.555a10.9,10.9,0,0,0-1.933-1.732h0a.548.548,0,0,0-.282-.313l0,0c-.03-.027-.059-.056-.087-.085a15.162,15.162,0,0,0-1.986-1.562h0a2.554,2.554,0,0,0-.647-.54,18.059,18.059,0,0,0-2.691-1.811,3.753,3.753,0,0,0-.66-.428h0c-.038-.1-.089-.222-.193-.225-.2,0-.318-.149-.476-.218-.291-.128-.507-.361-.791-.5-.693-.339-1.372-.708-2.057-1.064a.209.209,0,0,0-.1-.036c-.205-.087-.382-.252-.626-.234a.135.135,0,0,0-.035-.079h0a3.575,3.575,0,0,0-.958-.476h0a13.25,13.25,0,0,0-2.015-.876c-.083.065-.215-.021-.284.089a.474.474,0,0,1-.26-.1,4.9,4.9,0,0,1-.9-.361l-.01,0-.106-.025c-.027.088-.086.034-.132.03a.191.191,0,0,0-.1-.087,1.884,1.884,0,0,1-.465-.19.232.232,0,0,1-.2-.079q-.015-.081-.072-.022a5.865,5.865,0,0,1-1.094-.353c-.753-.2-1.505-.406-2.257-.613a.959.959,0,0,1-.195-.106.063.063,0,0,1-.077-.011.147.147,0,0,0-.087-.044.45.45,0,0,1-.2-.033h0c-.158-.146-.373.014-.537-.1h0c-.088-.083-.211-.03-.307-.08a10.782,10.782,0,0,1-1.239-.259c-.12.01-.242-.066-.361,0-.013.041-.014.094-.08.087a.351.351,0,0,1-.074-.048l-.034-.022.03-.024v-.04l-.026-.068a8,8,0,0,1-1.077-.2c-.154-.083-.332,0-.488-.069a.036.036,0,0,1-.055-.018c-.1-.072-.22-.029-.331-.041a10.844,10.844,0,0,1-1.11-.127l-.459-.1a4.136,4.136,0,0,0-1-.078,9.839,9.839,0,0,1-1.539-.091c-1.154-.062-2.309-.034-3.463-.035-.555,0-1.113-.008-1.664.041s-1.106.073-1.66.08c-.03-.044-.056-.044-.08.005l-2.265.276-2,.315a.069.069,0,0,0-.086.024l-.165.023a1,1,0,0,1-.476.09c-.773.18-1.545.362-2.318.538a12.09,12.09,0,0,1-1.4.357,6.844,6.844,0,0,1-1.171.363,6.043,6.043,0,0,1-1.1.347q-.053-.051-.079.018a3.521,3.521,0,0,1-1,.359c-.032-.046-.053-.042-.062.014a.27.27,0,0,1-.2.087l-.386.185c-.053.029-.121.019-.169.062l-.164.028a.154.154,0,0,0-.1-.1,1.979,1.979,0,0,0-.4.08,23.283,23.283,0,0,0-2.241.994l-.278.134a.9.9,0,0,0-.54.312c-.257-.006-.433.191-.66.261h0a5.466,5.466,0,0,1-.735.418,10.757,10.757,0,0,0-2.315,1.32h0a.281.281,0,0,0-.187.085h0l-.2.152-.184.1a.236.236,0,0,0-.053.028h0a2.681,2.681,0,0,0-.652.447,4.486,4.486,0,0,0-1.023.609,8.263,8.263,0,0,0-.974.664c-.263.282-.637.435-.9.725l-.452.355h0c-.543.345-1.01.789-1.514,1.184a4.771,4.771,0,0,0-.929.906,10.44,10.44,0,0,0-1.243,1.014c-.326.312-.591.674-.915.986a11.726,11.726,0,0,0-1.157,1.126,4.725,4.725,0,0,0-.874,1.13h0a.876.876,0,0,0-.334.366h0a1.5,1.5,0,0,0-.213.164,23.563,23.563,0,0,0-1.6,1.99c-.029.04-.012.115-.016.173a6.469,6.469,0,0,0-1.363,1.811c-.119.011-.247,0-.246.183a.481.481,0,0,1-.1.291,5.886,5.886,0,0,0-.748,1.252,2.277,2.277,0,0,0-.446.807c-.181.059-.187.25-.283.374h0l-.079.089a.368.368,0,0,1-.064.109c-.311.594-.682,1.156-.934,1.78h0a1.413,1.413,0,0,0-.269.753h0a.41.41,0,0,0-.174.192c-.209.451-.425.9-.638,1.347h0c-.2.126-.218.347-.289.541h0c-.215.212-.526.342-.568.7-.014.116-.122.2-.193.295-.109.149-.311.237-.322.455a.455.455,0,0,0-.261.086h0l-.095.086h0a5.128,5.128,0,0,0-.492.2,5.262,5.262,0,0,1-1.761.563.2.2,0,0,0-.179.063l-.545.021c-.091.008-.192-.017-.259.074h0l0,0c-.362.071-.737-.057-1.094.076l.029.04h-.019l-.01-.041a.113.113,0,0,0-.1.088l.008.01h0l0,0,0-.014a11.741,11.741,0,0,0-1.633.138c-.062-.007-.124-.014-.158.056l-.006.005c-.277.053-.566-.042-.838.066a.061.061,0,0,0-.064.03c-.219.147-.462.057-.694.065-.168.006-.331,0-.4.2h0a3.679,3.679,0,0,0-.05,1.454A.306.306,0,0,0-1500.411,530.081Zm39.342-30.114-.02,0,.014-.025Zm.789,3.247h0l0,.031v.038l0-.038h0A.152.152,0,0,1-1460.279,503.214Zm-32.071,23.512h0Zm20.493-17.954h0Zm-20.5,17.952h0Zm-6.778,1.468h0l0,0Zm18.9-11.713.01-.011,0,.014Zm8.339-7.7.018-.006-.017.01Zm14.024-6.352h0l.016,0,0,.01-.018-.005Zm6.093-.987h0l.007,0v0Zm47.383,22.655a.059.059,0,0,1-.028-.044C-1404.414,524.071-1404.4,524.085-1404.395,524.1Zm-80.963-8.412-.008.01h0l0-.013Zm-2.883,4.362-.012.012,0-.015Z" transform="translate(-9.124 0)" fill="#8b93a5"/>
      <path id="Path_1545" data-name="Path 1545" d="M-1509.9,666.027q0-4.2,0-8.4c0-.18.012-.36.019-.54h0c.093.041.1.188.227.188h0a2.435,2.435,0,0,0,.47.44c.133.313.133.313.45.454.07.178.291.187.382.341l.028.02.035,0a.1.1,0,0,0,.025.08h0c.01.151.009.362.171.377.212.02.284.206.447.266a12.182,12.182,0,0,0,1.213,1.247c.177.17.3.411.568.484h0a.53.53,0,0,0,.143.224,19.062,19.062,0,0,0,1.869,1.871c.329.289.578.647.877.961.558.585,1.18,1.1,1.757,1.664-.005.2.187.257.291.374a.394.394,0,0,1,.089.5c.224-.195.387.021.57.02,1.2,0,2.406,0,3.608.009a.394.394,0,0,0,.169-.388c-.008-.179-.008-.359-.011-.538,0-.075.008-.15.008-.225q0-5.215,0-10.431c0-.135-.011-.27-.017-.406.006-.354.013-.708.019-1.063a.356.356,0,0,0-.184-.368c-.964-.014-1.929-.037-2.893.019-.287.163-.135.385-.08.594,0,.151-.012.3-.012.452q0,3.393,0,6.787c0,.541-.015,1.083-.023,1.624h0l-.147-.072a13.494,13.494,0,0,0-1.178-1.186,2.977,2.977,0,0,0-1-.986l-.076-.124h0a.056.056,0,0,0-.025-.053.331.331,0,0,0-.081-.074c-.211-.129-.286-.4-.53-.495h0a11.085,11.085,0,0,0-1.275-1.337h0c-.593-.617-1.188-1.233-1.814-1.817a1.054,1.054,0,0,0-.341-.368h0c-.6-.6-1.208-1.193-1.79-1.812-.355-.378-.752-.718-1.13-1.075-.053-.1-.15-.086-.237-.086q-1.2.006-2.393.015l.006.029h0a.2.2,0,0,1-.006-.029,10.131,10.131,0,0,0-1.267,0h0c-.1.015-.08.089-.076.156-.006.2-.018.391-.018.586q0,3.932,0,7.864c0,1.566.009,3.133.014,4.7.11.161.275.083.413.084.855.008,1.71.005,2.566.006h0C-1509.842,666.458-1509.9,666.228-1509.9,666.027Zm3.7-9.646h0l0,0,0,0Zm6.709-3.046h0a.126.126,0,0,1,.019.036.368.368,0,0,0-.057.007A.2.2,0,0,1-1499.491,653.334Zm-.158.467a.215.215,0,0,0,.028-.043A.1.1,0,0,1-1499.65,653.8Zm-9.248,3.977.006-.006,0,0h0Zm.669.755h0a.06.06,0,0,1,.017-.009l-.015.019A.036.036,0,0,0-1508.228,658.534Zm8.748-5.265,0,.008v-.008h0Zm-.305,9.621v0l0,0h0Zm-6.34-6.436,0,0v0a.072.072,0,0,1-.072-.074.1.1,0,0,0,.072.074Z" transform="translate(0 -116.126)" fill="#8b93a5"/>
      <path id="Path_1546" data-name="Path 1546" d="M-1306.98,666.4c.059.157.1.315.341.207a1.055,1.055,0,0,1,.4-.015q6.005,0,12.01.009a3.627,3.627,0,0,0,1.083-.2,2.123,2.123,0,0,0,1.011-.477h0a3.227,3.227,0,0,0,1.582-2.41.6.6,0,0,0-.034-.616h0c.014-.464-.068-.922-.1-1.384.07.046.027.182.167.192a1.481,1.481,0,0,0-.12-.913,3.7,3.7,0,0,0-1.245-1.746,3.662,3.662,0,0,0-2.255-.764c-1.446.02-2.892.005-4.339.005-1.386,0-2.772.013-4.158-.007a1.507,1.507,0,0,1-1.277-.406h0c-.118-.125-.053-.322-.176-.444q-.011-.176-.022-.352a.131.131,0,0,0,.039-.069h0c.1-.126.044-.313.165-.432h0l.064-.137h0l.047-.082h0a1.169,1.169,0,0,0,.426-.171h0c.2-.01.39-.029.585-.03q5.487,0,10.974-.005c.16,0,.331.056.48-.057h0c.126-.057.1-.173.1-.275q0-1.155,0-2.309c0-.087.019-.184-.074-.245h0c-.107-.123-.252-.08-.382-.08q-5.975,0-11.95,0c-.13,0-.277-.046-.374.094h0l-.085.081h-.015l-.007.008a.493.493,0,0,0-.353,0,.1.1,0,0,0-.094.081h0a1.089,1.089,0,0,0-.544.113.1.1,0,0,0-.095.071h0l-.206.074h0a2.078,2.078,0,0,0-1.014.83h0a3.9,3.9,0,0,0-.528.749,1.036,1.036,0,0,0-.221.617l-.006.095a.4.4,0,0,0-.1.45l0,.162c-.2.19-.072.427-.094.643h0c-.049.061-.112.121-.02.2l.041.259a3.541,3.541,0,0,0,.661,1.844,2.889,2.889,0,0,0,1.248,1.15c.041.112.153.084.234.118h0a1.586,1.586,0,0,0,.645.2h0a.149.149,0,0,0,.162.127,1.983,1.983,0,0,1,.66.092h0c.075,0,.151.013.226.013h8.424c.166,0,.331-.011.5-.017h0c.27.073.419.356.7.4a.425.425,0,0,0,.056.254,1.059,1.059,0,0,1,.051,1.063.294.294,0,0,1-.082.1l.082-.1a.114.114,0,0,0-.082.1h0a.111.111,0,0,0-.021.066l-.089.094a2.053,2.053,0,0,1-1.227.357q-5.582-.015-11.165-.006c-.136,0-.272,0-.407.006a.224.224,0,0,0-.242.258C-1307,664.683-1307.056,665.541-1306.98,666.4Zm11.983-2.756a.836.836,0,0,1-.141.013h-.144Z" transform="translate(-152.629 -116.127)" fill="#8b93a5"/>
      <path id="Path_1547" data-name="Path 1547" d="M-1122.388,666.008q0-5.215,0-10.43c0-.752-.011-1.5-.017-2.257h0c.024-.233-.151-.175-.27-.176-.837,0-1.675,0-2.512,0-.1,0-.213-.016-.275.1h0a2.1,2.1,0,0,0-.033.266q0,4.516,0,9.031a.329.329,0,0,0-.08.038.165.165,0,0,0-.079-.024.61.61,0,0,0-.2-.242c-.607-.59-1.191-1.2-1.785-1.805-.754-.764-1.5-1.536-2.269-2.285a13.056,13.056,0,0,0-.99-1.02c-.535-.582-1.151-1.085-1.659-1.694a1.646,1.646,0,0,1-.5-.636c-.327-.009-.39-.385-.659-.474a.744.744,0,0,0-.368-.359,1.245,1.245,0,0,0-.361-.366,1.074,1.074,0,0,0-1.079-.546c-.992.04-1.986.013-2.979.015-.113,0-.245-.059-.319.088h0a.092.092,0,0,0-.062.1h0c-.009.12-.026.24-.026.359q0,6.2,0,12.4c0,.09,0,.181,0,.271.013.161.1.259.266.221a3.408,3.408,0,0,1,.765-.029c.589-.007,1.177,0,1.766,0,.146,0,.317.04.338-.187.116-.127,0-.23-.034-.343.091-.042.087-.113.061-.192a2.2,2.2,0,0,1-.049-.67q-.009-2.025-.016-4.049.008-1.732.014-3.464a1.394,1.394,0,0,1,.066-.53h0a12.255,12.255,0,0,1,1.235,1.061c.119.11.269.194.209.4a.1.1,0,0,0,.13.128c.079-.02.172-.025.2.047.123.333.471.44.677.693a3.527,3.527,0,0,0,.905.852h0c.149.213.408.323.528.563h0a19.664,19.664,0,0,0,2.11,2.041l.079.061h0c-.021.088.044.132.091.188a16,16,0,0,0,1.249,1.276c.254.243.443.566.807.68h0a.426.426,0,0,0,.129.281l.981.987c.115.185.3.173.48.173q1.583,0,3.166,0a1.626,1.626,0,0,0,.27-.013c.1-.017.083-.1.081-.178h0C-1122.395,666.248-1122.388,666.128-1122.388,666.008Zm-2.907-12.664,0,0v0Zm-9.617.085h0l-.014-.005.007-.009Z" transform="translate(-277.715 -116.095)" fill="#8b93a5"/>
      <path id="Path_1548" data-name="Path 1548" d="M-1421.939,664.256q0-5.031,0-10.063c0-.135-.012-.27-.018-.4h0l-.008-.087a.486.486,0,0,0,.007-.273h0c-.046-.143-.091-.275-.288-.275-.88,0-1.761,0-2.642-.01-.157,0-.159.1-.145.209-.2.036-.033.181-.078.262h0c-.156.13-.094.308-.095.465q-.005,5.921,0,11.842a1.338,1.338,0,0,0,.018.359.343.343,0,0,0,.378.3c.813-.021,1.627-.01,2.44-.015.344,0,.419-.072.432-.416.007-.195-.01-.391-.017-.586l-.036-.822A.9.9,0,0,0-1421.939,664.256Zm-3.089-10.825h0Zm-.012.18,0,0-.018,0Z" transform="translate(-65.209 -116.105)" fill="#8b93a5"/>
      <path id="Path_1549" data-name="Path 1549" d="M-1203.84,662.69l.006,0,0-.005Z" transform="translate(-229.519 -123.185)" fill="#8b93a5"/>
      <path id="Path_1550" data-name="Path 1550" d="M-1394.1,732.645a.237.237,0,0,0-.1-.233.327.327,0,0,0-.27-.131c-.707.112-1.419,0-2.127.063-.181-.005-.361-.015-.541-.016q-4.517,0-9.035,0a2.1,2.1,0,0,1-.668-.071c-.347-.062-.464.156-.527.437a.217.217,0,0,0-.008.176.139.139,0,0,0,.072-.051h0a.072.072,0,0,1,.02.044.172.172,0,0,0-.034-.02l-.057.028a2.117,2.117,0,0,0-.388.979h0a1.773,1.773,0,0,0-.339.744h0l-.005.091a1.049,1.049,0,0,0-.152.221c-.228.632-.568,1.215-.815,1.836-.131.332-.406.608-.4.992a.262.262,0,0,0-.073.3h-.006v.01a.473.473,0,0,0-.288.314,4.672,4.672,0,0,1-.352.667v0c-.07.011-.18-.042-.165.1a1.034,1.034,0,0,1-.306.65c-.079.106-.173.2-.146.347l-.11.152s-.008.008-.012.02l-.059.1h0l-.739,1.166h0a4.9,4.9,0,0,1-.436.7,4.306,4.306,0,0,0-.548.852,4.134,4.134,0,0,0-.554.719c-.131.073-.156.31-.382.245-.051-.015-.073.042-.068.089.02.2.007.355-.269.318-.093-.013-.108.11-.089.172.038.125-.02.234-.022.351a1.3,1.3,0,0,0-.392.363,3.182,3.182,0,0,1-.515.623c-.363.4-.718.805-1.075,1.209a.412.412,0,0,0-.1.246l0,0a.1.1,0,0,0-.1.091h0c-.331-.022-.33-.022-.344.289a.116.116,0,0,1-.017.039h0l-.525.49h0a12.261,12.261,0,0,0-1.356,1.366c-.227.07-.328.272-.465.438h0c-.149.043-.244.228-.442.154a.077.077,0,0,0-.087.111c.044.115-.039.138-.108.2a10.083,10.083,0,0,0-1.185,1.064.228.228,0,0,0-.156.128c-.2.037-.3.306-.546.226-.022-.007-.088.044-.092.073-.035.276-.287.347-.457.5h0c-.3.127-.531.353-.833.491-.25.114-.452.41-.717.582s-.537.373-.805.56a.217.217,0,0,1-.135.085.033.033,0,0,0-.047.02.594.594,0,0,1-.107.07l-.162.1h0a.091.091,0,0,0-.1.08h0l-.179.184h0c-.187.026-.354.153-.557.107-.077-.017-.157,0-.174.091-.034.178-.189.211-.314.282a2.9,2.9,0,0,0-.673.425,1.325,1.325,0,0,0-.64.357h0l-.753.35-.5.309h0a5.725,5.725,0,0,0-.921.421c-.9.3-1.752.741-2.636,1.093h0l-.09.1h0a2.247,2.247,0,0,0-.909.263h0l-.093.1h0a2.564,2.564,0,0,0-.9.259.064.064,0,0,0-.065.036c-.159.141-.412-.015-.554.178a.471.471,0,0,0-.268.086c-.1.014-.2-.009-.286.053l-.176.047-.095.053c-.825.132-1.63.353-2.438.561-.123.037-.261,0-.374.082l-.621.124a.551.551,0,0,0-.1.061.121.121,0,0,0-.074.021h0c-.248.04-.507-.045-.749.067h0a2.736,2.736,0,0,1-.621.116l-.1.067c-.24.021-.5-.084-.711.115-.238.028-.487-.066-.715.067h0c-.21.061-.444-.048-.643.093l-.538.019-.283.086a3.979,3.979,0,0,0-1.369.075.058.058,0,0,0-.068.025l-4.532-.017-.026.04a.182.182,0,0,0-.023-.028.079.079,0,0,1,.048-.012.9.9,0,0,0-.52-.1c-.4,0-.809,0-1.214,0l-.079-.063h0a2.968,2.968,0,0,0-.542-.041h0c-.2-.116-.419-.02-.622-.082h0c-.2-.123-.43-.023-.641-.077-.114-.133-.269-.087-.412-.1a5.323,5.323,0,0,1-1.116-.194h0c-.209-.108-.438-.026-.654-.07h0a.038.038,0,0,0-.047-.015.241.241,0,0,1-.128-.057l-.365-.024a.47.47,0,0,0-.09-.064l-.237-.036-.051-.015-.253-.074h0c-.328-.1-.665-.148-.995-.229-.7-.169-1.388-.353-2.092-.486a.154.154,0,0,0-.062-.032,1.177,1.177,0,0,0-.653-.151.117.117,0,0,0-.08-.1h0l-1.013-.351h0l-1.267-.461h0c-.413-.182-.82-.384-1.242-.541-.314-.117-.578-.366-.937-.36l-.165-.092h0l-.551-.273h0a.3.3,0,0,0-.188-.081c-.851-.424-1.682-.882-2.509-1.352a5.966,5.966,0,0,0-1.111-.559h0l-.461-.344h0c-.453-.306-.9-.627-1.361-.915-.516-.32-.965-.737-1.51-1.011a3.365,3.365,0,0,0-.847-.668.436.436,0,0,1-.073-.046h0l-.1-.089h0a.392.392,0,0,1-.091-.091h0c-.013-.047-.038-.079-.092-.075a.151.151,0,0,0-.083-.019h0a4.714,4.714,0,0,0-.6-.587,8.732,8.732,0,0,1-1.069-.86.074.074,0,0,0-.06-.077h0a.057.057,0,0,0-.054-.031h0l-.661-.618h0a.2.2,0,0,1-.089-.1l-1.016-.98a1.389,1.389,0,0,0-.438-.371.833.833,0,0,0-.346-.384h0a3.926,3.926,0,0,0-.641-.792c-.48-.549-.976-1.084-1.466-1.624a7.214,7.214,0,0,0-.581-.849c-.306-.474-.728-.861-1.028-1.342l-.822-1.179h0a8.707,8.707,0,0,0-.669-1.155c-.071-.117-.215-.217-.083-.394.067-.09.011-.169-.115-.156s-.175-.095-.228-.18c-.164-.265-.311-.54-.487-.8-.212-.309-.253-.725-.595-.952a.342.342,0,0,0,0-.133q-.547-1.259-1.169-2.483c-.026-.093.005-.206-.1-.27h0l-.09-.182-.1-.127h0l.093-.05h0c.066.01.171.039.16-.055s-.1-.043-.163-.013h0a1.638,1.638,0,0,1-.358-.732.222.222,0,0,1-.094-.144l-.117-.408a.552.552,0,0,0-.066-.088h0l-.078-.1h0l-.026-.159h0l-.24-.67h0c-.1-.3-.058-.372-.563-.321h0c-4.075.009-8.151.039-12.226-.014-.1,0-.216-.033-.274.095a.361.361,0,0,0-.181.37c.011.311,0,.622,0,.933.01.406.1.492.534.518.223.144.478.031.712.086h0c.268.152.56.021.837.071h0a.349.349,0,0,0,.233.113c.593-.014,1.168.159,1.759.172.226.15.475.048.713.068a1.821,1.821,0,0,0,.543.028.21.21,0,0,0,.192.07l.628.034c.042.083.113.081.188.063l.178.02h0c.13.106.3.023.436.091h0a4.961,4.961,0,0,1,.721.287h0l.639.342h0l.1.082h0l.006,0a.81.81,0,0,1,.085.094q.2.2.4.4c.286.3.5.648.769.96h0c.04.132.152.215.208.343.381.876.871,1.7,1.238,2.583h0c.16.32.3.654.484.958a20.269,20.269,0,0,0,1.148,1.915h0l.391.626h0c0,.044-.017.1.005.128.274.323.454.709.7,1.048.092.223.358.393.372.59.019.276.223.346.335.512.27.132.342.447.572.617a.716.716,0,0,0,.2.279h0a2.815,2.815,0,0,0,.579.892,10.365,10.365,0,0,0,1.2,1.375,1.579,1.579,0,0,0,.539.7c.254.152.344.506.624.664h0a1.852,1.852,0,0,0,.367.42c.081.065.148.147.226.217a14.256,14.256,0,0,0,1.126,1.157.308.308,0,0,1,.084.1c.074.136.016.392.305.331.124.311.477.364.67.6a3.286,3.286,0,0,0,.657.521c.122.129.2.3.374.38h0a2.824,2.824,0,0,0,1.091.835h0c.028.15.159.217.259.3a22.485,22.485,0,0,0,3,2.2h0l.1.076h0a22.309,22.309,0,0,0,2.487,1.651,2.5,2.5,0,0,0,.847.393h0c.1.3.452.25.639.434h0c.055.07-.052.327.2.173h.234l.05.078a.057.057,0,0,0,.065.057h0c.345.14.615.437,1.006.48h0a9.463,9.463,0,0,0,1.9.908h0a8.467,8.467,0,0,0,1.169.473.7.7,0,0,0,.456.162.394.394,0,0,0,.37.179h0a.247.247,0,0,0,.136.1c.486.208.987.371,1.487.538h0a16.68,16.68,0,0,0,1.807.642h0a14.821,14.821,0,0,1,1.443.36h0a6.419,6.419,0,0,0,1.107.262c.241.055.452.24.72.176l.022-.022v0l-.024.019a.313.313,0,0,0,.154.08c.292.109.616.074.9.209h0c.2.148.431.03.646.1a3.051,3.051,0,0,0,1.169.168h0l.1.093c.175.126.375.045.563.071a1.087,1.087,0,0,0,.654.11,7.07,7.07,0,0,1,1.325.184,4.362,4.362,0,0,0,1.2.062l.011.009c.058.1.152.091.247.074h0c.193.009.386.015.578.029a2.274,2.274,0,0,1,.8.057.334.334,0,0,0,.086.023q2.249,0,4.5,0c.088,0,.183.01.237-.087h0l.242-.019h0a4.993,4.993,0,0,0,.9,0h0a.6.6,0,0,0,.453-.086,2.168,2.168,0,0,0,.538-.03,1.422,1.422,0,0,0,.641-.063.1.1,0,0,0,.109-.064h0a5.841,5.841,0,0,0,1.709-.191,12.283,12.283,0,0,0,1.815-.318c.271-.054.569.034.816-.137h0c.146-.154.4,0,.534-.187a8.041,8.041,0,0,0,1.811-.448c.135-.057.3.036.424-.093l.042-.089c.148-.028.323.084.442-.086h0a3.451,3.451,0,0,0,.4-.049,13.513,13.513,0,0,0,2.416-.765h0a4.585,4.585,0,0,0,.713-.283,2.325,2.325,0,0,0,.919-.338h0c.067-.021.144-.025.178-.1h0a.184.184,0,0,1,.121-.091l-.121.091a.165.165,0,0,0,.121-.091h0a1.95,1.95,0,0,0,.783-.276,4.368,4.368,0,0,0,.832-.352c.445-.112.824-.391,1.266-.509.231-.061.478-.076.62-.319.031-.053.132-.063.2-.1a7.1,7.1,0,0,0,1.176-.688,5.957,5.957,0,0,0,.728-.369.481.481,0,0,0,.263-.189.121.121,0,0,0,.079-.031l.04-.024.062-.038a8.832,8.832,0,0,0,1.579-.891c.189-.11.43-.13.573-.3.216-.251.509-.4.743-.626.259-.067.408-.3.631-.425a.189.189,0,0,0,.079-.038,9.322,9.322,0,0,0,1.659-1.218c.1-.082.249-.125.266-.286h0a1.286,1.286,0,0,0,.49-.3c.3-.205.512-.55.932-.553.094,0,.116-.084.119-.161s.037-.166.119-.163c.241.008.162-.2.228-.31h0a.471.471,0,0,0,.289-.319h0c.082-.03.176-.021.246-.091.25-.247.5-.492.755-.738h0c.242-.094.3-.47.633-.42a2.148,2.148,0,0,1,.452-.643,2.317,2.317,0,0,1,.545-.532,1.841,1.841,0,0,0,.624-.687,9.971,9.971,0,0,0,1.029-1.12c.636-.735,1.282-1.461,1.878-2.229h0a.134.134,0,0,0,.075-.022h0c.08,0,.161-.026.165-.115.016-.344.271-.545.457-.787h0l.115,0h0l.171.013h0c.124-.053.073-.17.1-.26.155-.1-.028-.189-.013-.285h0a18.861,18.861,0,0,0,1.069-1.577,2.581,2.581,0,0,0,.42-.774h0l.4-.463h0a4.919,4.919,0,0,1,.554-1,2.826,2.826,0,0,1,.723-1.092c.033-.024.073-.081.065-.111-.067-.254.129-.4.217-.6a1.333,1.333,0,0,0,.187-.719h0a.857.857,0,0,0,.442-.726,7.756,7.756,0,0,0,.64-1.256h0v0a.284.284,0,0,1,.086-.1l0,0c.042-.016.07-.04.063-.09h0a12.619,12.619,0,0,1,.862-1.239l.639-.558h0c.2-.2.544-.154.706-.417l.7-.235h0a14.262,14.262,0,0,1,1.54-.195c.037,0,.078-.04.117-.062h0c.22-.013.44-.023.659-.041s.472.067.686-.084a.655.655,0,0,0,.391-.058h0l.517-.012h0a1.124,1.124,0,0,1,.551-.075.576.576,0,0,0,.45-.118c.3-.037.616.091.909-.067.219-.061.458.028.668-.091h0c.324-.073.426-.151.39-.359A4.254,4.254,0,0,1-1394.1,732.645Zm-16.621,7.661h0Zm-14.294,14.508,0-.008h0Zm-6.336,5.365a.008.008,0,0,1-.01.005Zm-11.914.761h0Zm-44.111-27.5,0-.006.007,0Zm-6.849,1.318h0Zm16.65,20.035h0l0,0Zm25.91,10.682h0Zm0,0Zm54.254-31.171s0,.005,0,.007l-.026,0Zm-13.311,6h0Zm-5.453,7.152,0,0a.258.258,0,0,1-.1.084Zm-8.686,7.072a.643.643,0,0,1-.1.08h0Zm-53.988-.822h0Zm47.705,9.04.012-.006a.08.08,0,0,0,0,.01l-.015,0Zm21.225-15.585h0a.073.073,0,0,1,.056-.071h0A.083.083,0,0,0-1409.915,747.16Zm11.071-12.627v-.006l0,0Z" transform="translate(-9.136 -174.806)" fill="#8b93a5"/>
      <path id="Path_1551" data-name="Path 1551" d="M-1374.8,663.584a.09.09,0,0,0,.019-.071h0a4.352,4.352,0,0,0,.143-1.868c0-.022-.039-.042-.059-.063h0c-.016-.1.021-.206-.078-.279,0-.083-.017-.16-.107-.2h0a1.017,1.017,0,0,0-.353-.874c0-.084.007-.17-.1-.207h0a.516.516,0,0,0-.074-.25,3.446,3.446,0,0,0-2.378-1.459l-.019.031h0l.021-.031a.764.764,0,0,0-.441-.053c-.9,0-1.808.013-2.712,0-2.271-.043-4.545.113-6.813-.09-.263.009-.045-.355-.29-.37-.226-.013-.212-.271-.354-.372h0l0-.188h0c.006-.087.011-.173.016-.26.027-.033.054-.065.083-.1a1.047,1.047,0,0,1,.675-.663,1.79,1.79,0,0,1,.576-.069q5.521,0,11.042-.005c.156,0,.334.068.469-.082.064-.913.029-1.827.019-2.741,0-.025-.03-.049-.046-.074h0c-.123-.132-.284-.076-.427-.076q-5.873,0-11.746,0c-.133,0-.274-.028-.386.079-.228.068-.493-.091-.7.112a.331.331,0,0,0-.03.074,1.832,1.832,0,0,0-.822.266h0c-.064.034-.13.066-.193.1a2.293,2.293,0,0,0-1.075,1.171h0a1.087,1.087,0,0,0-.353.725h0a1.893,1.893,0,0,0-.264,1.184h0a2.69,2.69,0,0,0,0,.63h0a3.008,3.008,0,0,0,.177,1.1c.057.136.109.274.171.408a2.974,2.974,0,0,0,1.547,1.684,2.961,2.961,0,0,0,1.547.451h0a.092.092,0,0,0,.1.067c.105,0,.21.014.316.014q3.935,0,7.871,0c.316,0,.633-.01.949-.016a1.59,1.59,0,0,1,.9.746c.065.2.213.389.1.619,0,.056-.006.113-.009.169a2.7,2.7,0,0,0-.341.473.1.1,0,0,0-.016.079c-.207-.022-.338.182-.537.184-.052-.017-.081.007-.1.055a.279.279,0,0,1-.037.043.3.3,0,0,0,.037-.043c-.211,0-.422.009-.633.009H-1390.6c-.121,0-.241,0-.362,0-.2,0-.263.114-.225.3-.053.677-.019,1.356-.022,2.033,0,.719,0,.719.737.673h.1a.6.6,0,0,0,.089.014l11.978.005c.1,0,.215.026.284-.087h0l.14-.029a2.625,2.625,0,0,0,1.634-.625,3.557,3.557,0,0,0,1.25-1.559,1.018,1.018,0,0,0,.133-.6A.083.083,0,0,0-1374.8,663.584Zm-2.97-.791-.006-.017.009,0s0,.009,0,.013Zm2.421-2.546h0Zm-13.2-6.791h0l-.047.018.01-.02Zm10.229,10.054h.016l-.012.008Zm-9.614-5.261-.005,0h.008Z" transform="translate(-90.177 -116.118)" fill="#8b93a5"/>
      <path id="Path_1552" data-name="Path 1552" d="M-1213.913,665.767h0a3.026,3.026,0,0,1,.359.56.543.543,0,0,0,.518.273c.645-.02,1.291-.008,1.937-.008.39,0,.781.006,1.171,0,.284,0,.4-.195.257-.436a2.047,2.047,0,0,0-.26-.3h0c-.058-.09-.062-.214-.17-.272-.086-.122-.105-.291-.257-.366a12.767,12.767,0,0,0-.723-1.323c-.155-.326-.508-.558-.463-.978.007-.067-.035-.135-.1-.116-.2.06-.234-.158-.366-.206-.1-.236-.157-.5-.411-.644h0a1.925,1.925,0,0,0-.134-.377c-.29-.48-.6-.949-.891-1.427-.447-.73-.957-1.419-1.372-2.168h0c-.25-.417-.484-.844-.754-1.247a5.89,5.89,0,0,0-.707-1.014c-.143-.167-.119-.439-.351-.549-.128-.224-.186-.492-.417-.649h0a1.16,1.16,0,0,0-.334-.656c-.112-.152-.239-.315-.07-.511.005-.057-.029-.083-.077-.073s-.078.038-.022.083a.427.427,0,0,1-.25-.1h0a.155.155,0,0,0-.146-.082c-1.072.009-2.145-.04-3.217.028a.072.072,0,0,0-.073.063l-.009.01h0a7.825,7.825,0,0,1-.91,1.329c-.032.03-.014.112-.02.171l-.17.289a.679.679,0,0,0-.268.391.228.228,0,0,1-.17.168,5.486,5.486,0,0,1-.586.98c-.271.526-.589,1.027-.887,1.539a.179.179,0,0,0-.086.227.655.655,0,0,0-.2.179c-.333.529-.661,1.061-1.013,1.577a18.4,18.4,0,0,1-1.007,1.634c-.108.128-.261.261-.237.468a1.878,1.878,0,0,0-.44.633h0a7.3,7.3,0,0,0-.884,1.458c-.071.074-.146.145-.122.262-.144.067-.172.225-.254.339-.071.1-.131.188-.257.209-.011-.053-.026-.1-.1-.078h0a.789.789,0,0,1-.221.721.948.948,0,0,0-.139.267s.007,0,.009.009a.068.068,0,0,0-.009-.009.119.119,0,0,0-.032.075.269.269,0,0,0-.087.379c.064.148.21.1.314.113.192.016.386-.02.58-.022.946-.006,1.892-.007,2.838-.01h0c.077,0,.193.036.136-.114-.037-.1.026-.158.057-.232h0c.085-.043.072-.124.079-.2l.081-.087h0c.072-.066.145-.131.117-.245h0a1.284,1.284,0,0,0,.272-.35,8.322,8.322,0,0,1,.589-.891.285.285,0,0,1,.377-.118h0c.2,0,.387-.06.589-.06q3.847.012,7.693,0a3.831,3.831,0,0,1,.876.121h0C-1214.52,664.9-1214.139,665.287-1213.913,665.767Zm-3.021-5.063v0c-.124.188-.026.356.077.522,0,.007.011.012.016.019a.1.1,0,0,0-.06.012h0a1.662,1.662,0,0,1-.184.085c-.975.055-1.953.032-2.931.023-.721-.051-1.44-.073-2.162-.061.168-.3.356-.6.54-.889.1-.152.26-.308.127-.522a.127.127,0,0,0,.034.01c.247-.075.32-.308.434-.5.516-.845,1.083-1.659,1.61-2.5a.455.455,0,0,0,.05.208,5.363,5.363,0,0,0,.743,1.171.293.293,0,0,0,.263.117c-.057.346,0,.435.307.492a1.784,1.784,0,0,0,.893,1.451c-.052.2.024.323.244.35Zm6.716,5.005h0v0h0Zm-10.821-12.337h-.014l.007-.008Z" transform="translate(-210.57 -116.127)" fill="#8b93a5"/>
      <path id="Path_1553" data-name="Path 1553" d="M-1103.4,693.424a.143.143,0,0,0-.122-.148.088.088,0,0,0-.11.1.139.139,0,0,0,.142.132C-1103.439,693.51-1103.414,693.475-1103.4,693.424Z" transform="translate(-303.896 -145.891)" fill="#8b93a5"/>
      <path id="Path_1554" data-name="Path 1554" d="M-1099.744,697.108c.006-.083-.055-.091-.116-.086-.043,0-.091.021-.089.072,0,.074.064.088.124.1S-1099.747,697.153-1099.744,697.108Z" transform="translate(-306.629 -148.672)" fill="#8b93a5"/>
      <path id="Path_1555" data-name="Path 1555" d="M-1203.726,542.978c.018-.059-.017-.085-.063-.1s-.1-.009-.115.038a.094.094,0,0,0,.083.126A.084.084,0,0,0-1203.726,542.978Z" transform="translate(-229.468 -34.261)" fill="#8b93a5"/>
      <path id="Path_1556" data-name="Path 1556" d="M-1429.324,804.63a.072.072,0,0,0-.1.052c-.01.056.006.116.085.116.049,0,.074-.029.084-.1C-1429.242,804.665-1429.286,804.645-1429.324,804.63Z" transform="translate(-62.085 -228.538)" fill="#8b93a5"/>
      <path id="Path_1557" data-name="Path 1557" d="M-1151.327,796.972c-.045.009-.076.032-.056.08a.08.08,0,0,0,.063.037.064.064,0,0,0,.06-.083C-1151.263,796.99-1151.3,796.983-1151.327,796.972Z" transform="translate(-268.45 -222.858)" fill="#8b93a5"/>
      <path id="Path_1558" data-name="Path 1558" d="M-1244.356,676.949c0-.018-.029-.037-.045-.056-.021.013-.056.021-.061.039a.074.074,0,0,0,.025.068A.053.053,0,0,0-1244.356,676.949Z" transform="translate(-199.367 -133.732)" fill="#8b93a5"/>
      <path id="Path_1559" data-name="Path 1559" d="M-1106.825,690.131c0-.017-.033-.032-.051-.049-.017.011-.052.024-.053.039a.082.082,0,0,0,.033.069C-1106.84,690.218-1106.823,690.174-1106.825,690.131Z" transform="translate(-301.448 -143.521)" fill="#8b93a5"/>
      <path id="Path_1560" data-name="Path 1560" d="M-1447.329,782.87c0,.023.029.046.045.07.017-.023.048-.046.048-.07s-.031-.046-.047-.069C-1447.3,782.825-1447.329,782.848-1447.329,782.87Z" transform="translate(-48.796 -212.34)" fill="#8b93a5"/>
      <path id="Path_1561" data-name="Path 1561" d="M-1387.6,813.258c.006.012.021.02.032.029.011-.01.025-.018.031-.03.015-.034,0-.067-.033-.067S-1387.62,813.225-1387.6,813.258Z" transform="translate(-93.12 -234.896)" fill="#8b93a5"/>
      <path id="Path_1562" data-name="Path 1562" d="M-1194.571,523.317c.016-.034.007-.057-.031-.064-.01,0-.032.009-.032.015a.132.132,0,0,0,.009.07C-1194.609,523.363-1194.586,523.352-1194.571,523.317Z" transform="translate(-236.352 -19.697)" fill="#8b93a5"/>
      <path id="Path_1563" data-name="Path 1563" d="M-1092.541,704.546c-.013-.018-.024-.048-.038-.049s-.044.016-.067.026c.012.017.024.048.038.049S-1092.564,704.555-1092.541,704.546Z" transform="translate(-312.05 -154.22)" fill="#8b93a5"/>
      <path id="Path_1564" data-name="Path 1564" d="M-1204.091,662.361c-.006,0-.03.017-.029.024.006.041.036.055.072.058A.07.07,0,0,0-1204.091,662.361Z" transform="translate(-229.312 -122.946)" fill="#8b93a5"/>
      <path id="Path_1565" data-name="Path 1565" d="M-1203.84,662.687l.007-.007h-.007S-1203.84,662.684-1203.84,662.687Z" transform="translate(-229.519 -123.182)" fill="#8b93a5"/>
      <path id="Path_1566" data-name="Path 1566" d="M-1453.978,588.569l.064-.109A.1.1,0,0,0-1453.978,588.569Z" transform="translate(-43.86 -68.095)" fill="#8b93a5"/>
      <path id="Path_1567" data-name="Path 1567" d="M-1102.275,616.987l.108.087A.121.121,0,0,0-1102.275,616.987Z" transform="translate(-304.903 -89.269)" fill="#8b93a5"/>
      <path id="Path_1568" data-name="Path 1568" d="M-1318.976,861.956l-.03.046.028.015c.01-.01.029-.02.029-.03S-1318.966,861.966-1318.976,861.956Z" transform="translate(-144.04 -271.09)" fill="#8b93a5"/>
    </g>
    <rect id="Rectangle_118" data-name="Rectangle 118" width="211" height="139" transform="translate(1539 1142)" fill="none"/>
  </g>
</svg>
