<svg xmlns="http://www.w3.org/2000/svg" width="492.017" height="458.242" viewBox="0 0 492.017 458.242">
  <defs>
    <style>
      .cls-1, .cls-2 {
        fill: #1a83ff;
      }

      .cls-2 {
        opacity: 0.1;
      }
    </style>
  </defs>
  <g id="ore24" transform="translate(2051.403 -1510.153)">
    <g id="Group_22" data-name="Group 22">
      <path id="Path_1491" data-name="Path 1491" class="cls-1" d="M-1594.99,1667.964l-15,8.154c-2.708-4.982-5.374-9.885-8.149-14.989l7.785,2.279c.128-10.683-6.992-26.839-24.4-32.724a36.051,36.051,0,0,0-45.423,21.886l-1.3-2.32-3.977,2.139c.127-.434.188-.717.291-.984,6.23-16.171,17.88-25.688,35.138-27.5,22.249-2.337,41.965,13.774,44.707,36.024a37.585,37.585,0,0,1,.251,4.162,1.027,1.027,0,0,0,.89,1.169C-1601.171,1666.11-1598.181,1667.019-1594.99,1667.964Z"/>
      <path id="Path_1492" data-name="Path 1492" class="cls-1" d="M-1612.266,1677.118l1.31,2.307,3.941-2.121a8.745,8.745,0,0,1-.224.882c-6.225,16.21-17.875,25.784-35.177,27.583a40.855,40.855,0,0,1-44.521-34.708,51.071,51.071,0,0,1-.435-5.477,1.044,1.044,0,0,0-.893-1.166c-3.007-.851-6-1.759-9.183-2.7l15-8.155,8.15,14.989-7.9-2.313a35.075,35.075,0,0,0,5.027,17.007,35.379,35.379,0,0,0,19.494,15.749C-1638.56,1705.451-1618.409,1694.823-1612.266,1677.118Z"/>
      <path id="Path_1493" data-name="Path 1493" class="cls-1" d="M-1627.249,1672.934h-5.864v-6.211h-12.833c.029-2.09-.217-3.994,1.1-5.91,3.686-5.357,7.143-10.872,10.654-16.349a1.6,1.6,0,0,1,1.6-.842c1.729.049,3.461.015,5.3.015v18.527h3.441v4.516h-3.391Zm-5.918-22.519q-3.642,5.752-7.411,11.71h7.411Z"/>
      <path id="Path_1494" data-name="Path 1494" class="cls-1" d="M-1661.433,1667.67h11.972v5.233h-19.18c0-1.595-.029-3.166.028-4.734.01-.276.351-.571.592-.8,2.822-2.72,5.674-5.408,8.471-8.153a28.656,28.656,0,0,0,2.606-3,6.251,6.251,0,0,0,1.3-4.167,3.574,3.574,0,0,0-3.587-3.748,10.009,10.009,0,0,0-6.537,1.808c-.445.3-.869.625-1.485,1.07v-3.367c0-2.441,0-2.443,2.283-3.409a15.556,15.556,0,0,1,8.823-1.03c5.614.96,8.407,5.794,6.517,11.188a18.539,18.539,0,0,1-5.511,7.471c-1.78,1.612-3.59,3.191-5.385,4.787C-1660.76,1667.023-1660.98,1667.242-1661.433,1667.67Z"/>
    </g>
    <g id="Group_23" data-name="Group 23">
      <path id="Path_1495" data-name="Path 1495" class="cls-1" d="M-1653.537,1689.559a3.738,3.738,0,0,1-1.662-.365,4.143,4.143,0,0,1-1.29-.973,4.369,4.369,0,0,1-.834-1.386,4.48,4.48,0,0,1-.294-1.595,4.348,4.348,0,0,1,.312-1.632,4.522,4.522,0,0,1,.858-1.381,4.1,4.1,0,0,1,1.3-.953,3.785,3.785,0,0,1,1.638-.355,3.641,3.641,0,0,1,1.662.378,4.17,4.17,0,0,1,1.284.991,4.573,4.573,0,0,1,.828,1.385,4.414,4.414,0,0,1,.294,1.578,4.422,4.422,0,0,1-.306,1.632,4.285,4.285,0,0,1-.858,1.374,4.218,4.218,0,0,1-1.3.949A3.761,3.761,0,0,1-1653.537,1689.559Zm-2.712-4.319a3.591,3.591,0,0,0,.192,1.164,3.165,3.165,0,0,0,.546,1,2.665,2.665,0,0,0,.858.689,2.439,2.439,0,0,0,1.128.258,2.378,2.378,0,0,0,1.146-.269,2.7,2.7,0,0,0,.846-.714,3.22,3.22,0,0,0,.528-1,3.626,3.626,0,0,0,.18-1.128,3.569,3.569,0,0,0-.192-1.17,3.122,3.122,0,0,0-.546-.985,2.724,2.724,0,0,0-.852-.683,2.377,2.377,0,0,0-1.11-.259,2.4,2.4,0,0,0-1.152.271,2.735,2.735,0,0,0-.852.7,3.153,3.153,0,0,0-.534.99A3.56,3.56,0,0,0-1656.249,1685.24Z"/>
      <path id="Path_1496" data-name="Path 1496" class="cls-1" d="M-1648.053,1689.5v-8.519h3.708a2.385,2.385,0,0,1,1.062.239,2.719,2.719,0,0,1,.834.63,2.99,2.99,0,0,1,.546.889,2.722,2.722,0,0,1,.2,1.013,2.847,2.847,0,0,1-.12.829,2.913,2.913,0,0,1-.336.731,2.349,2.349,0,0,1-.528.582,2.2,2.2,0,0,1-.684.366l2,3.24h-1.524l-1.848-2.963h-1.968v2.963Zm1.344-4.152h2.351a1.084,1.084,0,0,0,.523-.126,1.224,1.224,0,0,0,.4-.348,1.771,1.771,0,0,0,.264-.509,1.962,1.962,0,0,0,.1-.613,1.65,1.65,0,0,0-.114-.612,1.78,1.78,0,0,0-.3-.5,1.435,1.435,0,0,0-.432-.342,1.109,1.109,0,0,0-.51-.126h-2.28Z"/>
      <path id="Path_1497" data-name="Path 1497" class="cls-1" d="M-1634.277,1688.311v1.188h-5.844v-8.519h5.736v1.187h-4.392v2.424h3.8v1.116h-3.8v2.6Zm-4.452-8.436v-1.32h1.1v1.32Zm2.124,0v-1.32h1.1v1.32Z"/>
    </g>
    <path id="Path_1498" data-name="Path 1498" class="cls-1" d="M-1984.3,1772.72c-6.988-1.086-12.989-1.636-18.8-3.007-9.668-2.283-12.249-12.17-5.268-19.184,5.316-5.343,19.945-8.764,26.147-4.853,3.8,2.4,6.07,7.213,9.153,11.1.1-.15.949-1.416,1.769-2.7,8.057-12.631,15.869-25.427,24.234-37.85,7.346-10.908,17.315-16.957,31.112-17.969,52.11-3.823,104.192-4.5,156.321-.834,5.151.362,10.292,1.112,15.444,1.174,11.283.138,20.141,5.275,26.333,14.056,9.583,13.59,18.278,27.806,27.345,41.76.863,1.33,1.689,2.684,3.057,4.861.315-2.268.11-3.756.729-4.71,2.016-3.106,3.721-7.036,6.657-8.8,6.819-4.09,21.884-.486,27.259,5.649,5.8,6.62,3.132,15.753-5.361,18.038a84.955,84.955,0,0,1-9.3,1.816c-3.084.469-6.2.708-9.58,1.077,4.962,4.2,10.21,7.77,14.342,12.347a192.9,192.9,0,0,0,19.693,19.557c10.043,8.349,13.37,20.4,15.014,32.865,2.759,20.921,2.008,41.89.72,62.874-.753,12.258-.853,24.561-1.811,36.8-.53,6.764-1.365,13.737-3.584,20.084-3.777,10.8-6.627,11.809-15.367,11.458-10.149-.408-20.327-.094-30.493-.1-9.073,0-12.8-2.141-15.466-10.767-1.417-4.582-3.456-5.467-7.751-4.746a136.377,136.377,0,0,1-13.941,1.118c-1.482.094-3.313.513-4.413-.156-5.883-3.58-12.289-2.345-18.531-2.352q-96.48-.1-192.961-.034c-2.721,0-5.429,1.105-8.165,1.566a35.182,35.182,0,0,1-7.277.871c-6.3-.278-12.575-.887-19.014-1.376-.682,1.973-1.214,3.7-1.87,5.375-3.232,8.249-6.527,10.5-15.278,10.5-11,0-22.013-.35-32.989.141-5.882.263-9.682-2.377-11.252-7.122-2.433-7.356-4.907-15.049-5.232-22.691-1.278-30.059-1.935-60.151-2.319-90.237-.088-6.9,1.478-13.9,2.9-20.726,2.635-12.685,9.726-22.464,20.595-29.513,1.11-.72,2.472-1.345,3.158-2.384A74.571,74.571,0,0,1-1984.3,1772.72Zm-31.734,43.36-1.732,1.809c-1.7,3.17-4.362,6.177-4.932,9.539-2.593,15.271-4.924,30.6-6.653,45.995-.718,6.386.29,12.968.548,19.46.067,1.695.265,3.386.4,5.078a17.959,17.959,0,0,0,2.153-5.816c2.386-8.862,5.123-10.923,14.315-9.99,6.285.638,12.563,1.589,18.756,2.835,15.94,3.206,31.831,6.655,47.741,10.007-7.427.319-14.656-.557-21.889-1.4q-24.56-2.861-49.123-5.7c-3.33-.386-6.969-.331-7.786,3.54-1.545,7.313-2.374,14.777-3.5,22.178l1.136.184q1.137-8.109,2.275-16.217l1.314.231a33.456,33.456,0,0,0-.87,4.287c-.817,10.924-1.795,21.845-2.195,32.786-.123,3.337.887,6.792,5.789,7.129,24.758,1.7,49.5,3.638,74.252,5.424a17.758,17.758,0,0,0,4.348-.636c3.211-.593,6.415-1.759,9.623-1.763q96.2-.123,192.4.041c7.05.011,14.333-1.585,21.039,2.29.859.5,2.274.1,3.424.011q36.376-2.682,72.752-5.388c4.294-.318,6.894-3.109,6.61-7.383-.821-12.36-1.71-24.716-2.572-37.073l.772-.152c.749,5.555,1.5,11.109,2.345,17.382a38.106,38.106,0,0,0,.337-4.979c-.35-4.644-.582-9.32-1.338-13.905-1.173-7.12-3.212-8.677-10.552-7.847-21.343,2.414-42.664,5.019-64,7.534-1.792.212-3.6.314-5.4.468a285.308,285.308,0,0,1,32.032-7.988c12.254-2.315,24.594-4.2,36.933-6.034,5.4-.8,8.933,1.931,10.525,7.091.889,2.884,1.622,5.816,2.822,10.166a35.687,35.687,0,0,0,.615-4.246c-.206-11.333-.262-22.675-.763-34a177.762,177.762,0,0,0-2.089-20.359c-1.289-8-2.488-16.146-7.878-22.778l-1.883-1.864-8.937-3.462c-.391-2.817.255-7.335-1.638-10.138-6.7-9.918-14.51-18.915-25.3-24.919a21.159,21.159,0,0,1-7-7.212c-10.522-16.721-20.657-33.686-31.27-50.348-2.225-3.493-5.908-6.058-8.919-9.05l.174.177c-3.495-4.389-8.461-5.529-13.643-6-6.138-.56-12.293-.94-18.442-1.377-51.127-3.631-102.2-2.915-153.325.742-12.846.919-21.881,6.262-28.5,16.431-8.9,13.669-17.675,27.442-25.867,41.54-4.389,7.553-8.625,14.442-16.78,18.892-5.361,2.925-9.767,8.007-13.848,12.768-4.679,5.461-9.95,11.073-7.594,18.342Zm345.407-51.806c5.169-.552,9.45-1.214,13.752-1.406,3.552-.158,4.642-2.351,3.642-4.9a15.976,15.976,0,0,0-5.126-6.937c-5.949-4.251-13.009-3.916-19.69-2.611-4.177.816-5.3,5-5.8,9.01-.509,4.1,2.891,4.531,5.282,5.383C-1675.814,1763.793-1672.757,1763.914-1670.627,1764.274Zm-324.515-1.5v.438c2.979.2,6.153,1.128,8.884.4,3.011-.8,6.752-2.5,8.115-4.948,1.81-3.255-2.616-10.319-6.3-10.4a62.759,62.759,0,0,0-17.077,1.685c-2.727.716-5.333,3.908-6.88,6.616-2.043,3.576-.284,5.987,3.812,6.177C-2001.445,1762.89-1998.291,1762.773-1995.142,1762.773Zm-27.087,185.279-.183,1.38,26.744,1.408.036-.536Zm382,1.451.238-1.436-26.393,2.275.04.513Z"/>
    <path id="Path_1499" data-name="Path 1499" class="cls-1" d="M-1644.039,1817.9c.992,8.2,2.09,16.385,2.927,24.6.381,3.738-1.5,6.067-5.156,7.452-6.7,2.54-13.407,4.469-20.312,1.267-11.236-5.212-22.807-3.471-34.277-1.7-7.849,1.212-14.341-.234-19.956-6.072-2.865-2.978-6.445-5.258-9.565-8.009a16.914,16.914,0,0,1-2.374-3.446c1.3-.785,2.524-2.021,3.927-2.287,21.254-4.023,42.512-8.04,63.819-11.768,6.28-1.1,12.719-1.291,19.084-1.9Zm-70.834,13.067-12.968,1.953c2.913,2.447,5.084,3.8,6.646,5.664,6.6,7.873,15.124,8.989,24.375,6.947a52.9,52.9,0,0,1,31.781,2.511c5.122,2.045,10.081,1.122,15.125-.452,3.6-1.122,5.86-2.971,5.459-7.017-.541-5.442-1.081-10.884-1.71-16.316-.58-5.005-3.39-5.917-8.068-4.981-14.33,2.869-28.753,5.269-43.1,8.054-4.119.8-8.1,2.29-12.152,3.463Z"/>
    <path id="Path_1500" data-name="Path 1500" class="cls-1" d="M-2016.034,1816.08c2.27-.16,4.625-.793,6.8-.4q37.348,6.667,74.636,13.678c1.887.354,3.577,1.752,5.359,2.665a32.995,32.995,0,0,1-3.565,4.382c-3.368,2.973-7.139,5.512-10.344,8.64-4.307,4.2-9.171,5.594-15.033,4.73-6.252-.921-12.583-2.228-18.831-2a64.078,64.078,0,0,0-17.883,3.513c-7.718,2.6-14.659,1.265-21.761-1.777-2.867-1.228-4.434-3.126-4.138-6.034.871-8.54,2-17.055,3.03-25.579Zm64.182,14.441a4.293,4.293,0,0,0-1.263-.773c-19.243-3.626-38.482-7.278-57.765-10.681-1.183-.209-3.764,1.42-3.92,2.461-1.076,7.167-1.791,14.4-2.31,21.63-.074,1.032,1.3,2.691,2.4,3.2,5.539,2.551,11.275,4.159,17.36,1.781,10.494-4.1,21.214-5.244,32.257-2.567,1.279.31,2.7.062,3.967.39,12.319,3.188,18.154-6.456,26.741-12.728l-13.152-3.04Z"/>
    <path id="Path_1501" data-name="Path 1501" class="cls-1" d="M-1728.984,1710.905c.905,1.712,1.783,3.439,2.719,5.134q13.382,24.222,26.755,48.448a46.606,46.606,0,0,1,2.027,5.173c-89.161-4.229-177.647-4.252-266.954.019,1.821-4.185,3.091-7.938,5-11.335,8.213-14.647,16.644-29.171,24.917-43.785,1.639-2.9,3.911-4.111,7.2-4.387,56.858-4.775,113.749-5.686,170.683-1.557,9.287.674,18.553,1.637,27.831,2.467Z"/>
    <path id="Path_1502" data-name="Path 1502" class="cls-1" d="M-1831.005,1827.3c24.494.55,48.972,1.189,73.454,1.586,6.19.1,10.975,2.477,15.832,6.18,10.3,7.853,14.781,16.947,11.2,30.206-5.025,18.6-8.675,37.573-13.385,56.268-2.2,8.719-6.64,11.636-15.637,11.644q-71.459.069-142.918,0c-9-.008-12.931-3.039-15.739-11.621a341.76,341.76,0,0,1-14.509-66.733c-.292-2.5-.119-5.878,1.323-7.622,7.589-9.187,14.747-18.586,28.938-18.494C-1878.638,1828.87-1854.822,1827.836-1831.005,1827.3Zm.017,102.012v.4c17.323,0,34.645.034,51.968-.018,6.328-.019,12.657-.229,18.985-.374,7.923-.18,10.749-1.826,12.626-9.344,4.47-17.9,8.965-35.823,12.535-53.917,3.434-17.4,2.618-18.64-11.422-29.484a16.211,16.211,0,0,0-9.036-3.439c-47.793-.318-95.589-.115-143.378-.657-10.725-.121-18.59,3.671-25.158,11.489a12.727,12.727,0,0,1-1.376,1.448c-3.182,2.758-4.1,6.158-3.557,10.318a358.832,358.832,0,0,0,14.31,64.754c2.215,6.821,4.74,8.775,12.05,8.8C-1878.623,1929.361-1854.806,1929.314-1830.988,1929.314Z"/>
    <path id="Path_1503" data-name="Path 1503" class="cls-1" d="M-1927.878,1813.581l-44.524-39.637c3.411-.595,6.465-1.312,9.556-1.563a4.472,4.472,0,0,1,3.193,1.626C-1948.622,1787.636-1937.683,1801.338-1927.878,1813.581Z"/>
    <path id="Path_1504" data-name="Path 1504" class="cls-1" d="M-1734.183,1813.641c9.71-12.109,20.456-25.4,31.042-38.821,1.664-2.109,3.148-3.039,5.838-2.252a68.827,68.827,0,0,0,7.735,1.339Z"/>
    <path id="Path_1505" data-name="Path 1505" class="cls-1" d="M-2021.266,1894.924c30.414-.018,60.225,5,89.935,10.854C-1961.184,1901.116-1991.029,1896.379-2021.266,1894.924Z"/>
    <path id="Path_1506" data-name="Path 1506" class="cls-1" d="M-1640.8,1895.623c-30.114.706-59.869,5.549-88.955,10.558C-1724.2,1901.486-1647.4,1892.093-1640.8,1895.623Z"/>
    <path id="Path_1507" data-name="Path 1507" class="cls-1" d="M-1938.928,1929.993l21.626,3.308-.221,1.435-21.633-3.262Z"/>
    <path id="Path_1508" data-name="Path 1508" class="cls-1" d="M-1723.073,1931.557l-21.381,3.152-.214-1.4,21.565-3.332Z"/>
    <path id="Path_1509" data-name="Path 1509" class="cls-1" d="M-1709.486,1830.791q23.985-4.431,47.971-8.857c2.25-.414,4.516-.738,6.891-1.122-1.129,8.113-1.859,8.89-9.289,10-13.325,2-26.647,4.026-39.989,5.906a52.983,52.983,0,0,1-7.434.034l.177.174-5.987-4.452,2.273-1.513Z"/>
    <path id="Path_1510" data-name="Path 1510" class="cls-1" d="M-1950.649,1836.752c-7.419-.751-14.856-1.36-22.253-2.291-8.092-1.019-16.141-2.385-24.221-3.511-8.324-1.16-8.331-1.113-10.672-10.258l55.943,9.829,4.314-.33c.78.738,1.559,1.477,2.5,2.365l-5.783,4.37Z"/>
    <path id="Path_1511" data-name="Path 1511" class="cls-1" d="M-1711.336,1836.756c1.726.655,3.563,2.076,5.163,1.847,15.314-2.192,30.545-5.021,45.9-6.852,5.13-.612,5.329-4.556,7.7-7.725-.173,5.972-1.985,9.03-8.3,9.607a231.063,231.063,0,0,0-31.277,5.512c10.371-1.285,20.735-2.633,31.116-3.824,4.24-.486,8.816-.139,9.589-6.313.455,5.021-1.235,7.456-6.332,7.99-16.221,1.7-32.4,3.834-48.589,5.814-5.2.636-8.988-1.927-9.427-6.919,1.65.371,3.151.709,4.645,1.042C-1711.159,1836.93-1711.336,1836.756-1711.336,1836.756Z"/>
    <path id="Path_1512" data-name="Path 1512" class="cls-1" d="M-1650.445,1843.063c-7.438,3.933-14.875,3.294-22.313.494C-1665.32,1843.255-1657.882,1838.979-1650.445,1843.063Z"/>
    <path id="Path_1513" data-name="Path 1513" class="cls-1" d="M-1647.5,1829.358c.4,3.963.8,7.926,1.284,12.707-6.951-3.98-3.6-8.432-2.679-12.572Z"/>
    <path id="Path_1514" data-name="Path 1514" class="cls-1" d="M-1950.825,1836.926l4.219-1.189c.749,4.021-3.182,7.708-7.783,7.181-11.741-1.343-23.463-2.853-35.194-4.29-4.46-.547-8.917-1.133-13.386-1.6-7.179-.748-7.46-1-7.723-8.816.757,6.272,5.039,6.754,9.92,7.2,10.252.948,20.454,2.435,30.786,2.931-10.427-1.645-20.857-3.262-31.278-4.943-7.143-1.153-7.137-1.193-7.746-9.394.825,8.008,6.943,7.4,12.259,8.224,13.479,2.093,26.931,4.368,40.433,6.29,1.767.252,3.766-1.136,5.663-1.769Z"/>
    <path id="Path_1515" data-name="Path 1515" class="cls-1" d="M-2011.506,1843.091c7.277-4.564,14.755.655,23.38-.586C-1994.338,1846.656-2003.9,1846.9-2011.506,1843.091Z"/>
    <path id="Path_1516" data-name="Path 1516" class="cls-1" d="M-2015.822,1842.453c.537-5.126.961-9.173,1.386-13.22C-2012.139,1833.5-2008.98,1837.793-2015.822,1842.453Z"/>
    <path id="Path_1517" data-name="Path 1517" class="cls-1" d="M-1917.985,1874.238h174.005q.049.554.1,1.107c-6.043.536-12.084,1.52-18.129,1.538q-68.945.2-137.89.012c-6.059-.017-12.115-1-18.172-1.538Z"/>
    <path id="Path_1518" data-name="Path 1518" class="cls-1" d="M-1915.939,1885.076h170.645C-1755.411,1888.66-1903.255,1888.969-1915.939,1885.076Z"/>
    <path id="Path_1519" data-name="Path 1519" class="cls-1" d="M-1913.07,1896.843h164.1q0,.939,0,1.879-82.048,1.387-164.1.038Z"/>
    <path id="Path_1520" data-name="Path 1520" class="cls-1" d="M-1750.981,1842.29h-160.1V1840.7c53.317-1.222,106.636-1.1,159.957-.075Z"/>
    <path id="Path_1521" data-name="Path 1521" class="cls-1" d="M-1910.945,1907.088h160.2C-1759.672,1910.606-1903.346,1910.468-1910.945,1907.088Z"/>
    <path id="Path_1522" data-name="Path 1522" class="cls-1" d="M-1743.619,1864.667c-58.264,1.423-116.527,1.263-174.79.111v-1.9h174.79Z"/>
    <path id="Path_1523" data-name="Path 1523" class="cls-1" d="M-1754.66,1919.636q-76.3,2.829-152.6.018v-1.712h152.6Z"/>
    <path id="Path_1524" data-name="Path 1524" class="cls-1" d="M-1919.9,1851.57h177.73l.168.753c-4.676.626-9.348,1.758-14.029,1.794-29.968.234-59.938.274-89.907.282-20.144.006-40.29-.04-60.432-.305-4.579-.06-9.145-1.12-13.717-1.719Z"/>
    <path id="Path_1525" data-name="Path 1525" class="cls-2" d="M-1564.32,1771.73c-4.93,10.85-13.49,19.24-23.81,25.11a81.88,81.88,0,0,1-39.35,10.22,115.933,115.933,0,0,1-20.14-1.69q-7.875-8.655-15.13-17.84c-2.48-3.13-4.95-6.42-5.92-10.29s-.05-8.48,3.2-10.78c2.98-2.11,7.73-2.38,8.89-5.84,1.2-3.57-2.69-6.64-6.02-8.41-3.89-2.07-8.02-4.19-12.42-4.02s-8.99,3.62-8.74,8.01a12.532,12.532,0,0,0,2.11,5.44q6.615,11.34,13.23,22.67l-37.35-43.5c-8.21-9.56-16.66-19.32-27.66-25.48-15.65-8.77-34.45-9.2-52.39-9.4q-48.09-.555-96.16-1.1c-14.11-.17-28.78-.21-41.54,5.81a47.051,47.051,0,0,0-17.77,14.65c-4.62,6.3-7.59,13.64-11.33,20.49q-1.275,2.325-2.67,4.58a14.989,14.989,0,0,0-11.34.48c-22.04,10.35-49.67-3.13-64.9-22.13-10.03-12.52-15.73-27.83-18.26-43.77a135.758,135.758,0,0,1-1.56-24.97c.39-14.58,3.04-29.85,12.2-41.2,20.8-25.74,62.31-19.15,90.79-36.02,23.72-14.06,35.41-42.64,58.07-58.36,26.47-18.37,61.82-15.52,93.63-10.35,10.41,1.7,21.14,3.7,29.85,9.65,17.82,12.18,21.72,36.39,32.83,54.89,14.84,24.7,42.29,38.6,68.87,49.72s54.75,21.41,74.62,42.28c12.48,13.11,20.89,29.71,26.2,47.02C-1558.88,1735.24-1556.7,1754.93-1564.32,1771.73Z"/>
    <path id="Path_1526" data-name="Path 1526" class="cls-2" d="M-1588.13,1769.68v27.16a81.88,81.88,0,0,1-39.35,10.22,115.933,115.933,0,0,1-20.14-1.69q-7.875-8.655-15.13-17.84c-2.48-3.13-4.95-6.42-5.92-10.29s-.05-8.48,3.2-10.78c2.98-2.11,7.73-2.38,8.89-5.84,1.2-3.57-2.69-6.64-6.02-8.41-3.89-2.07-8.02-4.19-12.42-4.02s-8.99,3.62-8.74,8.01a12.532,12.532,0,0,0,2.11,5.44q6.615,11.34,13.23,22.67l-37.35-43.5c-8.21-9.56-16.66-19.32-27.66-25.48-15.65-8.77-34.45-9.2-52.39-9.4q-48.09-.555-96.16-1.1c-14.11-.17-28.78-.21-41.54,5.81a47.051,47.051,0,0,0-17.77,14.65c-4.62,6.3-7.59,13.64-11.33,20.49q-1.275,2.325-2.67,4.58a14.989,14.989,0,0,0-11.34.48c-22.04,10.35-49.67-3.13-64.9-22.13-10.03-12.52-15.73-27.83-18.26-43.77l3.39-1.18h43.93V1640.7h27.43v17.58h14.23v-55.17h32.93v7.7h12.8v71.36h24.91v-38.55h10.42v-19.94h18.11v61.67h23.55V1665.6h7.53v7.3h10.13v-91.07h26.26v94.29h18.57v-28.18h9.96v28.18h9.51v9.23h34.41v17.84s14.49,5.89,14.49,0v-67.02l7.38-7.38h10.28v102.47h58.42V1713.6h11.77v-12.29h12.37v68.37Z"/>
  </g>
</svg>
