<svg xmlns="http://www.w3.org/2000/svg" width="586.24" height="575.784" viewBox="0 0 586.24 575.784">
  <g id="tere-kosoven" transform="translate(1158.276 -972.141)">
    <path id="Path_1569" data-name="Path 1569" d="M-1156.276,1035.346c1.775-.607,3.472.293,5.214.268a93.623,93.623,0,0,0,11.252-.339,10.265,10.265,0,0,0,5.9-2.847c1.511-1.427,2.92-2.961,4.431-4.389,2.945-2.785,5.7-2.443,7.964.939,1.208,1.808,1.791,3.913,2.815,5.818a18.532,18.532,0,0,0,5.719,6.349c3.774,2.694,7.456,5.516,11.326,8.075a46.208,46.208,0,0,1,8.286,7.607c5.2,5.653,10.879,10.839,16.017,16.529,4.032,4.464,9.062,6.084,14.7,6.413,6.968.408,13.633,1.649,19.433,5.849,1.359.984,2.737,1.962,4.015,3.035,6.311,5.3,13.609,8.933,20.925,12.525,5.053,2.481,7.784,6.383,8.082,12.011.3,5.755-1.3,11.23-2.414,16.777-.3,1.49-1.5,1.885-2.847,2.146-5.408,1.053-10.882,1.709-16.294,2.737a30.3,30.3,0,0,0-3.493.809q-4.595,1.383-9.06,3.142c-3.487,1.371-4.792,4.209-5.213,7.655a2.37,2.37,0,0,0-.008.718c1.044,5.433-1.068,9.594-5.072,13.115-1.132.995-2.175,1.579-3.641,1.154-3.6-1.047-7.257-1.913-10.414-4.137a40.044,40.044,0,0,0-13.98-6.063,5.032,5.032,0,0,0-4.338.441c-3.751,2.581-7.489,5.171-10.458,8.7a6.069,6.069,0,0,0-1.1,3.06c-1.133,5.987,1.672,10.21,5.8,14.035,3.812,3.531,7.394,7.306,11.055,11,3.073,3.1,4.12,6.505,1.941,10.625-1.3,2.463-1.993,5.228-3.549,7.587-3.159,4.789-2.417,10.114-1.964,15.347.266,3.07-.041,5.89-1.915,8.418-1.364,1.84-2.081,2.008-4.01.907-4.613-2.634-4.594-2.609-8.823.578-2.221,1.675-3.6,4.048-5.344,6.125a28.154,28.154,0,0,0-2.339,3.038c-3.752,5.98-9.583,7.316-15.874,6.349a16.426,16.426,0,0,0-14.08,4.075,45.09,45.09,0,0,1-15.838,9.223,4.054,4.054,0,0,1-2.806.2" fill="none" stroke="#1a83ff" stroke-miterlimit="10" stroke-width="4"/>
    <path id="Path_1570" data-name="Path 1570" d="M-971.476,1546.546a2.175,2.175,0,0,1-.621-1.519c-.038-4.637-.737-9.228-.978-13.847-.4-7.735,3.45-13.529,9.145-18.118,3.781-3.046,4.7-6.579,4.089-11.188-.7-5.286-2.819-10.35-2.27-15.842.3-3.025,3.4-6.61,6.469-6.951a2.859,2.859,0,0,1,2.479,1.2c1.091,1.169,2.107,2.406,3.2,3.572a10.5,10.5,0,0,0,3.746,2.525,5.782,5.782,0,0,0,7.678-2.377c.663-1,1.091-2.136,1.756-3.135,1.609-2.418,3.315-2.574,5.2-.4,1.415,1.631,2.622,3.431,3.926,5.152,2.814,3.713,6.855,3.989,10.15.718a48.132,48.132,0,0,0,11.8-19.25c1.505-4.532,2.126-9.248.576-14.083-1.738-5.424-2.919-11.038-2.105-16.764a195.339,195.339,0,0,1,3.551-19.313,27.353,27.353,0,0,1,5.327-11.14,23.653,23.653,0,0,1,11-7.362c15.969-5.424,31.859-11.077,47.861-16.407a34.377,34.377,0,0,0,14.517-9.012c3.274-3.479,6.551-6.973,10.634-9.639,3.125-2.041,6.036-2.355,9.137-.3a101.331,101.331,0,0,1,21.254,18.19,32.092,32.092,0,0,1,5.186,8.6c1.912,4.6,4.972,7.665,10.2,8.226,2.612.28,5.148,1.145,7.767,1.451,3.058.357,3.994-.23,4.351-3.2a30.141,30.141,0,0,0-.954-11.836,10.754,10.754,0,0,1,1.48-9.733c4.224-6.211,8.24-12.568,12.346-18.862,1.7-2.609,3.745-4.762,7.125-5.146a9.472,9.472,0,0,1,4,.43c2.518.787,4.894,2.007,7.478,2.566.882.19,2.076.5,2.68-.406a2.738,2.738,0,0,0-.233-2.742c-.255-.5-.582-.957-.811-1.468-.688-1.54-1.557-3.082-.022-4.635a5.424,5.424,0,0,1,5.778-1.17,7.28,7.28,0,0,1,1.761,1.233c3.042,2.649,3.475,2.665,6.1-.329,1.227-1.4,2.46-1.711,3.93-.545,2.9,2.3,6.182,1.733,9.385,1.176a51.351,51.351,0,0,0,6.265-1.61c2.281-.7,4.472-1.251,6.644.308.52.374,1.248.2,1.883.211,1.919.042,3.842.084,5.758,0a36.984,36.984,0,0,1,13.708,1.707c5.214,1.787,9.55.614,12.782-4.049,2.569-3.707,6.755-5.29,10.336-7.643,5.88-3.864,11.988-7.373,17.872-11.229a18.65,18.65,0,0,1,11.072-3.253c.48.014.96,0,1.44,0,10.3.005,7.276.648,14.992-5.949,5.267-4.5,6.511-4.85,12.739-1.548,2.319,1.229,4.8,2.179,6.872,3.847v.48" fill="none" stroke="#1a83ff" stroke-miterlimit="10" stroke-width="4"/>
    <path id="Path_1571" data-name="Path 1571" d="M-1156.276,1033.906v.96a88.088,88.088,0,0,0,13.113.643,14.157,14.157,0,0,0,11.3-5.258,26.842,26.842,0,0,1,2.885-2.876c2.559-2.288,5.109-1.981,7.111.838a19.34,19.34,0,0,1,1.96,3.832,19.614,19.614,0,0,0,7.195,9.036,131.233,131.233,0,0,1,23.275,19.5c4.44,4.814,9.331,9.21,13.827,13.975a15.681,15.681,0,0,0,8.55,4.457,32.586,32.586,0,0,0,5.461.695c7.606.313,14.506,2.446,20.574,7.318,5.1,4.093,10.372,7.995,16.372,10.782,2.751,1.278,5.442,2.7,8.147,4.077a11.433,11.433,0,0,1,5.713,6.814,22.17,22.17,0,0,1,.463,10.675c-.585,2.976-1.147,5.957-1.662,8.946-.473,2.742.012,3.315,2.7,2.649,8.2-2.032,16.69-2.93,24.506-6.408a25.806,25.806,0,0,1,3.335-1.342c4.549-1.322,6.358-5.34,8.716-8.8a3.736,3.736,0,0,0,.158-3.038,11.746,11.746,0,0,0-5.823-8.049c-5.549-3.139-6.339-5.427-4.826-11.563a15.514,15.514,0,0,1,.8-3.007c2.621-5.485,5.067-8.706,11.012-8.6,6.256.109,10.6-2.69,13.064-8.592,2.427-5.817,2.614-5.755,8.741-4.959,1.54.2,3.235.7,4.61-.516,1.733-1.537,3.7-2.941,5-4.809a108.154,108.154,0,0,0,10.487-17.726,36.073,36.073,0,0,0,3.145-11.708c.227-2.62-.944-4.094-3.587-4.334-.717-.066-1.439-.036-2.158-.04-3.953-.024-4.553-.427-5.946-4.167-2.034-5.46-3.437-11.148-6.022-16.412a8.616,8.616,0,0,1-.772-4.444c.222-3.079,1.906-5.767,4.074-6.178a17.479,17.479,0,0,1,4.274-.556c4.916.291,9.015-1.662,12.825-4.519,5.246-3.933,10.515-7.836,15.734-11.8a25.456,25.456,0,0,1,9.957-4.516c1.85-.416,3.788-1.053,5.672-.627,8.259,1.867,13.668,7.2,17.294,14.6.464.945.535,1.6-.925,1.7-3.192.209-4.5,1.554-4.493,4.643a38.359,38.359,0,0,1-.883,7.6c-.715,3.569-.373,4.429,2.773,6.293q20.224,11.98,40.586,23.729c2.785,1.6,5.8,2.992,9,3.09,4.074.126,8.128.691,12.2.585,3.913-.1,6.495,2.009,8.364,5.045a33.665,33.665,0,0,1,4.685,12.489c.546,3.475,1.512,6.866,2.131,10.328a20.035,20.035,0,0,0,2.518,6.706c2.031,3.431,4.888,4.145,8.214,2.093,1.023-.63,1.949-1.4,2.965-2.037,1.429-.894,4.686-.8,5.587.481,2.1,2.995,4.523,6.028,4.473,9.883a109.714,109.714,0,0,0,1.146,15.276c.246,1.942.125,4.03,1.4,5.753a88.013,88.013,0,0,0,5.939,6.908,6.879,6.879,0,0,0,4.788,1.931,29.2,29.2,0,0,0,3.6.033,11.026,11.026,0,0,1,7.369,2.357c1.537,1.152,3.007,2.385,4.527,3.557,1.266.975,2.491,2.126,4.063,2.5,3.954.929,7.84,2.235,11.986,2.207a4.309,4.309,0,0,1,4.185,4.028,50.243,50.243,0,0,1-1.917,16.817c-1.241,4.207-2.768,8.362-3.267,12.757a9.228,9.228,0,0,1-1.478,4.492c-1,1.4-.519,2.391.8,3.156a15.135,15.135,0,0,0,7.1,1.9c2.71.118,5.433-.512,8.1-.176,7.6.958,15.191,2.066,22.8,2.916,6.942.777,12.492,3.392,16.569,9.155a43.237,43.237,0,0,0,6,7.167c4.113,3.738,6.762,4.68,11.617,1.971,2.17-1.211,4.52-2.035,6.749-3.118a12.029,12.029,0,0,1,2.521-.676c3.592-.875,7.011.031,10.389.976,5.31,1.485,10.147,3.617,11.1,10.005a5.214,5.214,0,0,0,.438,1.368,3.6,3.6,0,0,1-.283,3.195c-1.131,2.488-3.378,3.548-5.653,4.547-2.233.982-3.6,2.418-3.8,5.018a38.284,38.284,0,0,1-1.25,5.847,2.6,2.6,0,0,1-1.044,1.8c-1.921,1.213-1.869,2.8-.793,4.533,1.22,1.961,1.193,3.894.644,6.16-1.057,4.368-3.226,8.121-5.434,11.931-1.621,2.8-3.667,5.386-4.647,8.533l-.01,0-1.523,2.793a23.743,23.743,0,0,1-4.753,7.118c-2.731,2.693-5.443,5.409-8.041,8.227a11.145,11.145,0,0,0-3.16,7.039,61.128,61.128,0,0,0,.814,11.212c.55,4.631.175,8.934-3.988,12a10.687,10.687,0,0,0-1.378,1.332,7.048,7.048,0,0,1-3.252,1.9c-4.054,1.221-8.073,2.557-12.125,3.782a8.735,8.735,0,0,0-3.213,1.943c-3.183,2.745-4.828,6.016-4.123,10.282a3.414,3.414,0,0,1-.019.957,4.076,4.076,0,0,0,.875,2.9c1.593,2.3,3.025,4.709,4.691,6.949,3.375,4.538,6.032,9.356,7.086,15.008.477,2.561,1.763,3.339,4.452,3.329,2.8-.01,5.6-.005,8.393-.121a23.543,23.543,0,0,1,7.332.861,34.171,34.171,0,0,0,8.675,1.728,4.678,4.678,0,0,0,2.479-.651,18.327,18.327,0,0,0,5.322-5.106,9.912,9.912,0,0,1,2.655-2.381q13.632-8.489,27.257-16.989a5.15,5.15,0,0,1,1.678-.888c2.578-.527,5.106-1.272,7.8-1.085,2.069.144,4.158-.022,6.233.075a6.135,6.135,0,0,0,4.754-1.8c2.27-2.13,4.63-4.17,7.036-6.146,1.844-1.516,3.882-2.451,6.392-1.532,1.128.413,2.231.857,3.312,1.375a72.919,72.919,0,0,0,7.33,3.515c.016-.239.045-.478.045-.717" fill="none" stroke="#1a83ff" stroke-miterlimit="10" stroke-width="4"/>
    <path id="Path_1572" data-name="Path 1572" d="M-972.436,1546.546c.654-4.24-.266-8.419-.591-12.61-.34-4.377-.207-8.559,1.9-12.57,1.95-3.7,4.949-6.464,7.941-9.2,3.124-2.855,3.8-6.191,3.228-10.2-.713-5.036-2.423-9.876-2.325-15.1.06-3.245,1.046-5.14,3.855-6.626,3.785-2,4.058-3.1,2.77-7.189-1.39-4.414.034-8.671,3.442-11.827,4.336-4.016,6.745-9.119,5.65-15.038a103.16,103.16,0,0,0-5.752-20.963c-3.856-9.3-7.493-18.624-6.574-29.126.647-7.389-1.853-14.347-4.743-21.065-1.767-4.108-3.82-8.1-5.421-12.274-3.479-9.062-9.513-16.241-16.706-22.441-5.258-4.533-11.088-8.382-16.655-12.552a11.547,11.547,0,0,0-1.128-.692c-.089-.051-.171-.107-.262-.158-.162-.112-.318-.225-.483-.33a5.085,5.085,0,0,0-.464-.308,7.754,7.754,0,0,1-.866-.61c-.069-.055-.134-.115-.2-.17-.133-.117-.268-.232-.412-.336a3.948,3.948,0,0,0-.445-.3,5.71,5.71,0,0,1-.66-.506c-.069-.066-.135-.141-.2-.207-.134-.15-.272-.3-.417-.445-.076-.074-.152-.156-.228-.229a5.22,5.22,0,0,0-.514-.448c-1.693-1.327-3.619-2.38-5.187-3.841-2.776-2.586-6.06-3.3-9.692-3.265-5.669.054-11.338.018-17.006.014-1.141,0-2.271-.012-3.078-.968-2.717-3.217-4.588-7.067-4.107-11.132.57-4.829-.728-8.315-4.28-11.442-3.657-3.219-3.636-4.524-.783-8.541,1.531-3.408,1.224-5.732-1.306-8.288a21.6,21.6,0,0,1-5.394-8.11c-1.375-4.009-3.2-7.834-4.664-11.806a24.427,24.427,0,0,0-2.3-4.452c-2.435-3.9-6.148-6.156-10.053-8.238-3.873-2.065-7.722-4.126-10.411-7.848-1.764-2.442-4.569-3.693-7.082-5.239a2.473,2.473,0,0,0-2.923.13c-2.068,1.488-4.219,2.856-5.765,4.987-2.3,3.167-4.879,6.116-7.256,9.225a5.387,5.387,0,0,1-2.358,1.947c-3.721,1.418-7.623,2.365-11.49,1.487-5.849-1.328-10.128,1.125-14.381,4.58-5.336,4.334-11,8.18-18.063,9.2" fill="none" stroke="#1a83ff" stroke-miterlimit="10" stroke-width="4"/>
    <path id="Path_1573" data-name="Path 1573" d="M-879.689,1225.208c-8.734-6.1-14.591-4.263-20.454-12.7-3.852-5.544-3.723-12.548-3.07-19.061.493-4.909,1.245-9.907,3.68-14.322,7.18-13.023,25.9-16.753,37.288-27.061,9.435-8.537,13.589-21.415,24.551-28.319,12.23-7.7,43.055-16.083,56.392-10.05,12.268,5.55,29.356,10.939,37.019,21.194,3.8,5.081-3.494,20.1.679,24.931,9.731,11.275,18.2,13.182,33.623,16.5,10.807,2.326,18.731,12.2,29.335,15.194s20.979,8.65,25.751,17.681c3.478,6.584,3.6,14.212,2.59,21.445-1.473,10.592-6.206,21.989-16.854,26.691-6.074,2.682-13.138,2.741-19.891,2.36-18.844-1.065-37.332-5.113-56.124-6.755s-38.628-.666-55.127,7.6c-8.713,4.363-16.223,10.625-25.373,14.191-8.971,3.495-19.01,4.181-28.769,3.675-8.1-.42-17.5-2.527-20.606-9.272-5.118-11.107,14.682-14.9,11.928-26.669C-864.491,1236.607-868.041,1233.348-879.689,1225.208Z" fill="#1a83ff" opacity="0.1"/>
    <path id="Path_1574" data-name="Path 1574" d="M-862.52,1196.536c-4.411-3.753-5.566-10.349-4.112-15.955s5.088-10.384,9-14.651a16.335,16.335,0,0,1,5.616-4.436c4.026-1.629,8.542-.136,12.779.82a50.426,50.426,0,0,0,32.707-3.74c6.19-2.986,11.692-7.21,17.647-10.641s12.675-6.118,19.525-5.551c11.963.989,20.7,11.185,29.051,19.8a135.844,135.844,0,0,0,35.584,26.868c2.41,1.226,4.922,2.407,6.792,4.361,2.192,2.291,3.272,5.408,4.118,8.464,2.168,7.827,3.074,16.693-1.1,23.662-4.777,7.979-15.072,11.174-24.338,10.381s-17.9-4.8-26.523-8.272c-13.372-5.379-27.876-9.635-42.065-7.108-17.592,3.133-33.186,16.424-51,15.005a32.222,32.222,0,0,1-19.924-9.14,12.257,12.257,0,0,1-3.8-6.225c-.72-3.953,1.753-7.755,2.212-11.746C-859.875,1204.325-859.2,1199-862.52,1196.536Z" fill="#1a83ff" opacity="0.1"/>
    <path id="Path_1575" data-name="Path 1575" d="M-731.346,1315.217c2.651-9.226-.891-19.443-5.286-27.977s-12.147-15.611-21.495-17.794c-8.689-2.029-17.8.231-26.178,3.3s-16.554,6.978-25.363,8.4c-10.83,1.754-21.859-.36-32.814-.938s-22.834.737-31.059,8c-8.721,7.7-11.226,20.056-13.519,31.46s-5.515,23.78-14.945,30.591c-4.759,3.438-10.6,5.032-15.646,8.032s-9.554,8.341-8.642,14.141c.738,4.7,4.96,8.268,9.538,9.551s9.462.687,14.134-.2a112.318,112.318,0,0,0,39.971-15.807c9.053-5.848,17.275-13.116,27.1-17.551s22.141-5.52,30.812.882c5.849,4.319,9.237,11.411,15.251,15.5a20.247,20.247,0,0,0,20.346,1.162c12.471-6.537,14.832-23.924,25.686-32.893C-738.089,1328.64-733.269,1321.908-731.346,1315.217Z" fill="#1a83ff" opacity="0.1"/>
    <path id="Path_1576" data-name="Path 1576" d="M-859.612,1307.655a11.292,11.292,0,0,1,4.467-7.973,19.848,19.848,0,0,1,8.6-3.623c17.683-3.425,35.677,8.165,53.393,4.912,5.6-1.028,10.887-3.514,16.542-4.166a21.882,21.882,0,0,1,14.53,3.186,16.55,16.55,0,0,1,7.506,12.568,13.358,13.358,0,0,1-7,12.514c-2.631,1.3-5.625,1.574-8.509,2.107-14.7,2.72-27.843,12.521-42.788,12.638-11.06.087-21.384-5.177-32.192-7.523a23.763,23.763,0,0,0-8.908-.562c-4.451.744-8.288,3.473-12.507,5.075a12.25,12.25,0,0,1-5.819.945,6.068,6.068,0,0,1-4.768-3.141c-1.082-2.269-.175-5.072,1.478-6.965s3.928-3.106,6.079-4.407a21.938,21.938,0,0,0,6.353-5.263C-861.491,1315.771-858.979,1310.349-859.612,1307.655Z" fill="#1a83ff" opacity="0.1"/>
    <path id="Path_1577" data-name="Path 1577" d="M-949.82,1396.8c3.233,2.434,7.242,3.893,11.216,3.131a21.336,21.336,0,0,0,10.442-5.859,33.653,33.653,0,0,0,8.414-12.973c5.39-15.116-.549-31.981,1.992-47.827,1.953-12.18,8.755-22.933,14.864-33.649s11.81-22.41,11.2-34.73a20.815,20.815,0,0,0-2.034-8.559,19.823,19.823,0,0,0-6.542-7c-11-7.568-25.7-7.125-38.637-3.823s-25.191,9.126-38.324,11.524c-21.29,3.888-43.033-1.48-64.166-6.146-2.639-.583-5.469-1.142-7.98-.142-3.406,1.357-5.164,5.2-5.641,8.835-.735,5.6.762,11.222,2.245,16.67,2.277,8.368,4.816,17.183,11.123,23.135,5.482,5.172,13.01,7.411,20.116,9.924,12.71,4.5,25.114,10.493,35.1,19.549s17.41,21.464,18.46,34.905c.4,5.06-.1,10.2.879,15.184C-965.6,1386.55-956.008,1392.14-949.82,1396.8Z" fill="#1a83ff" opacity="0.1"/>
    <path id="Path_1578" data-name="Path 1578" d="M-1020.994,1276.5c6.623-3.859,14.939,3.449,22.5,2.174s14.9-3.7,22.487-4.781c10.148-1.444,20.469-.444,30.654.7,7.56.844,15.425,1.876,21.757,6.092,2.354,1.568,4.557,3.776,4.941,6.578a10.222,10.222,0,0,1-1.007,5.3,26.235,26.235,0,0,1-5.442,8.135c-2.185,2.22-4.763,4.047-6.785,6.416a18.957,18.957,0,0,0-4.4,13.877c.4,4.281,2.242,8.289,3.078,12.506s.391,9.168-2.9,11.937c-4.079,3.436-10.554,1.786-14.583-1.708s-6.53-8.4-10.005-12.443c-6.979-8.123-17.357-12.291-27.111-16.71-8.758-3.968-17.317-8.357-25.873-12.743-4.722-2.421-9.5-4.878-13.492-8.371a8.806,8.806,0,0,1-2.888-3.871C-1031.278,1285.555-1024.626,1278.617-1020.994,1276.5Z" fill="#1a83ff" opacity="0.1"/>
    <path id="Path_1579" data-name="Path 1579" d="M-957.8,1245.987c7.777-1.811,16.933-6.621,22.394-12.447,9.366-9.989,12.257-24.609,11.4-38.275s-4.983-26.88-7.9-40.258c-1.819-8.333-3.646-17.569-10.432-22.735-6.184-4.707-14.927-4.566-22.294-2.093s-13.867,6.947-20.781,10.494a89.222,89.222,0,0,1-29.378,9.1c-5.4.688-11.1.957-15.743,3.809-4.426,2.721-7.256,7.435-11.394,10.578a26.365,26.365,0,0,1-9.458,4.319,39.48,39.48,0,0,1-20.931-.388c-3.087-.916-6.759-2.112-9.242-.06-1.821,1.5-2.128,4.267-1.43,6.523a23.014,23.014,0,0,0,3.551,6.1c5.508,7.9,8.921,18.292,5.189,27.166-1.289,3.063-3.377,5.819-4.084,9.066-1.594,7.32,4.128,14.016,9.41,19.328,3.075,3.094,6.26,6.262,10.281,7.953,4.886,2.056,10.426,1.688,15.677.962,14.488-2,28.937-6.474,43.457-4.721,7.351.887,14.418,3.35,21.7,4.7C-971.223,1246.322-964.323,1247.506-957.8,1245.987Z" fill="#1a83ff" opacity="0.1"/>
    <path id="Path_1580" data-name="Path 1580" d="M-1061.334,1189.655c-1.361-4.534.7-10.309,4.8-12.668a12.417,12.417,0,0,1,4.188-1.281,57.78,57.78,0,0,1,10.888-.771c10.428.251,20.993,3.31,31.14.889,4.876-1.164,9.363-3.54,14.066-5.275,12.231-4.512,26.913-4.248,37.317,3.608a8.328,8.328,0,0,1,3.071,3.623c1.072,3.029-1.08,6.241-3.486,8.371-5.027,4.45-12.06,7.494-14.149,13.874-1.023,3.125-.621,6.522-.051,9.76a12.316,12.316,0,0,1,.277,4.191,7.294,7.294,0,0,1-4.308,5.134,13.931,13.931,0,0,1-6.839.923c-6.557-.514-12.627-3.468-18.712-5.964s-12.7-4.6-19.152-3.317c-8.354,1.662-14.845,8.692-23.176,10.464a19.649,19.649,0,0,1-13.167-1.845,8.339,8.339,0,0,1-2.8-2.182,8.124,8.124,0,0,1-1.413-4.167c-.374-3.749.5-7.495.892-11.242S-1060.251,1193.264-1061.334,1189.655Z" fill="#1a83ff" opacity="0.1"/>
    <path id="Path_1581" data-name="Path 1581" d="M-939.879,1147.953c-4.811-3.819-10.079-7.308-12.054-13.125s-1.824-12.183-.612-18.2c2.263-11.253,8.528-22.028,18.339-27.986,7.765-4.715,17.333-6.275,24.335-12.062,4.923-4.069,8.106-9.861,12.65-14.349,6.458-6.38,15.5-9.818,24.56-10.331s18.141,1.746,26.388,5.54a19.683,19.683,0,0,1,5.808,3.674c3.126,3.112,4.154,7.687,5.218,11.967,3.751,15.086,9.764,29.849,19.539,41.936,2.439,3.016,5.138,5.912,6.713,9.456s1.8,8-.585,11.057a15.624,15.624,0,0,1-5.32,3.837c-12.046,6.314-24.575,12.626-38.139,13.628-11.608.856-23.937-2.147-34.53,2.676-7.591,3.457-13.442,10.655-21.626,12.267-6.056,1.193-12.408-1.014-17.348-4.714S-935.045,1151.791-939.879,1147.953Z" fill="#1a83ff" opacity="0.1"/>
    <path id="Path_1582" data-name="Path 1582" d="M-840.646,1111.694c-4.512-5.438-11.46-8.362-18.279-10.213s-13.924-2.376-20.985-2.642c-6.711-.253-13.489-.276-20.067,1.077-9.913,2.037-19.11,7.143-29.175,8.2-3.4.357-7.269.428-9.554,2.975-2.672,2.98-1.652,7.73.27,11.241a28.844,28.844,0,0,0,11.828,11.61c5.4,2.83,11.6,3.866,17.7,3.916a127.033,127.033,0,0,0,18.208-1.671c15.327-2.1,31.074-3.781,46.139-.265a24.2,24.2,0,0,0,6.79,1.032c2.294-.13,4.692-1.2,5.7-3.269a8.224,8.224,0,0,0,.458-4.6C-832.168,1124.426-837.648,1115.307-840.646,1111.694Z" fill="#1a83ff" opacity="0.1"/>
    <path id="Path_1583" data-name="Path 1583" d="M-727.779,1189.4c-5.749-8.866-16.575-23.371-26.892-25.66s-21.154-.187-31.085,3.425c-7.717,2.806-15.357,6.57-23.567,6.683-4.907.067-9.827-1.189-14.687-.505a21.8,21.8,0,0,0-7.584,2.652,22.732,22.732,0,0,0-10.556,12.383,17.876,17.876,0,0,0,2.2,15.881,20.429,20.429,0,0,0,9.624,6.853c7.186,2.631,15.134,2.233,22.67.9s14.91-3.553,22.5-4.491a67.569,67.569,0,0,1,24.194,1.4c9.96,2.423,19.386,7.118,29.575,8.234,4.548.5,9.68.046,12.812-3.289,3.375-3.593,3.186-9.463.893-13.826S-725.1,1193.536-727.779,1189.4Z" fill="#1a83ff" opacity="0.1"/>
    <rect id="Rectangle_119" data-name="Rectangle 119" width="80.604" height="31.486" rx="8" transform="translate(-810.057 1167.71)" fill="#1a83ff"/>
    <g id="Group_81" data-name="Group 81">
      <path id="Path_1584" data-name="Path 1584" d="M-793.562,1187.221v-8.52h3.576a2.379,2.379,0,0,1,1.062.239,2.75,2.75,0,0,1,.834.63,2.988,2.988,0,0,1,.546.889,2.723,2.723,0,0,1,.2,1.014,2.943,2.943,0,0,1-.186,1.038,2.888,2.888,0,0,1-.522.887,2.512,2.512,0,0,1-.81.624,2.327,2.327,0,0,1-1.05.235h-2.3v2.964Zm1.344-4.153H-790a1.128,1.128,0,0,0,.522-.12,1.176,1.176,0,0,0,.4-.336,1.654,1.654,0,0,0,.264-.5,1.991,1.991,0,0,0,.1-.635,1.84,1.84,0,0,0-.108-.649,1.526,1.526,0,0,0-.3-.5,1.37,1.37,0,0,0-.438-.324,1.2,1.2,0,0,0-.51-.114h-2.148Z" fill="#fff"/>
      <path id="Path_1585" data-name="Path 1585" d="M-782.726,1182.085a2.964,2.964,0,0,0-1.362.353,1.872,1.872,0,0,0-.846.943v3.84h-1.32v-6.277h1.224v1.405a2.862,2.862,0,0,1,.846-1.038,2.053,2.053,0,0,1,1.122-.426h.2a.808.808,0,0,1,.138.011Z" fill="#fff"/>
      <path id="Path_1586" data-name="Path 1586" d="M-781.766,1179.913v-1.452h1.32v1.452Zm0,7.308v-6.277h1.32v6.277Z" fill="#fff"/>
      <path id="Path_1587" data-name="Path 1587" d="M-776.583,1187.341a4.8,4.8,0,0,1-1.505-.246,3.816,3.816,0,0,1-1.29-.7l.528-.84a4.853,4.853,0,0,0,1.116.618,3.148,3.148,0,0,0,1.128.21,1.648,1.648,0,0,0,.93-.229.731.731,0,0,0,.342-.647.6.6,0,0,0-.384-.576,7.85,7.85,0,0,0-1.2-.4c-.393-.1-.728-.2-1.008-.3a2.535,2.535,0,0,1-.684-.336,1.161,1.161,0,0,1-.384-.443,1.415,1.415,0,0,1-.12-.612,1.884,1.884,0,0,1,.186-.853,1.845,1.845,0,0,1,.516-.63,2.319,2.319,0,0,1,.774-.389,3.355,3.355,0,0,1,.96-.132,3.945,3.945,0,0,1,1.32.216,3.419,3.419,0,0,1,1.092.624l-.564.792a2.945,2.945,0,0,0-1.86-.7,1.6,1.6,0,0,0-.846.21.726.726,0,0,0-.342.666.674.674,0,0,0,.072.325.612.612,0,0,0,.234.228,1.93,1.93,0,0,0,.42.174c.172.052.385.109.642.174.424.1.79.208,1.1.311a3.056,3.056,0,0,1,.762.367,1.356,1.356,0,0,1,.444.492,1.474,1.474,0,0,1,.143.677,1.7,1.7,0,0,1-.677,1.422A2.944,2.944,0,0,1-776.583,1187.341Z" fill="#fff"/>
      <path id="Path_1588" data-name="Path 1588" d="M-767.283,1187.221h-1.32V1183.7a2.157,2.157,0,0,0-.306-1.278,1.027,1.027,0,0,0-.882-.414,1.505,1.505,0,0,0-.552.108,1.959,1.959,0,0,0-.522.306,2.326,2.326,0,0,0-.438.468,1.977,1.977,0,0,0-.288.593v3.733h-1.32v-8.76h1.32v3.744a2.607,2.607,0,0,1,.978-1.009,2.646,2.646,0,0,1,1.35-.359,1.974,1.974,0,0,1,.966.21,1.706,1.706,0,0,1,.607.557,2.267,2.267,0,0,1,.317.811,5.108,5.108,0,0,1,.09.978Z" fill="#fff"/>
      <path id="Path_1589" data-name="Path 1589" d="M-762.314,1186.9a6.593,6.593,0,0,1-.7.271,2.941,2.941,0,0,1-.947.149,1.982,1.982,0,0,1-.589-.084,1.406,1.406,0,0,1-.486-.252,1.133,1.133,0,0,1-.33-.437,1.608,1.608,0,0,1-.119-.654v-3.924h-.829v-1.021h.829v-2.063h1.319v2.063h1.369v1.021h-1.369v3.5a.659.659,0,0,0,.21.486.711.711,0,0,0,.462.149,1.48,1.48,0,0,0,.529-.095c.168-.065.291-.116.371-.156Z" fill="#fff"/>
      <path id="Path_1590" data-name="Path 1590" d="M-761.4,1179.913v-1.452h1.32v1.452Zm0,7.308v-6.277h1.32v6.277Z" fill="#fff"/>
      <path id="Path_1591" data-name="Path 1591" d="M-752.871,1187.221h-1.32V1183.7a2.289,2.289,0,0,0-.282-1.29.951.951,0,0,0-.834-.4,1.63,1.63,0,0,0-.576.108,1.992,1.992,0,0,0-.54.306,2.379,2.379,0,0,0-.45.468,2.124,2.124,0,0,0-.306.593v3.733h-1.32v-6.277h1.2v1.261a2.55,2.55,0,0,1,1.044-1,3.153,3.153,0,0,1,1.512-.366,1.849,1.849,0,0,1,.924.2,1.526,1.526,0,0,1,.57.558,2.431,2.431,0,0,1,.294.816,5.459,5.459,0,0,1,.084.978Z" fill="#fff"/>
      <path id="Path_1592" data-name="Path 1592" d="M-748.491,1187.341a3.338,3.338,0,0,1-1.332-.258,3.1,3.1,0,0,1-1.026-.7,3.164,3.164,0,0,1-.66-1.032,3.344,3.344,0,0,1-.234-1.248,3.39,3.39,0,0,1,.234-1.254,3.218,3.218,0,0,1,.66-1.044,3.057,3.057,0,0,1,1.026-.708,3.37,3.37,0,0,1,1.344-.258,3.232,3.232,0,0,1,1.326.264,3.156,3.156,0,0,1,1.014.7,3.01,3.01,0,0,1,.642,1.019,3.4,3.4,0,0,1,.222,1.219q0,.144-.012.27t-.024.21h-5.028a2.137,2.137,0,0,0,.2.755,1.965,1.965,0,0,0,.42.582,1.83,1.83,0,0,0,.588.378,1.823,1.823,0,0,0,.69.133,2.1,2.1,0,0,0,.522-.066,1.841,1.841,0,0,0,.474-.193,1.674,1.674,0,0,0,.384-.3,1.428,1.428,0,0,0,.264-.4l1.128.323a2.613,2.613,0,0,1-1.074,1.159A3.338,3.338,0,0,1-748.491,1187.341Zm1.908-3.733a2.11,2.11,0,0,0-.2-.731,1.872,1.872,0,0,0-.414-.57,1.852,1.852,0,0,0-.588-.367,1.94,1.94,0,0,0-.708-.131,1.893,1.893,0,0,0-.7.131,1.869,1.869,0,0,0-.582.367,1.794,1.794,0,0,0-.408.57,2.2,2.2,0,0,0-.192.731Zm-3.552-3.767v-1.32h1.1v1.32Zm2.124,0v-1.32h1.1v1.32Z" fill="#fff"/>
    </g>
    <rect id="Rectangle_120" data-name="Rectangle 120" width="80.604" height="31.486" rx="8" transform="translate(-1013.406 1282.026)" fill="#1a83ff"/>
    <g id="Group_82" data-name="Group 82">
      <path id="Path_1593" data-name="Path 1593" d="M-988.71,1300.48a3.36,3.36,0,0,1-2.484,1.116,3.576,3.576,0,0,1-1.584-.354,4.089,4.089,0,0,1-1.272-.954,4.452,4.452,0,0,1-.846-1.392,4.555,4.555,0,0,1-.306-1.656,4.462,4.462,0,0,1,.306-1.644,4.333,4.333,0,0,1,.846-1.367,3.97,3.97,0,0,1,1.284-.931,3.831,3.831,0,0,1,1.62-.342,3.846,3.846,0,0,1,2.052.51,3.3,3.3,0,0,1,1.248,1.35l-1.032.745a2.387,2.387,0,0,0-.96-1.044,2.663,2.663,0,0,0-1.344-.349,2.315,2.315,0,0,0-1.092.258,2.694,2.694,0,0,0-.84.684,3.081,3.081,0,0,0-.534.991,3.726,3.726,0,0,0-.186,1.175,3.447,3.447,0,0,0,.21,1.212,3.16,3.16,0,0,0,.576.984,2.717,2.717,0,0,0,.87.666,2.455,2.455,0,0,0,1.092.246,2.72,2.72,0,0,0,1.242-.3,3.645,3.645,0,0,0,1.134-.948v-.911H-990.5v-1h2.916v4.307h-1.128Z" fill="#fff"/>
      <path id="Path_1594" data-name="Path 1594" d="M-986.874,1303.828a2.492,2.492,0,0,1-.816-.132,2.045,2.045,0,0,1-.7-.408l.588-.888a.96.96,0,0,0,.36.21,1.317,1.317,0,0,0,.408.066.87.87,0,0,0,.618-.258.866.866,0,0,0,.27-.654v-6.5h1.32v6.408a2.292,2.292,0,0,1-.162.876,2.109,2.109,0,0,1-.444.685,1.988,1.988,0,0,1-.654.443A2.027,2.027,0,0,1-986.874,1303.828Zm.732-9.6v-1.453h1.32v1.453Z" fill="#fff"/>
      <path id="Path_1595" data-name="Path 1595" d="M-981.57,1301.656a2.338,2.338,0,0,1-.846-.15,2.028,2.028,0,0,1-.672-.414,1.931,1.931,0,0,1-.444-.624,1.875,1.875,0,0,1-.162-.78,1.684,1.684,0,0,1,.192-.8,1.9,1.9,0,0,1,.546-.624,2.627,2.627,0,0,1,.84-.407,3.734,3.734,0,0,1,1.074-.145,4.919,4.919,0,0,1,.876.078,4.41,4.41,0,0,1,.78.21v-.432a1.453,1.453,0,0,0-.4-1.085,1.554,1.554,0,0,0-1.14-.391,2.748,2.748,0,0,0-.99.186,4.963,4.963,0,0,0-1,.535l-.408-.841a4.45,4.45,0,0,1,2.52-.816,2.869,2.869,0,0,1,2.016.661,2.439,2.439,0,0,1,.72,1.9v2.269q0,.418.348.431v1.128a3.138,3.138,0,0,1-.33.048q-.138.012-.27.012a.849.849,0,0,1-.594-.192.821.821,0,0,1-.258-.492l-.036-.4a2.806,2.806,0,0,1-1.038.845A3.048,3.048,0,0,1-981.57,1301.656Zm.36-.971a2.374,2.374,0,0,0,.906-.175,1.554,1.554,0,0,0,.666-.486.607.607,0,0,0,.252-.456v-.828a3.988,3.988,0,0,0-.714-.2,3.943,3.943,0,0,0-.738-.072,2.011,2.011,0,0,0-1.158.307.936.936,0,0,0-.45.809,1.021,1.021,0,0,0,.348.786A1.266,1.266,0,0,0-981.21,1300.685Z" fill="#fff"/>
      <path id="Path_1596" data-name="Path 1596" d="M-972.1,1301.536l-2-2.891-1.044.983v1.908h-1.32v-8.76h1.32v5.556l2.88-3.06h1.44l-2.436,2.628,2.568,3.636Z" fill="#fff"/>
      <path id="Path_1597" data-name="Path 1597" d="M-967.4,1301.656a3.273,3.273,0,0,1-1.338-.263,3.156,3.156,0,0,1-1.014-.708,3.108,3.108,0,0,1-.648-1.039,3.436,3.436,0,0,1-.228-1.242,3.441,3.441,0,0,1,.228-1.242,3.066,3.066,0,0,1,.654-1.038,3.194,3.194,0,0,1,1.02-.708,3.23,3.23,0,0,1,1.326-.264,3.229,3.229,0,0,1,1.326.264,3.194,3.194,0,0,1,1.02.708,3.1,3.1,0,0,1,.654,1.038,3.462,3.462,0,0,1,.228,1.242,3.457,3.457,0,0,1-.228,1.242,3.091,3.091,0,0,1-.654,1.039,3.226,3.226,0,0,1-1.02.708A3.245,3.245,0,0,1-967.4,1301.656Zm-1.872-3.24a2.37,2.37,0,0,0,.144.84,2.076,2.076,0,0,0,.4.666,1.85,1.85,0,0,0,.594.444,1.687,1.687,0,0,0,.738.162,1.688,1.688,0,0,0,.738-.162,1.812,1.812,0,0,0,.594-.45,2.153,2.153,0,0,0,.4-.672,2.374,2.374,0,0,0,.144-.84,2.389,2.389,0,0,0-.144-.834,2.145,2.145,0,0,0-.4-.677,1.8,1.8,0,0,0-.594-.451,1.7,1.7,0,0,0-.738-.162,1.626,1.626,0,0,0-.726.168,1.9,1.9,0,0,0-.594.456,2.218,2.218,0,0,0-.4.678A2.3,2.3,0,0,0-969.27,1298.416Z" fill="#fff"/>
      <path id="Path_1598" data-name="Path 1598" d="M-961.458,1301.536l-2.4-6.276h1.356l1.8,5.16,1.812-5.16h1.248l-2.4,6.276Z" fill="#fff"/>
      <path id="Path_1599" data-name="Path 1599" d="M-954.078,1301.656a3.338,3.338,0,0,1-1.332-.258,3.09,3.09,0,0,1-1.027-.7,3.169,3.169,0,0,1-.659-1.032,3.344,3.344,0,0,1-.235-1.248,3.4,3.4,0,0,1,.235-1.254,3.243,3.243,0,0,1,.659-1.044,3.06,3.06,0,0,1,1.027-.708,3.366,3.366,0,0,1,1.344-.258,3.233,3.233,0,0,1,1.326.264,3.156,3.156,0,0,1,1.013.7,2.991,2.991,0,0,1,.643,1.02,3.415,3.415,0,0,1,.222,1.218c0,.1-.005.186-.013.27s-.016.154-.023.21h-5.028a2.171,2.171,0,0,0,.2.756,2.013,2.013,0,0,0,.42.582,1.844,1.844,0,0,0,.589.378,1.819,1.819,0,0,0,.69.133,2.108,2.108,0,0,0,.522-.067,1.843,1.843,0,0,0,.474-.192,1.7,1.7,0,0,0,.384-.306,1.483,1.483,0,0,0,.264-.4l1.128.323a2.613,2.613,0,0,1-1.075,1.158A3.327,3.327,0,0,1-954.078,1301.656Zm1.908-3.732a2.111,2.111,0,0,0-.2-.732,1.9,1.9,0,0,0-.414-.57,1.865,1.865,0,0,0-.588-.366,1.922,1.922,0,0,0-.708-.132,1.865,1.865,0,0,0-.7.132,1.883,1.883,0,0,0-.582.366,1.807,1.807,0,0,0-.409.57,2.2,2.2,0,0,0-.191.732Zm-3.552-3.768v-1.32h1.1v1.32Zm2.124,0v-1.32h1.1v1.32Z" fill="#fff"/>
    </g>
    <rect id="Rectangle_121" data-name="Rectangle 121" width="80.604" height="31.486" rx="8" transform="translate(-1053.708 1175.724)" fill="#1a83ff"/>
    <g id="Group_83" data-name="Group 83">
      <path id="Path_1600" data-name="Path 1600" d="M-1024.758,1195.234v-8.519h3.576a2.379,2.379,0,0,1,1.062.239,2.718,2.718,0,0,1,.834.63,2.988,2.988,0,0,1,.546.889,2.721,2.721,0,0,1,.2,1.013,2.938,2.938,0,0,1-.186,1.038,2.905,2.905,0,0,1-.522.888,2.514,2.514,0,0,1-.81.624,2.34,2.34,0,0,1-1.05.235h-2.3v2.963Zm1.344-4.152h2.22a1.128,1.128,0,0,0,.522-.12,1.175,1.175,0,0,0,.4-.336,1.676,1.676,0,0,0,.264-.5,1.993,1.993,0,0,0,.1-.636,1.834,1.834,0,0,0-.108-.648,1.506,1.506,0,0,0-.3-.5,1.357,1.357,0,0,0-.438-.324,1.186,1.186,0,0,0-.51-.115h-2.148Z" fill="#fff"/>
      <path id="Path_1601" data-name="Path 1601" d="M-1014.713,1195.354a3.331,3.331,0,0,1-1.332-.257,3.11,3.11,0,0,1-1.027-.7,3.158,3.158,0,0,1-.659-1.033,3.318,3.318,0,0,1-.235-1.248,3.379,3.379,0,0,1,.235-1.254,3.226,3.226,0,0,1,.659-1.044,3.064,3.064,0,0,1,1.027-.708,3.378,3.378,0,0,1,1.343-.257,3.234,3.234,0,0,1,1.327.263,3.167,3.167,0,0,1,1.013.7,3,3,0,0,1,.642,1.02,3.4,3.4,0,0,1,.222,1.219c0,.095,0,.185-.012.269s-.016.155-.024.21h-5.028a2.149,2.149,0,0,0,.2.756,1.98,1.98,0,0,0,.42.582,1.832,1.832,0,0,0,.589.378,1.814,1.814,0,0,0,.689.133,2.1,2.1,0,0,0,.522-.067,1.85,1.85,0,0,0,.475-.192,1.675,1.675,0,0,0,.383-.306,1.463,1.463,0,0,0,.265-.4l1.127.323a2.605,2.605,0,0,1-1.074,1.158A3.327,3.327,0,0,1-1014.713,1195.354Zm1.907-3.732a2.12,2.12,0,0,0-.2-.731,1.926,1.926,0,0,0-.414-.571,1.876,1.876,0,0,0-.588-.366,1.922,1.922,0,0,0-.708-.132,1.874,1.874,0,0,0-.7.132,1.882,1.882,0,0,0-.582.366,1.81,1.81,0,0,0-.408.571,2.186,2.186,0,0,0-.192.731Z" fill="#fff"/>
      <path id="Path_1602" data-name="Path 1602" d="M-1011.078,1197.526a2.518,2.518,0,0,1-.816-.131,2.047,2.047,0,0,1-.7-.409l.588-.887a.973.973,0,0,0,.36.21,1.316,1.316,0,0,0,.408.065.87.87,0,0,0,.618-.258.864.864,0,0,0,.27-.654v-6.5h1.32v6.408a2.286,2.286,0,0,1-.162.876,2.109,2.109,0,0,1-.444.685,1.973,1.973,0,0,1-.654.443A2.009,2.009,0,0,1-1011.078,1197.526Zm.732-9.6v-1.452h1.32v1.452Z" fill="#fff"/>
      <path id="Path_1603" data-name="Path 1603" d="M-1004.6,1195.354a3.338,3.338,0,0,1-1.332-.257,3.116,3.116,0,0,1-1.026-.7,3.16,3.16,0,0,1-.66-1.033,3.338,3.338,0,0,1-.234-1.248,3.4,3.4,0,0,1,.234-1.254,3.228,3.228,0,0,1,.66-1.044,3.07,3.07,0,0,1,1.026-.708,3.386,3.386,0,0,1,1.344-.257,3.229,3.229,0,0,1,1.326.263,3.172,3.172,0,0,1,1.014.7,3,3,0,0,1,.642,1.02,3.4,3.4,0,0,1,.222,1.219c0,.095,0,.185-.012.269s-.016.155-.024.21h-5.028a2.148,2.148,0,0,0,.2.756,1.962,1.962,0,0,0,.42.582,1.828,1.828,0,0,0,.588.378,1.823,1.823,0,0,0,.69.133,2.1,2.1,0,0,0,.522-.067,1.843,1.843,0,0,0,.474-.192,1.679,1.679,0,0,0,.384-.306,1.436,1.436,0,0,0,.264-.4l1.128.323a2.611,2.611,0,0,1-1.074,1.158A3.329,3.329,0,0,1-1004.6,1195.354Zm1.908-3.732a2.1,2.1,0,0,0-.2-.731,1.89,1.89,0,0,0-.414-.571,1.864,1.864,0,0,0-.588-.366,1.918,1.918,0,0,0-.708-.132,1.872,1.872,0,0,0-.7.132,1.882,1.882,0,0,0-.582.366,1.811,1.811,0,0,0-.408.571,2.185,2.185,0,0,0-.192.731Zm-3.552-3.768v-1.32h1.1v1.32Zm2.124,0v-1.32h1.1v1.32Z" fill="#fff"/>
    </g>
    <rect id="Rectangle_122" data-name="Rectangle 122" width="80.604" height="31.486" rx="8" transform="translate(-850.359 1288.479)" fill="#1a83ff"/>
    <g id="Group_84" data-name="Group 84">
      <path id="Path_1604" data-name="Path 1604" d="M-827.462,1307.989v-8.519h5.676v1.187h-4.332v2.544h3.624v1.116h-3.624v3.672Z" fill="#fff"/>
      <path id="Path_1605" data-name="Path 1605" d="M-818.246,1308.109a3.357,3.357,0,0,1-1.332-.257,3.094,3.094,0,0,1-1.026-.7,3.144,3.144,0,0,1-.66-1.032,3.336,3.336,0,0,1-.235-1.248,3.4,3.4,0,0,1,.235-1.254,3.228,3.228,0,0,1,.66-1.044,3.046,3.046,0,0,1,1.026-.708,3.37,3.37,0,0,1,1.344-.258,3.233,3.233,0,0,1,1.326.264,3.156,3.156,0,0,1,1.013.7,2.991,2.991,0,0,1,.643,1.02,3.394,3.394,0,0,1,.222,1.219c0,.095,0,.185-.012.269s-.017.154-.024.21h-5.028a2.148,2.148,0,0,0,.2.756,1.977,1.977,0,0,0,.419.582,1.843,1.843,0,0,0,.589.378,1.822,1.822,0,0,0,.69.133,2.107,2.107,0,0,0,.522-.067,1.843,1.843,0,0,0,.474-.192,1.7,1.7,0,0,0,.384-.306,1.482,1.482,0,0,0,.264-.4l1.128.323a2.611,2.611,0,0,1-1.074,1.158A3.331,3.331,0,0,1-818.246,1308.109Zm1.908-3.732a2.1,2.1,0,0,0-.2-.731,1.894,1.894,0,0,0-.414-.571,1.864,1.864,0,0,0-.588-.366,1.922,1.922,0,0,0-.708-.132,1.865,1.865,0,0,0-.7.132,1.882,1.882,0,0,0-.582.366,1.8,1.8,0,0,0-.408.571,2.185,2.185,0,0,0-.192.731Z" fill="#fff"/>
      <path id="Path_1606" data-name="Path 1606" d="M-810.423,1302.854a2.94,2.94,0,0,0-1.362.353,1.868,1.868,0,0,0-.846.942v3.84h-1.32v-6.276h1.224v1.4a2.879,2.879,0,0,1,.846-1.038,2.06,2.06,0,0,1,1.122-.426h.2a.7.7,0,0,1,.138.012Z" fill="#fff"/>
      <path id="Path_1607" data-name="Path 1607" d="M-809.463,1300.682v-1.453h1.32v1.453Zm0,7.307v-6.276h1.32v6.276Z" fill="#fff"/>
      <path id="Path_1608" data-name="Path 1608" d="M-807.015,1307.161l3.768-4.512h-3.636v-.936h5.029v.828l-3.745,4.513h3.781v.935h-5.2Z" fill="#fff"/>
      <path id="Path_1609" data-name="Path 1609" d="M-798.975,1308.109a2.314,2.314,0,0,1-.846-.15,2.028,2.028,0,0,1-.672-.414,1.931,1.931,0,0,1-.444-.624,1.89,1.89,0,0,1-.162-.779,1.685,1.685,0,0,1,.192-.8,1.891,1.891,0,0,1,.547-.624,2.611,2.611,0,0,1,.839-.407,3.733,3.733,0,0,1,1.074-.145,5,5,0,0,1,.876.078,4.387,4.387,0,0,1,.78.21v-.431a1.45,1.45,0,0,0-.4-1.086,1.554,1.554,0,0,0-1.14-.391,2.74,2.74,0,0,0-.989.187,4.911,4.911,0,0,0-1,.534l-.409-.841a4.452,4.452,0,0,1,2.52-.816,2.872,2.872,0,0,1,2.017.661,2.439,2.439,0,0,1,.719,1.9v2.269c0,.279.117.424.348.431v1.128a3.1,3.1,0,0,1-.33.048c-.091.008-.182.012-.27.012a.845.845,0,0,1-.593-.192.823.823,0,0,1-.259-.492l-.035-.4a2.82,2.82,0,0,1-1.038.845A3.051,3.051,0,0,1-798.975,1308.109Zm.36-.971a2.383,2.383,0,0,0,.907-.175,1.564,1.564,0,0,0,.666-.485.612.612,0,0,0,.251-.457v-.828a3.976,3.976,0,0,0-.713-.2,3.944,3.944,0,0,0-.739-.072,2.013,2.013,0,0,0-1.157.307.935.935,0,0,0-.451.809,1.018,1.018,0,0,0,.349.786A1.262,1.262,0,0,0-798.615,1307.138Z" fill="#fff"/>
      <path id="Path_1610" data-name="Path 1610" d="M-794.535,1310.281a2.493,2.493,0,0,1-.816-.132,2.03,2.03,0,0,1-.7-.408l.588-.887a.958.958,0,0,0,.36.209,1.317,1.317,0,0,0,.408.066.87.87,0,0,0,.618-.258.866.866,0,0,0,.27-.654v-6.5h1.32v6.408a2.292,2.292,0,0,1-.162.876,2.109,2.109,0,0,1-.444.685,1.987,1.987,0,0,1-.654.443A2.027,2.027,0,0,1-794.535,1310.281Zm.732-9.6v-1.453h1.32v1.453Z" fill="#fff"/>
    </g>
    <rect id="Rectangle_123" data-name="Rectangle 123" width="80.604" height="31.486" rx="8" transform="translate(-932.802 1097.95)" fill="#1a83ff"/>
    <g id="Group_85" data-name="Group 85">
      <path id="Path_1611" data-name="Path 1611" d="M-910.44,1117.461v-6.132l-2.532,4.644h-.744l-2.544-4.644v6.132H-917.6v-8.52h1.44l2.82,5.208,2.82-5.208h1.44v8.52Z" fill="#fff"/>
      <path id="Path_1612" data-name="Path 1612" d="M-907.332,1110.153V1108.7h1.32v1.452Zm0,7.308v-6.276h1.32v6.276Z" fill="#fff"/>
      <path id="Path_1613" data-name="Path 1613" d="M-900.936,1117.137a6.6,6.6,0,0,1-.7.27,2.943,2.943,0,0,1-.948.15,2,2,0,0,1-.588-.084,1.431,1.431,0,0,1-.486-.252,1.144,1.144,0,0,1-.33-.438,1.6,1.6,0,0,1-.12-.654V1112.2h-.828v-1.02h.828v-2.064h1.32v2.064h1.368v1.02h-1.368v3.5a.652.652,0,0,0,.21.486.712.712,0,0,0,.462.15,1.471,1.471,0,0,0,.528-.1q.252-.1.372-.156Z" fill="#fff"/>
      <path id="Path_1614" data-name="Path 1614" d="M-896.5,1112.325a2.952,2.952,0,0,0-1.361.354,1.868,1.868,0,0,0-.847.942v3.84h-1.319v-6.276h1.224v1.4a2.878,2.878,0,0,1,.845-1.038,2.058,2.058,0,0,1,1.122-.426h.2a.711.711,0,0,1,.137.012Z" fill="#fff"/>
      <path id="Path_1615" data-name="Path 1615" d="M-893.028,1117.581a3.261,3.261,0,0,1-1.338-.264,3.124,3.124,0,0,1-1.014-.708,3.121,3.121,0,0,1-.648-1.038,3.437,3.437,0,0,1-.228-1.242,3.433,3.433,0,0,1,.228-1.242,3.073,3.073,0,0,1,.654-1.038,3.2,3.2,0,0,1,1.02-.708,3.232,3.232,0,0,1,1.326-.264,3.231,3.231,0,0,1,1.326.264,3.2,3.2,0,0,1,1.02.708,3.072,3.072,0,0,1,.654,1.038,3.431,3.431,0,0,1,.228,1.242,3.436,3.436,0,0,1-.228,1.242,3.071,3.071,0,0,1-.654,1.038,3.194,3.194,0,0,1-1.02.708A3.229,3.229,0,0,1-893.028,1117.581Zm-1.872-3.24a2.37,2.37,0,0,0,.144.84,2.077,2.077,0,0,0,.4.666,1.852,1.852,0,0,0,.594.444,1.7,1.7,0,0,0,.738.162,1.7,1.7,0,0,0,.738-.162,1.814,1.814,0,0,0,.594-.45,2.161,2.161,0,0,0,.4-.672,2.374,2.374,0,0,0,.144-.84,2.388,2.388,0,0,0-.144-.834,2.148,2.148,0,0,0-.4-.678,1.814,1.814,0,0,0-.594-.45,1.7,1.7,0,0,0-.738-.162,1.625,1.625,0,0,0-.726.168,1.887,1.887,0,0,0-.594.456,2.239,2.239,0,0,0-.4.678A2.3,2.3,0,0,0-894.9,1114.341Z" fill="#fff"/>
      <path id="Path_1616" data-name="Path 1616" d="M-887.088,1117.461l-2.4-6.276h1.357l1.8,5.16,1.812-5.16h1.249l-2.4,6.276Z" fill="#fff"/>
      <path id="Path_1617" data-name="Path 1617" d="M-882.336,1110.153V1108.7h1.319v1.452Zm0,7.308v-6.276h1.319v6.276Z" fill="#fff"/>
      <path id="Path_1618" data-name="Path 1618" d="M-879.841,1114.317a3.421,3.421,0,0,1,.228-1.248,3.073,3.073,0,0,1,.655-1.032,3.085,3.085,0,0,1,1.025-.7,3.371,3.371,0,0,1,1.345-.258,3.162,3.162,0,0,1,1.673.426,2.7,2.7,0,0,1,1.05,1.134l-1.283.408a1.66,1.66,0,0,0-.613-.618,1.672,1.672,0,0,0-.852-.222,1.761,1.761,0,0,0-.738.156,1.789,1.789,0,0,0-.594.438,2.09,2.09,0,0,0-.4.666,2.41,2.41,0,0,0-.143.852,2.316,2.316,0,0,0,.15.846,2.152,2.152,0,0,0,.407.678,1.88,1.88,0,0,0,.6.45,1.675,1.675,0,0,0,.726.162,1.8,1.8,0,0,0,.48-.066,1.691,1.691,0,0,0,.438-.186,1.745,1.745,0,0,0,.349-.276,1.059,1.059,0,0,0,.221-.336l1.3.384a2.574,2.574,0,0,1-1.045,1.158,3.232,3.232,0,0,1-1.727.45,3.265,3.265,0,0,1-1.332-.264,3.126,3.126,0,0,1-1.027-.714,3.226,3.226,0,0,1-.659-1.039A3.316,3.316,0,0,1-879.841,1114.317Z" fill="#fff"/>
      <path id="Path_1619" data-name="Path 1619" d="M-869.94,1117.581a3.338,3.338,0,0,1-1.332-.258,3.1,3.1,0,0,1-1.026-.7,3.165,3.165,0,0,1-.66-1.032,3.344,3.344,0,0,1-.234-1.248,3.39,3.39,0,0,1,.234-1.254,3.219,3.219,0,0,1,.66-1.044,3.057,3.057,0,0,1,1.026-.708,3.369,3.369,0,0,1,1.344-.258,3.232,3.232,0,0,1,1.326.264,3.171,3.171,0,0,1,1.014.7,3,3,0,0,1,.642,1.02,3.389,3.389,0,0,1,.222,1.218c0,.1-.005.186-.012.27s-.016.154-.024.21h-5.028a2.15,2.15,0,0,0,.2.756,1.977,1.977,0,0,0,.42.582,1.83,1.83,0,0,0,.588.378,1.843,1.843,0,0,0,.69.132,2.1,2.1,0,0,0,.522-.066,1.835,1.835,0,0,0,.474-.192,1.7,1.7,0,0,0,.384-.306,1.451,1.451,0,0,0,.264-.4l1.128.324a2.615,2.615,0,0,1-1.074,1.158A3.328,3.328,0,0,1-869.94,1117.581Zm1.908-3.732a2.112,2.112,0,0,0-.2-.732,1.886,1.886,0,0,0-.414-.57,1.865,1.865,0,0,0-.588-.366,1.919,1.919,0,0,0-.708-.132,1.873,1.873,0,0,0-.7.132,1.882,1.882,0,0,0-.582.366,1.8,1.8,0,0,0-.408.57,2.2,2.2,0,0,0-.192.732Zm-3.552-3.768v-1.32h1.1v1.32Zm2.124,0v-1.32h1.1v1.32Z" fill="#fff"/>
    </g>
  </g>
</svg>
