<svg xmlns="http://www.w3.org/2000/svg" width="40.093" height="29.468" viewBox="0 0 40.093 29.468">
  <defs>
    <style>
      .cls-1 {
        fill: #6ea0f5;
      }
    </style>
  </defs>
  <g id="thonjeza-2" transform="translate(-857.018 -340.422) rotate(180)">
    <path id="Path_1540" data-name="Path 1540" class="cls-1" d="M-808.182-351.321c-1.864-5.141-8.028-5.551-8.028-5.551s.906-4.519,7.954-8.317l-3.253-4.7s-14.281,4.7-14.281,18.621c0,5.243,2.529,10.846,8.856,10.846,5.838,0,8.8-3.087,9.226-7.673.018-.188.034-.376.04-.57A9.051,9.051,0,0,0-808.182-351.321Z" transform="translate(-49.351 0)"/>
    <path id="Path_1541" data-name="Path 1541" class="cls-1" d="M-879.5-351.321c-1.864-5.141-8.028-5.551-8.028-5.551s.906-4.519,7.954-8.317l-3.253-4.7s-14.281,4.7-14.281,18.621c0,5.243,2.529,10.846,8.856,10.846,5.837,0,8.8-3.087,9.226-7.673.018-.188.034-.376.04-.57A9.051,9.051,0,0,0-879.5-351.321Z" transform="translate(0 0)"/>
  </g>
</svg>
