<svg xmlns="http://www.w3.org/2000/svg" width="44.026" height="44.026" viewBox="0 0 44.026 44.026">
  <g id="ulese" transform="translate(-163.614 -3592.863)">
    <rect id="Rectangle_39" data-name="Rectangle 39" width="44.026" height="44.026" rx="5" transform="translate(163.614 3592.863)" fill="#282a30"/>
    <g id="Group_29" data-name="Group 29" transform="translate(176.556 3599.579)">
      <g id="Group_25" data-name="Group 25" transform="translate(0 6.147)">
        <path id="Path_1527" data-name="Path 1527" d="M163.359,3463.429a1.528,1.528,0,0,1-.417-.057l0,.011a1.853,1.853,0,0,1-1.225-.334q-1.883-1.148-3.761-2.3l-1.61-.989a1.029,1.029,0,0,1-.445-.446,4.152,4.152,0,0,1-2.258-3.164c-.076-.516-.159-1.031-.241-1.545l-.092-.573a.751.751,0,0,1-.128-.564.725.725,0,0,1,.04-.134,8.6,8.6,0,0,1-.658-3.187l-.044-.549q-.286-3.259-.544-6.519l-.013-.154a2.35,2.35,0,0,1,.369-1.8.757.757,0,0,1,.336-.579,3.207,3.207,0,0,1,2.192-.961c.205-.029.409-.058.608-.1a26.681,26.681,0,0,0,3.128-.4.543.543,0,0,1,.147-.006,2.929,2.929,0,0,0,.628-.037,2.982,2.982,0,0,1,1.283.039,3.256,3.256,0,0,1,2.363,2.063c.579,1.669,1.335,3.308,2.064,4.891l.487,1.06a8.319,8.319,0,0,1,.649,3,3.531,3.531,0,0,1-.817,2.415,2.59,2.59,0,0,0,1.449.26,6.191,6.191,0,0,1,3.633.982c.448.287.912.547,1.377.809l.463.261a2.638,2.638,0,0,1,1.233,2.764,2.507,2.507,0,0,1-1.506,2.334q-2.926,1.25-5.859,2.484l-1.952.824A2.25,2.25,0,0,1,163.359,3463.429Zm-.48-.574.049.4.042-.139Zm.092-.536a1.106,1.106,0,0,1,.235.022.9.9,0,0,0,.621-.1l1.952-.825q2.929-1.235,5.856-2.482a1.456,1.456,0,0,0,.861-1.43c.068-.956-.121-1.431-.7-1.761h0l-.458-.257c-.482-.271-.964-.544-1.428-.841a4.926,4.926,0,0,0-3.015-.814,3.5,3.5,0,0,1-2.307-.587.6.6,0,0,1-.49-.275.511.511,0,0,1,.021-.595,3.009,3.009,0,0,0,1.035-2.224,7.015,7.015,0,0,0-.555-2.621l-.484-1.055c-.741-1.608-1.508-3.269-2.1-4.988a2.232,2.232,0,0,0-1.66-1.39,2.124,2.124,0,0,0-.848,0,3.976,3.976,0,0,1-.775.045,25.81,25.81,0,0,1-3.107.392c-.146.039-.375.073-.607.107-.747.107-1.223.2-1.579.65a.665.665,0,0,1-.053.06.7.7,0,0,1-.154.372c-.265.254-.251.571-.2,1.111l.015.163q.255,3.256.542,6.509l.045.562a7.011,7.011,0,0,0,.7,3.072.531.531,0,0,1,.049.418.518.518,0,0,1-.045.11.6.6,0,0,1,.016.07l.112.7c.084.519.167,1.039.244,1.558a3.151,3.151,0,0,0,1.915,2.488.53.53,0,0,1,.29.37l1.611.989q1.878,1.153,3.758,2.3a.887.887,0,0,0,.54.187C162.836,3462.322,162.941,3462.317,162.97,3462.319Zm1.53-9.146,0,0Zm-1.339,9.149a.534.534,0,0,1-.534-.531,3.829,3.829,0,0,0-.278-1.433l-.209-.236a.555.555,0,0,1-.105-.185.549.549,0,0,1-.06-.074,2.789,2.789,0,0,0-.233-.3.423.423,0,0,0-.437-.4c-.108-.088-.222-.168-.338-.246l-1.022-.743a.529.529,0,0,1-.222-.432.541.541,0,0,1,.1-.314.531.531,0,0,1,.744-.117l1.008.731c.126.083.264.182.395.287a.537.537,0,0,1,.2.349.529.529,0,0,1,.369.176,3.838,3.838,0,0,1,.328.426.528.528,0,0,1,.061.124l.015.017.267.3a.6.6,0,0,1,.091.146,4.942,4.942,0,0,1,.395,1.924h0a.53.53,0,0,1-.531.533Zm-4.227-4.6a.537.537,0,0,1-.21-.042,1.97,1.97,0,0,0-.29-.1c-.027,0-.142.011-.259.018l-.053,0-.052,0-.236.01a.525.525,0,0,1-.54-.524v-.01a.53.53,0,0,1,.524-.532l.189-.008a.262.262,0,0,1,.052,0l.053-.006a3.126,3.126,0,0,1,.5,0,2.818,2.818,0,0,1,.534.168.533.533,0,0,1-.209,1.024Zm-1.86-1.883a.533.533,0,0,1,0-1.066,1.588,1.588,0,0,0,.531-.1.478.478,0,0,1,.073-.019c.51-.1,1.026-.229,1.566-.377.22-.062.442-.125.67-.194h0l.036-.012c.566-.171,1.126-.361,1.682-.561a.535.535,0,0,1,.683.321.546.546,0,0,1,.031.182.533.533,0,0,1-.351.5q-.861.311-1.734.579c-.823.251-1.588.448-2.341.6l-.17.052a2.483,2.483,0,0,1-.676.09Zm-1.411-.028a.5.5,0,0,1-.49-.361c-.037-.126-.06-.205-.091-.281a.533.533,0,0,1,.99-.4c.044.107.076.219.11.332a.559.559,0,0,1,.021.155.547.547,0,0,1-.377.529A.627.627,0,0,1,155.664,3455.813Zm-.047-1.476a.549.549,0,0,1-.207-.041.535.535,0,0,1-.325-.492.514.514,0,0,1,.042-.207l.49.207-.461-.28a.533.533,0,0,1,1,.361l-.05.126A.532.532,0,0,1,155.617,3454.337Zm-.655-6.346a.536.536,0,0,1-.532-.532.537.537,0,0,1,.159-.381c.042-.041.089-.081.147-.129a.532.532,0,0,1,.689.812l-.087.078A.535.535,0,0,1,154.962,3447.99Zm-.61-1.985a.535.535,0,0,1-.511-.378.614.614,0,0,1-.137-.364l-.006-.387v-.008a.533.533,0,0,1,.524-.532h.008a.533.533,0,0,1,.534.524l0,.229a1.194,1.194,0,0,1,.1.228.517.517,0,0,1,.023.156.534.534,0,0,1-.379.509A.523.523,0,0,1,154.352,3446.006Z" transform="translate(-151.935 -3438.982)" fill="#fff"/>
      </g>
      <g id="Group_26" data-name="Group 26" transform="translate(0.691)">
        <path id="Path_1528" data-name="Path 1528" d="M154.58,3441.308c-.121,0-.243,0-.366-.011a.53.53,0,0,1-.341-.149l-.023-.023a1.233,1.233,0,0,1-.518-.275h0a4.408,4.408,0,0,1-.676-4.272.56.56,0,0,1,.18-.175,1.578,1.578,0,0,1,1.339-.886c.964-.145,1.97-.257,2.991-.328a2.1,2.1,0,0,1,2.324,1.935q.083.613.139,1.231a2.212,2.212,0,0,1-1.686,2.633.63.63,0,0,1-.171.032,13.716,13.716,0,0,0-1.448.137A13.305,13.305,0,0,1,154.58,3441.308Zm-.112-1.067a10.986,10.986,0,0,0,1.718-.139c.477-.062.969-.127,1.47-.145.83-.316.993-.6.911-1.508-.036-.395-.081-.789-.134-1.181a1.033,1.033,0,0,0-1.192-1.014c-.992.068-1.969.176-2.9.318-.057.01-.107.018-.152.028a.454.454,0,0,1,.058.064,1.872,1.872,0,0,1,.11.173l.019.04.023.037,0,0a.586.586,0,0,1,.029.126l.037-.013-.015.014.016-.008.04.066.015.021h0l0,0,.05.073a4.418,4.418,0,0,1,.3.656h0l0,0,0,.005,0,0h0l0,.012a.583.583,0,0,1,.023.087.511.511,0,0,1,.034.088,3.523,3.523,0,0,1,.087.359.508.508,0,0,1,.01.1.534.534,0,0,1-1.058.1c-.016-.084-.036-.168-.06-.251-.006-.022-.011-.042-.016-.065a.6.6,0,0,1-.026-.062,3.433,3.433,0,0,0-.235-.512,1.026,1.026,0,0,1-.116-.183h0l-.05-.092-.015-.031a4.042,4.042,0,0,0,.545,2.6h0a.693.693,0,0,0,.1.071.372.372,0,0,1,.358.137Z" transform="translate(-152.362 -3435.182)" fill="#fff"/>
      </g>
      <g id="Group_27" data-name="Group 27" transform="translate(3.092 5.107)">
        <path id="Path_1529" data-name="Path 1529" d="M154.753,3440.819h-.018a.748.748,0,0,1-.762-.676.5.5,0,0,1-.087-.251l-.034-.383a.545.545,0,0,1,.011-.162.887.887,0,0,1,.306-.888.532.532,0,0,1,.8.149,2.668,2.668,0,0,1,.3,1.292c0,.11.01.222.021.333a.531.531,0,0,1-.531.586Zm-.632-.528h0Zm-.233-1.025v0Z" transform="translate(-153.846 -3438.34)" fill="#fff"/>
      </g>
      <g id="Group_28" data-name="Group 28" transform="translate(5.218 4.874)">
        <path id="Path_1530" data-name="Path 1530" d="M155.957,3440.668l-.034,0a.526.526,0,0,1-.395-.213,1.877,1.877,0,0,1-.324-1.126,1.747,1.747,0,0,0-.034-.346.726.726,0,0,1,.171-.568.612.612,0,0,1,.548-.212.706.706,0,0,1,.569.537.523.523,0,0,1,.089.249l-.3.027,0,.025.3.006.029.323a.559.559,0,0,1-.026.219.919.919,0,0,1-.215.916A.536.536,0,0,1,155.957,3440.668Zm.089-1.632.139,0,.008-.019-.15.012Zm.162-.306v0Zm.191-.068Z" transform="translate(-155.161 -3438.195)" fill="#fff"/>
      </g>
    </g>
  </g>
</svg>
