<svg xmlns="http://www.w3.org/2000/svg" xmlns:xlink="http://www.w3.org/1999/xlink" width="260" height="260" viewBox="0 0 260 260">
  <defs>
    <clipPath id="clip-path">
      <rect id="Rectangle_9" data-name="Rectangle 9" width="260" height="260" transform="translate(968 1080)" fill="#fff"/>
    </clipPath>
  </defs>
  <g id="volkswagen" transform="translate(-968 -1080)" clip-path="url(#clip-path)">
    <g id="Layer_2" data-name="Layer 2" transform="translate(1035.178 1147.181)" opacity="0.7">
      <g id="Layer_1" data-name="Layer 1" transform="translate(0 -0.003)">
        <path id="Path_81" data-name="Path 81" d="M0,62.819A62.821,62.821,0,1,1,62.578,125.64,62.821,62.821,0,0,1,0,62.819ZM62.821,7.837A54.968,54.968,0,1,0,117.8,62.815,54.968,54.968,0,0,0,62.821,7.837Z" transform="translate(0 0.003)" fill="#8b93a5"/>
        <path id="Path_82" data-name="Path 82" d="M67.43,45.706l1,2.7q6.3,17.319,12.578,34.68a.9.9,0,0,0,1.042.714h18.1a.928.928,0,0,0,1.028-.757L114.417,46.52l.328-.771c1.585,1.1,3.141,2.113,4.626,3.227a47.544,47.544,0,0,1,7.139,6.782,1.057,1.057,0,0,1,.2,1.242q-9.537,24.886-19.118,49.771c-.1.271-.2.543-.371.971L106.136,105l-5.825-15.106a.828.828,0,0,0-.914-.642H81.736a.871.871,0,0,0-.971.657C78.538,95.72,76.3,101.5,74.055,107.3l-.186.443-1.885-4.854L54.509,57.571a.957.957,0,0,1,.171-1.128,48.158,48.158,0,0,1,12.25-10.48C67.059,45.877,67.216,45.82,67.43,45.706Z" transform="translate(-28.11 -23.618)" fill="#8b93a5"/>
        <path id="Path_83" data-name="Path 83" d="M175.438,154l22.1-57.681a46.059,46.059,0,0,1,0,32.524,46.973,46.973,0,0,1-21.973,25.271Z" transform="translate(-90.659 -49.771)" fill="#8b93a5"/>
        <path id="Path_84" data-name="Path 84" d="M35.194,98.5l21.573,56.139A45.445,45.445,0,0,1,37.05,133.783a46.716,46.716,0,0,1-2.042-35.251Z" transform="translate(-16.791 -50.901)" fill="#8b93a5"/>
        <path id="Path_85" data-name="Path 85" d="M116.182,157.357c.129.286.214.471.286.657l11.65,30.211c.443,1.214.371,1.428-.857,1.685-2.556.428-5.126.871-7.71,1.071a50.988,50.988,0,0,1-6.768,0,40.233,40.233,0,0,1-8.224-1.428c-.385-.1-.543-.286-.485-.671a4.282,4.282,0,0,1,.143-.742q5.9-15.248,11.765-30.5Z" transform="translate(-53.776 -81.314)" fill="#8b93a5"/>
        <path id="Path_86" data-name="Path 86" d="M129.444,34.183l-11.793,32.7c-3.969-10.965-7.9-21.773-11.85-32.681a48.2,48.2,0,0,1,23.643-.014Z" transform="translate(-54.673 -16.906)" fill="#8b93a5"/>
      </g>
    </g>
  </g>
</svg>
