<svg xmlns="http://www.w3.org/2000/svg" width="15.985" height="15.985" viewBox="0 0 15.985 15.985">
  <defs>
    <style>
      .cls-1 {
        fill: #80baff;
      }

      .cls-2 {
        fill: #fff;
      }
    </style>
  </defs>
  <g id="diesel" transform="translate(-224.708 -3322.894)">
    <rect id="Rectangle_41" data-name="Rectangle 41" class="cls-1" width="15.985" height="15.985" rx="5" transform="translate(224.708 3322.894)"/>
    <g id="Group_34" data-name="Group 34" transform="translate(228.085 3325.736)">
      <path id="Path_1534" data-name="Path 1534" class="cls-2" d="M318.832,3439.282a.412.412,0,0,0-.094-.258c-.287-.3-.584-.6-.887-.887-.044-.042-.139-.031-.21-.045.013.076,0,.176.043.224.139.153.3.288.446.426-.419.582-.236,1.031.435,1.1,0,.828,0,1.641,0,2.456,0,.65,0,1.3,0,1.95a.374.374,0,0,1-.509.389.432.432,0,0,1-.25-.458q0-1.479,0-2.958a.647.647,0,0,0-.581-.68c-.051-.009-.1-.014-.159-.022v-3.4c.16,0,.307,0,.455,0a.178.178,0,0,0,.2-.2c0-.239,0-.478,0-.717,0-.319,0-.321-.329-.321h-7.441c-.052,0-.1,0-.157,0a.171.171,0,0,0-.19.2c0,.277,0,.553,0,.829a.191.191,0,0,0,.22.218c.145,0,.291,0,.434,0v8.156c-.045,0-.08.009-.116.009-.587,0-.537-.085-.538.564,0,.315.012.328.328.328H317.4c.045,0,.09,0,.134,0a.164.164,0,0,0,.191-.19c0-.172,0-.344,0-.515,0-.133-.063-.19-.193-.187-.147,0-.295,0-.446,0v-4.472c.331.013.456.13.456.433,0,1,0,2,0,3a.647.647,0,1,0,1.292-.008Q318.839,3441.758,318.832,3439.282Zm-8.956-2.453v-.681h7.575v.681Zm6.9.3v8.14h-.661v-8.14Zm-.96,1.97h-4.324v-1.971h4.324Zm0,.291v1.731H311.5v-1.731ZM311.5,3441.4h4.329v3.866H311.5Zm-.292-4.28v8.14h-.647v-8.14Zm6.25,8.434v.335h-7.575v-.335Zm1.093-6.016a.26.26,0,0,1-.358-.155.292.292,0,0,1,.126-.4A.437.437,0,0,1,318.546,3439.539Z" transform="translate(-309.605 -3435.87)"/>
      <path id="Path_1535" data-name="Path 1535" class="cls-2" d="M316.043,3446.664c-.07-.124-.187-.076-.247.034-.216.392-.444.778-.629,1.184a.688.688,0,0,0,.223.827.766.766,0,0,0,.873.145.8.8,0,0,0,.5-.725.469.469,0,0,0-.018-.146C316.513,3447.541,316.287,3447.1,316.043,3446.664Zm.218,1.9a.538.538,0,0,1-.629.014.5.5,0,0,1-.233-.558c.142-.356.324-.7.489-1.041h.09c.166.338.346.67.493,1.017A.5.5,0,0,1,316.262,3448.562Z" transform="translate(-311.875 -3440.294)"/>
      <path id="Path_1536" data-name="Path 1536" class="cls-2" d="M315.107,3443.511c.5.013,1,.008,1.5.007a.182.182,0,0,0,.2-.208c0-.275,0-.552,0-.827,0-.153-.068-.216-.216-.214-.246,0-.492,0-.738,0s-.492,0-.738,0c-.13,0-.2.051-.195.183,0,.3-.01.6.009.893A.248.248,0,0,0,315.107,3443.511Zm.908-.961h.52v.684h-.52Zm-.817,0h.521v.681H315.2Z" transform="translate(-311.799 -3438.51)"/>
    </g>
  </g>
</svg>
