<svg xmlns="http://www.w3.org/2000/svg" width="25.831" height="20.683" viewBox="0 0 25.831 20.683">
  <defs>
    <style>
      .cls-1 {
        fill: #1a83ff;
      }
    </style>
  </defs>
  <g id="game-e-veturave375px" transform="translate(0)">
    <path id="Path_93" data-name="Path 93" class="cls-1" d="M782.583,854.672h-.642c-3.923,0-7.847.01-11.77-.012-.531,0-.7.159-.646.67a5.6,5.6,0,0,1-.006,1.078.91.91,0,0,1-1.811.014c0-1.922.012-3.846.1-5.765a3.259,3.259,0,0,1,1.141-2.086,2.566,2.566,0,0,0,.556-.827c.349-.867.646-1.753.969-2.63a2.84,2.84,0,0,1,2.9-2.056q2.7-.01,5.4,0a2.756,2.756,0,0,1,2.849,2.023c.216.591.448,1.176.658,1.768a5.012,5.012,0,0,0,1.263,2.144,3.429,3.429,0,0,1,.915,2.629q.008,2.187,0,4.373a2.636,2.636,0,0,1-.047.537.833.833,0,0,1-.844.7.8.8,0,0,1-.893-.629,7.9,7.9,0,0,1-.087-1.231C782.575,855.162,782.583,854.95,782.583,854.672Zm-6.554-1.882h5.232c1.423,0,1.423,0,1.318-1.441a1.882,1.882,0,0,0-1.839-1.841q-4.666-.042-9.332,0a1.712,1.712,0,0,0-1.7,1.262,4.465,4.465,0,0,0-.169,1.216c-.025.8-.008.8.771.8Zm4.536-5.245a17.6,17.6,0,0,0-.789-2.065,1.169,1.169,0,0,0-.859-.512c-1.9-.046-3.809-.04-5.713,0a1.057,1.057,0,0,0-.8.433,21.892,21.892,0,0,0-.832,2.147Z" transform="translate(-758.629 -836.557)"/>
    <path id="Path_94" data-name="Path 94" class="cls-1" d="M763.379,834.182c-.761.183-1.473.339-2.176.531a1.323,1.323,0,0,0-.605.34,2.108,2.108,0,0,1-1.769.552c-2.052-.026-4.1.005-6.155-.014-1.983-.018-2.646,1.237-2.46,3.03.04.385.336.308.575.308q3.429,0,6.857,0h.589a1.7,1.7,0,0,1-1.815,1.85c-1.853,0-3.708.018-5.561-.011-.533-.008-.707.173-.66.683a6.838,6.838,0,0,1-.005,1.079.911.911,0,0,1-1.816.072c0-1.9,0-3.811.088-5.713a3.27,3.27,0,0,1,1.166-2.128,2.353,2.353,0,0,0,.526-.783c.357-.9.674-1.821,1-2.734a2.844,2.844,0,0,1,2.771-2.012q2.807-.027,5.615,0a2.734,2.734,0,0,1,2.691,1.871C762.634,832.142,763.011,833.186,763.379,834.182Zm-2.136-.429c-.264-.734-.483-1.378-.728-2.012a.915.915,0,0,0-.931-.6c-1.886,0-3.773-.019-5.659.02a1.124,1.124,0,0,0-.85.435,20.21,20.21,0,0,0-.843,2.159Z" transform="translate(-748.378 -829.221)"/>
    <path id="Path_95" data-name="Path 95" class="cls-1" d="M756.845,844.445a.937.937,0,0,1,.034,1.873.928.928,0,0,1-.932-.917A.943.943,0,0,1,756.845,844.445Z" transform="translate(-752.392 -837.295)"/>
    <path id="Path_96" data-name="Path 96" class="cls-1" d="M793.682,859.268a.935.935,0,0,1-.955.895.916.916,0,0,1-.871-.972.914.914,0,1,1,1.827.077Z" transform="translate(-771.435 -844.65)"/>
    <path id="Path_97" data-name="Path 97" class="cls-1" d="M777.115,859.24a.938.938,0,0,1-.931.92.928.928,0,0,1-.9-.943.917.917,0,0,1,1.834.023Z" transform="translate(-762.646 -844.651)"/>
  </g>
</svg>
