<svg xmlns="http://www.w3.org/2000/svg" width="25.701" height="24.832" viewBox="0 0 25.701 24.832">
  <defs>
    <style>
      .cls-1 {
        fill: #1a83ff;
      }
    </style>
  </defs>
  <path id="huazime-icon-375px" class="cls-1" d="M12.33,23.877a.954.954,0,0,1,.955-.955A10.506,10.506,0,1,0,5.4,19.363V16.005a.955.955,0,1,1,1.911,0v5.4a.955.955,0,0,1-.955.955H.955a.955.955,0,0,1,0-1.91H3.82a12.417,12.417,0,1,1,9.465,4.379A.955.955,0,0,1,12.33,23.877Zm3.661-6.131-3.382-3.381a.959.959,0,0,1-.279-.676V7.069a.955.955,0,1,1,1.91,0v6.225l3.1,3.1a.955.955,0,0,1-1.351,1.351Z"/>
</svg>
