<svg id="klient-kenaqur-375px" xmlns="http://www.w3.org/2000/svg" width="25.706" height="25.706" viewBox="0 0 25.706 25.706">
  <defs>
    <style>
      .cls-1 {
        fill: #1a83ff;
      }
    </style>
  </defs>
  <circle id="Ellipse_27" data-name="Ellipse 27" class="cls-1" cx="1.469" cy="1.469" r="1.469" transform="translate(15.532 8.684)"/>
  <circle id="Ellipse_28" data-name="Ellipse 28" class="cls-1" cx="1.469" cy="1.469" r="1.469" transform="translate(7.604 8.684)"/>
  <path id="Path_106" data-name="Path 106" class="cls-1" d="M14.84,2A12.853,12.853,0,1,0,27.706,14.853,12.847,12.847,0,0,0,14.84,2Zm.013,23.135A10.282,10.282,0,1,1,25.135,14.853,10.28,10.28,0,0,1,14.853,25.135Zm0-5.141a5.137,5.137,0,0,1-4.434-2.571H8.272a7.063,7.063,0,0,0,13.162,0H19.287a5.137,5.137,0,0,1-4.434,2.571Z" transform="translate(-2 -2)"/>
</svg>
