<svg xmlns="http://www.w3.org/2000/svg" width="15.985" height="15.985" viewBox="0 0 15.985 15.985">
  <defs>
    <style>
      .cls-1 {
        fill: #80baff;
      }

      .cls-2 {
        fill: #fff;
      }
    </style>
  </defs>
  <g id="manual" transform="translate(-177.747 -3322.894)">
    <rect id="Rectangle_40" data-name="Rectangle 40" class="cls-1" width="15.985" height="15.985" rx="5" transform="translate(177.747 3322.894)"/>
    <g id="Group_33" data-name="Group 33" transform="translate(182.379 3325.556)">
      <g id="Group_30" data-name="Group 30" transform="translate(0.814)">
        <path id="Path_1531" data-name="Path 1531" class="cls-2" d="M235.2,3440.407a.936.936,0,0,1-.4-.078.565.565,0,0,1-.259-.641.67.67,0,0,0,0-.193.889.889,0,0,0-.439-.521h0a1.868,1.868,0,0,1-.866-2.135,1.513,1.513,0,0,1,1.56-1.272c.217-.006.435,0,.653,0h.982a1.525,1.525,0,0,1,1.7,1.072,1.844,1.844,0,0,1-.653,2.224c-.487.312-.658.6-.611,1.036a.433.433,0,0,1-.1.356.506.506,0,0,1-.4.13c-.143,0-.285,0-.429,0h-.255a1.368,1.368,0,0,0-.223.012C235.375,3440.4,235.289,3440.407,235.2,3440.407Zm-.831-1.854a1.41,1.41,0,0,1,.65.8.968.968,0,0,1,.015.383.67.67,0,0,0-.006.163,1.612,1.612,0,0,0,.388-.006,2.538,2.538,0,0,1,.266-.013h.25c.142,0,.283,0,.425,0a1.535,1.535,0,0,1,.845-1.443,1.346,1.346,0,0,0,.449-1.645c-.154-.46-.4-.728-1.223-.73h-.984c-.211,0-.423,0-.635,0a1.015,1.015,0,0,0-1.089.889,1.383,1.383,0,0,0,.649,1.6Zm2.367-1.531h-.008c-.241,0-.483,0-.725,0h-1.292c-.395,0-.463-.247-.475-.353a.388.388,0,0,1,.093-.314.5.5,0,0,1,.384-.139h2.017a.422.422,0,0,1,.464.4.384.384,0,0,1-.113.274A.487.487,0,0,1,236.738,3437.021Z" transform="translate(-233.17 -3435.563)"/>
      </g>
      <g id="Group_31" data-name="Group 31" transform="translate(0 7.413)">
        <path id="Path_1532" data-name="Path 1532" class="cls-2" d="M232.435,3451.433a.661.661,0,0,1-.531-.179.624.624,0,0,1-.106-.5,1.966,1.966,0,0,0,0-.479.892.892,0,0,1,.187-.788.706.706,0,0,1,.625-.127.53.53,0,0,1,.137-.468.412.412,0,0,1,.375-.072.373.373,0,0,0,.268-.01c.041-.029.093-.111.115-.336l.02-.206.207-.019a16.326,16.326,0,0,1,2.807,0l.194.016.032.192c.013.077.052.315.136.369a.334.334,0,0,0,.233,0,.428.428,0,0,1,.411.083.4.4,0,0,1,.114.378.276.276,0,0,0,0,.117.9.9,0,0,1,.213-.032.56.56,0,0,1,.444.111.608.608,0,0,1,.174.457h0l-.25.01.251.016c.027.676.041,1.015-.178,1.243s-.556.225-1.218.226h-1.138c-1.165,0-2.33,0-3.494.006Zm-.131-.5c.023,0,.071,0,.152,0,1.166-.009,2.333-.007,3.5-.006h1.136a2.182,2.182,0,0,0,.859-.072,2.276,2.276,0,0,0,.038-.876v-.026a.562.562,0,0,0-.011-.1c-.01,0-.031,0-.06.006a.724.724,0,0,1-.639-.142.525.525,0,0,1-.125-.4.72.72,0,0,1-.522-.084.8.8,0,0,1-.319-.512,15.832,15.832,0,0,0-2.34,0,.783.783,0,0,1-.287.483.75.75,0,0,1-.576.11v.005a.539.539,0,0,1-.148.449.427.427,0,0,1-.388.081c-.2-.043-.253,0-.253,0s-.055.066-.024.365a2.469,2.469,0,0,1,0,.6.417.417,0,0,0,0,.109S232.294,3450.93,232.3,3450.93Z" transform="translate(-231.784 -3448.186)"/>
      </g>
      <g id="Group_32" data-name="Group 32" transform="translate(2.405 4.618)">
        <path id="Path_1533" data-name="Path 1533" class="cls-2" d="M237.036,3446.413c-.045,0-.089,0-.132,0l-.078,0c-.877-.043-.941-.187-.941-1.063l0-.393c0-.309.006-.617-.008-.926a.572.572,0,0,1,.125-.431.613.613,0,0,1,.458-.159c.61-.015.9-.025,1.106.174s.2.489.2,1.068v.247c0,.071,0,.141-.006.213a1.781,1.781,0,0,0,.008.383.664.664,0,0,1-.738.9Zm-.659-2.472c0,.01,0,.031,0,.06.015.317.011.635.008.953l0,.388a2.163,2.163,0,0,0,.03.526,2.589,2.589,0,0,0,.436.038l.079,0c.283.014.341-.031.349-.041s.042-.05,0-.264a2.221,2.221,0,0,1-.016-.493c0-.064.006-.127.006-.19v-.246a.539.539,0,0,0-.77-.743A1.053,1.053,0,0,0,236.377,3443.941Z" transform="translate(-235.879 -3443.427)"/>
      </g>
    </g>
  </g>
</svg>
