<svg xmlns="http://www.w3.org/2000/svg" width="302" height="281.269" viewBox="0 0 302 281.269">
  <defs>
    <style>
      .cls-1, .cls-2 {
        fill: #1a83ff;
      }

      .cls-2 {
        opacity: 0.1;
      }
    </style>
  </defs>
  <g id="ore24-design" transform="translate(2051.403 -1510.153)">
    <g id="Group_22" data-name="Group 22" transform="translate(-1834.145 1579.836)">
      <path id="Path_1491" data-name="Path 1491" class="cls-1" d="M-1629.927,1650.861l-9.207,5.005-5-9.2,4.778,1.4a21.842,21.842,0,0,0-14.978-20.086,22.128,22.128,0,0,0-27.881,13.434l-.8-1.424-2.441,1.313c.078-.267.115-.44.179-.6,3.824-9.926,10.975-15.767,21.568-16.88a25.1,25.1,0,0,1,27.441,22.111,23.07,23.07,0,0,1,.154,2.555.63.63,0,0,0,.546.718C-1633.722,1649.724-1631.886,1650.281-1629.927,1650.861Z" transform="translate(1692.816 -1623.68)"/>
      <path id="Path_1492" data-name="Path 1492" class="cls-1" d="M-1645.163,1668.02l.8,1.416,2.419-1.3a5.364,5.364,0,0,1-.137.542c-3.821,9.95-10.972,15.826-21.592,16.93A25.077,25.077,0,0,1-1691,1664.3a31.37,31.37,0,0,1-.267-3.362.641.641,0,0,0-.548-.716c-1.846-.522-3.681-1.08-5.637-1.659l9.2-5.006,5,9.2-4.852-1.42a21.53,21.53,0,0,0,3.086,10.439,21.716,21.716,0,0,0,11.965,9.667A22.123,22.123,0,0,0-1645.163,1668.02Z" transform="translate(1697.448 -1635.219)"/>
      <path id="Path_1493" data-name="Path 1493" class="cls-1" d="M-1634.47,1661.613h-3.6V1657.8h-7.877c.018-1.283-.133-2.452.676-3.627,2.262-3.288,4.384-6.673,6.539-10.035a.984.984,0,0,1,.98-.517c1.061.03,2.124.009,3.25.009V1655h2.112v2.772h-2.081Zm-3.632-13.822-4.549,7.188h4.549Z" transform="translate(1677.558 -1631.381)"/>
      <path id="Path_1494" data-name="Path 1494" class="cls-1" d="M-1664.22,1658.2h7.348v3.212h-11.773c0-.979-.018-1.943.017-2.906.006-.169.215-.35.363-.493,1.732-1.669,3.483-3.319,5.2-5a17.574,17.574,0,0,0,1.6-1.841,3.836,3.836,0,0,0,.8-2.558,2.194,2.194,0,0,0-2.2-2.3,6.144,6.144,0,0,0-4.012,1.11c-.273.182-.533.384-.911.657v-2.067c0-1.5,0-1.5,1.4-2.092a9.548,9.548,0,0,1,5.416-.632,4.938,4.938,0,0,1,4,6.867,11.38,11.38,0,0,1-3.383,4.586c-1.093.99-2.2,1.959-3.305,2.938C-1663.807,1657.8-1663.942,1657.933-1664.22,1658.2Z" transform="translate(1686.326 -1631.194)"/>
    </g>
    <g id="Group_23" data-name="Group 23" transform="translate(-1809.697 1613.518)">
      <path id="Path_1495" data-name="Path 1495" class="cls-1" d="M-1655.113,1686.222a2.294,2.294,0,0,1-1.02-.224,2.546,2.546,0,0,1-.792-.6,2.683,2.683,0,0,1-.512-.851,2.75,2.75,0,0,1-.18-.979,2.67,2.67,0,0,1,.191-1,2.777,2.777,0,0,1,.527-.848,2.514,2.514,0,0,1,.8-.585,2.322,2.322,0,0,1,1.005-.218,2.235,2.235,0,0,1,1.02.232,2.558,2.558,0,0,1,.788.608,2.8,2.8,0,0,1,.508.85,2.709,2.709,0,0,1,.18.969,2.714,2.714,0,0,1-.188,1,2.628,2.628,0,0,1-.527.843,2.589,2.589,0,0,1-.8.583A2.308,2.308,0,0,1-1655.113,1686.222Zm-1.665-2.651a2.2,2.2,0,0,0,.118.714,1.942,1.942,0,0,0,.335.611,1.635,1.635,0,0,0,.527.423,1.5,1.5,0,0,0,.692.158,1.459,1.459,0,0,0,.7-.165,1.656,1.656,0,0,0,.519-.438,1.978,1.978,0,0,0,.324-.611,2.224,2.224,0,0,0,.111-.692,2.192,2.192,0,0,0-.118-.718,1.917,1.917,0,0,0-.335-.6,1.671,1.671,0,0,0-.523-.419,1.458,1.458,0,0,0-.681-.159,1.474,1.474,0,0,0-.707.166,1.676,1.676,0,0,0-.523.431,1.937,1.937,0,0,0-.328.608A2.188,2.188,0,0,0-1656.777,1683.571Z" transform="translate(1657.617 -1679.468)"/>
      <path id="Path_1496" data-name="Path 1496" class="cls-1" d="M-1648.053,1686.209v-5.229h2.276a1.466,1.466,0,0,1,.652.147,1.672,1.672,0,0,1,.512.387,1.838,1.838,0,0,1,.335.546,1.67,1.67,0,0,1,.121.622,1.747,1.747,0,0,1-.073.509,1.8,1.8,0,0,1-.206.449,1.44,1.44,0,0,1-.324.357,1.345,1.345,0,0,1-.42.225l1.23,1.989h-.936l-1.134-1.819h-1.208v1.819Zm.825-2.548h1.443a.664.664,0,0,0,.321-.078.75.75,0,0,0,.247-.214,1.088,1.088,0,0,0,.162-.312,1.206,1.206,0,0,0,.059-.376,1.014,1.014,0,0,0-.07-.376,1.093,1.093,0,0,0-.184-.309.887.887,0,0,0-.265-.21.682.682,0,0,0-.313-.077h-1.4Z" transform="translate(1653.923 -1679.492)"/>
      <path id="Path_1497" data-name="Path 1497" class="cls-1" d="M-1636.534,1684.543v.729h-3.587v-5.229h3.521v.728h-2.7v1.488h2.335v.685h-2.335v1.6Zm-2.733-5.178v-.81h.678v.81Zm1.3,0v-.81h.678v.81Z" transform="translate(1650.86 -1678.555)"/>
    </g>
    <path id="Path_1498" data-name="Path 1498" class="cls-1" d="M-2003.878,1742.706c-4.289-.667-7.973-1-11.538-1.846-5.934-1.4-7.518-7.47-3.234-11.775,3.263-3.28,12.242-5.379,16.049-2.979,2.332,1.47,3.726,4.427,5.618,6.814.06-.092.583-.869,1.086-1.658,4.946-7.753,9.741-15.607,14.875-23.232a23.744,23.744,0,0,1,19.1-11.029,668.754,668.754,0,0,1,95.95-.512c3.162.222,6.317.683,9.48.721a19.341,19.341,0,0,1,16.163,8.628c5.882,8.342,11.219,17.067,16.784,25.632.53.817,1.037,1.648,1.876,2.984.193-1.392.068-2.305.448-2.891,1.237-1.906,2.284-4.319,4.086-5.4,4.186-2.51,13.432-.3,16.732,3.467,3.56,4.063,1.922,9.669-3.291,11.072a52.16,52.16,0,0,1-5.708,1.115c-1.893.288-3.807.435-5.88.661,3.046,2.578,6.267,4.769,8.8,7.578a118.424,118.424,0,0,0,12.088,12c6.164,5.125,8.207,12.521,9.216,20.173,1.693,12.841,1.233,25.712.442,38.592-.462,7.524-.524,15.075-1.112,22.587a49.256,49.256,0,0,1-2.2,12.328c-2.318,6.628-4.068,7.248-9.432,7.033-6.229-.25-12.477-.058-18.717-.058-5.569,0-7.855-1.314-9.493-6.609-.87-2.812-2.121-3.356-4.757-2.913a83.689,83.689,0,0,1-8.557.686c-.91.058-2.034.315-2.709-.1-3.611-2.2-7.543-1.439-11.374-1.444q-59.219-.062-118.439-.021c-1.67,0-3.332.678-5.012.961a21.6,21.6,0,0,1-4.467.535c-3.864-.171-7.719-.545-11.671-.845-.419,1.211-.745,2.27-1.148,3.3-1.984,5.063-4.006,6.444-9.377,6.445-6.751,0-13.512-.215-20.249.087-3.61.161-5.943-1.459-6.906-4.371-1.493-4.515-3.012-9.237-3.212-13.928-.784-18.45-1.188-36.921-1.423-55.387-.054-4.236.907-8.532,1.777-12.722a27.706,27.706,0,0,1,12.641-18.115,6.331,6.331,0,0,0,1.938-1.463A45.771,45.771,0,0,1-2003.878,1742.706Zm-19.478,26.614-1.063,1.11c-1.043,1.946-2.677,3.791-3.027,5.855-1.592,9.373-3.023,18.785-4.084,28.232-.441,3.92.178,7.96.336,11.944.041,1.04.163,2.078.247,3.117a11.023,11.023,0,0,0,1.322-3.57c1.465-5.44,3.144-6.7,8.786-6.132,3.858.391,7.711.975,11.512,1.74,9.784,1.968,19.538,4.085,29.3,6.142a84.114,84.114,0,0,1-13.435-.859q-15.075-1.756-30.152-3.5c-2.044-.237-4.277-.2-4.779,2.173-.948,4.489-1.457,9.07-2.149,13.613l.7.113q.7-4.977,1.4-9.954l.807.142a20.514,20.514,0,0,0-.534,2.631c-.5,6.705-1.1,13.408-1.347,20.124-.075,2.048.544,4.169,3.553,4.376,15.2,1.043,30.382,2.233,45.576,3.329a10.9,10.9,0,0,0,2.669-.39c1.971-.364,3.938-1.08,5.906-1.082q59.047-.075,118.1.025c4.327.007,8.8-.973,12.914,1.406.527.3,1.4.059,2.1.007q22.328-1.646,44.655-3.307a4.017,4.017,0,0,0,4.057-4.532c-.5-7.587-1.05-15.171-1.579-22.755l.474-.093c.46,3.41.92,6.819,1.439,10.669a23.414,23.414,0,0,0,.207-3.056c-.215-2.85-.357-5.721-.821-8.535-.72-4.37-1.972-5.326-6.477-4.816-13.1,1.482-26.187,3.081-39.281,4.624-1.1.13-2.208.193-3.312.287a175.135,175.135,0,0,1,19.661-4.9c7.521-1.421,15.1-2.58,22.669-3.7,3.311-.491,5.483,1.185,6.46,4.353.545,1.77,1,3.57,1.732,6.24a21.921,21.921,0,0,0,.378-2.606c-.127-6.956-.161-13.918-.469-20.867a109.079,109.079,0,0,0-1.282-12.5c-.791-4.91-1.527-9.911-4.836-13.981l-1.156-1.144-5.486-2.125c-.24-1.729.156-4.5-1.005-6.223-4.112-6.088-8.906-11.61-15.529-15.3a12.988,12.988,0,0,1-4.3-4.427c-6.458-10.263-12.679-20.677-19.193-30.9-1.366-2.144-3.627-3.718-5.475-5.555l.107.109c-2.145-2.694-5.193-3.394-8.374-3.684-3.767-.344-7.545-.577-11.32-.845a660.859,660.859,0,0,0-94.111.455c-7.885.564-13.431,3.844-17.494,10.085-5.463,8.39-10.849,16.844-15.877,25.5-2.694,4.636-5.294,8.864-10.3,11.6-3.291,1.8-5.995,4.915-8.5,7.837-2.872,3.352-6.107,6.8-4.661,11.258Zm212.011-31.8c3.173-.339,5.8-.745,8.441-.863,2.18-.1,2.849-1.443,2.235-3.008a9.805,9.805,0,0,0-3.146-4.258c-3.652-2.609-7.985-2.4-12.086-1.6-2.564.5-3.254,3.068-3.559,5.53-.312,2.519,1.775,2.781,3.242,3.3A26.76,26.76,0,0,0-1811.346,1737.522Zm-199.187-.921v.269c1.829.122,3.777.692,5.453.245,1.848-.493,4.144-1.533,4.981-3.037,1.111-2-1.606-6.334-3.866-6.382a38.517,38.517,0,0,0-10.482,1.034c-1.674.439-3.273,2.4-4.223,4.061-1.254,2.195-.174,3.675,2.34,3.791C-2014.4,1736.672-2012.466,1736.6-2010.533,1736.6Zm-16.626,113.724-.112.847,16.416.864.022-.329Zm234.472.891.146-.881-16.2,1.4.024.315Z" transform="translate(-6.337 -71.39)"/>
    <path id="Path_1499" data-name="Path 1499" class="cls-1" d="M-1678.3,1817.178c.609,5.032,1.283,10.057,1.8,15.1.234,2.294-.924,3.724-3.165,4.574-4.112,1.559-8.229,2.743-12.467.778-6.9-3.2-14-2.13-21.04-1.044-4.818.744-8.8-.144-12.249-3.727-1.759-1.828-3.956-3.227-5.871-4.916a10.373,10.373,0,0,1-1.457-2.115,8.542,8.542,0,0,1,2.41-1.4c13.046-2.469,26.094-4.935,39.172-7.223,3.855-.674,7.807-.792,11.714-1.166Zm-43.478,8.021-7.96,1.2a35.644,35.644,0,0,1,4.079,3.477c4.052,4.832,9.283,5.517,14.961,4.264a32.469,32.469,0,0,1,19.507,1.541c3.144,1.255,6.188.689,9.284-.278,2.207-.689,3.6-1.824,3.351-4.307-.332-3.34-.664-6.681-1.05-10.015-.356-3.072-2.081-3.632-4.952-3.057-8.8,1.761-17.649,3.234-26.455,4.943-2.528.491-4.975,1.406-7.459,2.126Z" transform="translate(-123.063 -118.131)"/>
    <path id="Path_1500" data-name="Path 1500" class="cls-1" d="M-2017.887,1815.876a17.588,17.588,0,0,1,4.173-.249q22.925,4.092,45.812,8.4a13.453,13.453,0,0,1,3.289,1.636,20.235,20.235,0,0,1-2.188,2.69c-2.067,1.825-4.382,3.383-6.349,5.3a10.2,10.2,0,0,1-9.227,2.9c-3.837-.565-7.723-1.368-11.558-1.23a39.332,39.332,0,0,0-10.976,2.156c-4.737,1.6-9,.776-13.357-1.091-1.76-.754-2.722-1.919-2.54-3.7.534-5.242,1.229-10.469,1.86-15.7Zm39.4,8.864a2.647,2.647,0,0,0-.775-.474c-11.812-2.226-23.62-4.467-35.456-6.556a2.913,2.913,0,0,0-2.406,1.51c-.66,4.4-1.1,8.838-1.418,13.276a2.743,2.743,0,0,0,1.473,1.962c3.4,1.566,6.92,2.553,10.656,1.093a32.283,32.283,0,0,1,19.8-1.576c.785.19,1.655.038,2.435.24,7.561,1.957,11.143-3.963,16.413-7.812l-8.073-1.866Z" transform="translate(-11.807 -117.945)"/>
    <path id="Path_1501" data-name="Path 1501" class="cls-1" d="M-1819.916,1709.007c.555,1.051,1.094,2.111,1.669,3.151q8.214,14.867,16.422,29.737a28.645,28.645,0,0,1,1.244,3.175c-54.727-2.6-109.04-2.61-163.856.012,1.118-2.569,1.9-4.872,3.066-6.958,5.041-8.99,10.216-17.905,15.294-26.875a5.053,5.053,0,0,1,4.418-2.693,670.442,670.442,0,0,1,104.765-.956c5.7.414,11.388,1,17.083,1.514Z" transform="translate(-33.586 -75.633)"/>
    <path id="Path_1502" data-name="Path 1502" class="cls-1" d="M-1870.329,1827.3c15.034.338,30.059.73,45.086.973,3.8.062,6.736,1.52,9.718,3.793,6.322,4.82,9.073,10.4,6.874,18.541-3.084,11.418-5.325,23.062-8.216,34.537-1.348,5.352-4.076,7.142-9.6,7.147q-43.861.042-87.723,0c-5.522,0-7.937-1.865-9.661-7.133a209.779,209.779,0,0,1-8.906-40.961c-.179-1.535-.073-3.608.812-4.678,4.658-5.639,9.052-11.408,17.762-11.352C-1899.566,1828.264-1884.948,1827.63-1870.329,1827.3Zm.01,62.615v.243c10.633,0,21.265.021,31.9-.011,3.884-.012,7.769-.141,11.653-.229,4.863-.111,6.6-1.121,7.75-5.735,2.744-10.988,5.5-21.988,7.694-33.094,2.108-10.682,1.607-11.441-7.011-18.1a9.949,9.949,0,0,0-5.546-2.111c-29.335-.2-58.673-.071-88.005-.4a18.516,18.516,0,0,0-15.442,7.052,7.818,7.818,0,0,1-.845.889,6.586,6.586,0,0,0-2.183,6.333,220.249,220.249,0,0,0,8.783,39.746c1.359,4.187,2.909,5.386,7.4,5.4C-1899.557,1889.946-1884.938,1889.917-1870.318,1889.917Z" transform="translate(-45.794 -122.483)"/>
    <path id="Path_1503" data-name="Path 1503" class="cls-1" d="M-1945.073,1797.667l-27.329-24.329c2.094-.365,3.968-.805,5.866-.959a2.745,2.745,0,0,1,1.96,1C-1957.806,1781.742-1951.091,1790.153-1945.073,1797.667Z" transform="translate(-30.51 -101.27)"/>
    <path id="Path_1504" data-name="Path 1504" class="cls-1" d="M-1734.183,1797.671c5.96-7.432,12.556-15.592,19.054-23.828,1.021-1.294,1.932-1.865,3.583-1.382a42.275,42.275,0,0,0,4.748.822Z" transform="translate(-122.51 -101.238)"/>
    <path id="Path_1505" data-name="Path 1505" class="cls-1" d="M-2021.266,1894.924c18.668-.011,36.966,3.069,55.2,6.662C-1984.388,1898.725-2002.707,1895.817-2021.266,1894.924Z" transform="translate(-11.639 -148.599)"/>
    <path id="Path_1506" data-name="Path 1506" class="cls-1" d="M-1675.149,1895.323c-18.484.433-36.748,3.406-54.6,6.48C-1726.345,1898.922-1679.2,1893.157-1675.149,1895.323Z" transform="translate(-124.222 -148.569)"/>
    <path id="Path_1507" data-name="Path 1507" class="cls-1" d="M-1939.016,1929.993l13.274,2.03-.136.881-13.278-2Z" transform="translate(-43.35 -162.142)"/>
    <path id="Path_1508" data-name="Path 1508" class="cls-1" d="M-1731.413,1930.948l-13.124,1.935-.131-.858,13.236-2.045Z" transform="translate(-118.461 -162.137)"/>
    <path id="Path_1509" data-name="Path 1509" class="cls-1" d="M-1712.444,1826.937q14.722-2.72,29.445-5.437c1.381-.254,2.772-.453,4.23-.689-.693,4.98-1.141,5.457-5.7,6.141-8.179,1.226-16.356,2.471-24.545,3.625a32.526,32.526,0,0,1-4.563.021l.109.107-3.675-2.733,1.4-.929Z" transform="translate(-129.09 -119.977)"/>
    <path id="Path_1510" data-name="Path 1510" class="cls-1" d="M-1972.719,1830.55c-4.554-.461-9.119-.835-13.659-1.406-4.967-.625-9.907-1.464-14.867-2.155-5.109-.712-5.113-.683-6.55-6.3l34.338,6.033,2.648-.2,1.532,1.452-3.55,2.682Z" transform="translate(-16.841 -119.93)"/>
    <path id="Path_1511" data-name="Path 1511" class="cls-1" d="M-1713.059,1831.84c1.06.4,2.187,1.274,3.169,1.134,9.4-1.345,18.749-3.082,28.172-4.206,3.149-.376,3.271-2.8,4.728-4.742-.106,3.666-1.219,5.543-5.1,5.9a141.831,141.831,0,0,0-19.2,3.383c6.366-.789,12.727-1.616,19.1-2.347,2.6-.3,5.411-.085,5.886-3.875.279,3.082-.758,4.577-3.887,4.9-9.956,1.045-19.885,2.353-29.824,3.569-3.192.39-5.517-1.183-5.786-4.247,1.013.228,1.934.435,2.851.64Z" transform="translate(-129.611 -121.218)"/>
    <path id="Path_1512" data-name="Path 1512" class="cls-1" d="M-1659.062,1842.385c-4.566,2.414-9.13,2.022-13.7.3C-1668.193,1842.5-1663.627,1839.878-1659.062,1842.385Z" transform="translate(-146.233 -127.892)"/>
    <path id="Path_1513" data-name="Path 1513" class="cls-1" d="M-1648.666,1829.358c.245,2.433.492,4.865.788,7.8-4.267-2.443-2.209-5.176-1.644-7.717Z" transform="translate(-154.823 -123.277)"/>
    <path id="Path_1514" data-name="Path 1514" class="cls-1" d="M-1973.946,1831.938l2.59-.73c.46,2.468-1.953,4.731-4.777,4.408-7.207-.824-14.4-1.751-21.6-2.633-2.738-.336-5.473-.7-8.216-.982-4.406-.459-4.579-.615-4.74-5.411.465,3.85,3.093,4.146,6.089,4.422,6.293.582,12.555,1.495,18.9,1.8-6.4-1.01-12.8-2-19.2-3.034-4.384-.708-4.381-.732-4.755-5.766.506,4.915,4.262,4.542,7.525,5.048,8.273,1.285,16.53,2.681,24.818,3.861,1.085.155,2.312-.7,3.476-1.086Z" transform="translate(-15.722 -121.212)"/>
    <path id="Path_1515" data-name="Path 1515" class="cls-1" d="M-2011.506,1842.354c4.467-2.8,9.057.4,14.351-.36C-2000.968,1844.542-2006.84,1844.693-2011.506,1842.354Z" transform="translate(-15.408 -127.844)"/>
    <path id="Path_1516" data-name="Path 1516" class="cls-1" d="M-2015.822,1837.348c.33-3.146.59-5.63.851-8.114C-2013.561,1831.85-2011.622,1834.487-2015.822,1837.348Z" transform="translate(-13.741 -123.229)"/>
    <path id="Path_1517" data-name="Path 1517" class="cls-1" d="M-1918.019,1874.238h106.8q.03.34.06.679c-3.709.329-7.417.933-11.128.944q-42.318.123-84.637.007c-3.719-.01-7.436-.615-11.154-.944Z" transform="translate(-51.492 -140.61)"/>
    <path id="Path_1518" data-name="Path 1518" class="cls-1" d="M-1915.939,1885.076H-1811.2C-1817.407,1887.276-1908.153,1887.466-1915.939,1885.076Z" transform="translate(-52.316 -144.795)"/>
    <path id="Path_1519" data-name="Path 1519" class="cls-1" d="M-1913.07,1896.843h100.723q0,.576,0,1.153-50.361.852-100.723.023Z" transform="translate(-53.424 -149.34)"/>
    <path id="Path_1520" data-name="Path 1520" class="cls-1" d="M-1812.811,1841.334h-98.268v-.978c32.726-.75,65.453-.678,98.182-.046Z" transform="translate(-54.193 -127.316)"/>
    <path id="Path_1521" data-name="Path 1521" class="cls-1" d="M-1910.945,1907.088h98.33C-1818.094,1909.247-1906.281,1909.163-1910.945,1907.088Z" transform="translate(-54.245 -153.296)"/>
    <path id="Path_1522" data-name="Path 1522" class="cls-1" d="M-1811.123,1863.978c-35.762.873-71.524.775-107.286.068v-1.164h107.286Z" transform="translate(-51.362 -136.224)"/>
    <path id="Path_1523" data-name="Path 1523" class="cls-1" d="M-1813.6,1918.982q-46.832,1.736-93.667.011v-1.051h93.668Z" transform="translate(-55.667 -157.488)"/>
    <path id="Path_1524" data-name="Path 1524" class="cls-1" d="M-1919.967,1851.57h109.091l.1.462a69.914,69.914,0,0,1-8.611,1.1c-18.394.144-36.79.168-55.185.173-12.364,0-24.73-.025-37.093-.187a73.083,73.083,0,0,1-8.419-1.055Z" transform="translate(-50.716 -131.855)"/>
    <path id="Path_1525" data-name="Path 1525" class="cls-2" d="M-1752.431,1670.709a34.234,34.234,0,0,1-14.615,15.412,50.259,50.259,0,0,1-24.153,6.273,71.167,71.167,0,0,1-12.362-1.037q-4.834-5.313-9.287-10.95a17.378,17.378,0,0,1-3.634-6.316c-.6-2.375-.031-5.205,1.964-6.617,1.829-1.3,4.745-1.461,5.457-3.585.736-2.191-1.651-4.076-3.7-5.162-2.388-1.271-4.923-2.572-7.624-2.468s-5.518,2.222-5.364,4.917a7.69,7.69,0,0,0,1.3,3.339q4.06,6.96,8.121,13.915l-22.926-26.7c-5.039-5.868-10.226-11.859-16.978-15.64-9.606-5.383-21.145-5.647-32.157-5.77q-29.518-.341-59.023-.675c-8.661-.1-17.665-.129-25.5,3.566a28.878,28.878,0,0,0-10.907,8.992c-2.836,3.867-4.659,8.372-6.954,12.577q-.782,1.427-1.639,2.811a9.2,9.2,0,0,0-6.96.295c-13.528,6.353-30.487-1.921-39.836-13.583-6.156-7.685-9.655-17.082-11.208-26.866a83.3,83.3,0,0,1-.958-15.327c.239-8.949,1.866-18.322,7.488-25.289,12.767-15.8,38.246-11.754,55.727-22.109,14.559-8.63,21.735-26.172,35.643-35.821,16.247-11.275,37.945-9.526,57.47-6.353,6.39,1.043,12.976,2.271,18.322,5.923,10.938,7.476,13.332,22.336,20.151,33.691,9.109,15.161,25.958,23.693,42.272,30.518s33.606,13.141,45.8,25.951c7.66,8.047,12.822,18.236,16.082,28.861C-1749.092,1648.311-1747.754,1660.4-1752.431,1670.709Z" transform="translate(0 0)"/>
    <path id="Path_1526" data-name="Path 1526" class="cls-2" d="M-1766.423,1697.132V1713.8a50.26,50.26,0,0,1-24.153,6.273,71.2,71.2,0,0,1-12.362-1.037q-4.834-5.313-9.287-10.95a17.377,17.377,0,0,1-3.634-6.316c-.6-2.375-.031-5.2,1.964-6.617,1.829-1.3,4.745-1.461,5.457-3.585.736-2.191-1.651-4.076-3.7-5.162-2.388-1.27-4.923-2.572-7.624-2.467s-5.518,2.222-5.364,4.917a7.688,7.688,0,0,0,1.3,3.339q4.06,6.961,8.121,13.915l-22.926-26.7c-5.039-5.868-10.226-11.859-16.978-15.64-9.606-5.383-21.145-5.647-32.157-5.77q-29.518-.341-59.023-.675c-8.661-.1-17.665-.129-25.5,3.566a28.88,28.88,0,0,0-10.907,8.992c-2.836,3.867-4.659,8.372-6.954,12.577q-.783,1.427-1.639,2.811a9.2,9.2,0,0,0-6.96.295c-13.528,6.353-30.487-1.921-39.836-13.583-6.156-7.685-9.655-17.082-11.208-26.866l2.081-.724h26.964v-26.43h16.837v10.79h8.734v-33.863h20.212v4.726h7.857v43.8h15.29v-23.662h6.4v-12.239h11.116v37.853h14.455v-12.123h4.622v4.481h6.218v-55.9h16.118v57.875h11.4v-17.3h6.113v17.3h5.837v5.665h21.121v10.95s8.894,3.615,8.894,0v-41.137l4.53-4.53h6.31v62.9h35.858v-10.84h7.224v-7.543h7.593v41.965Z" transform="translate(-0.623 -27.682)"/>
  </g>
</svg>
