<svg xmlns="http://www.w3.org/2000/svg" width="25.618" height="33.736" viewBox="0 0 25.618 33.736">
  <defs>
    <style>
      .cls-1 {
        fill: #1a83ff;
      }
    </style>
  </defs>
  <path id="shume-lokacione-375px" class="cls-1" d="M12.809,33.736a2.717,2.717,0,0,1-1.822-.7,43.689,43.689,0,0,1-6.477-7.414C1.517,21.2,0,16.894,0,12.808a12.809,12.809,0,0,1,25.618,0c0,4.082-1.517,8.392-4.509,12.81a43.706,43.706,0,0,1-6.479,7.414A2.712,2.712,0,0,1,12.809,33.736Zm0-30.891a9.974,9.974,0,0,0-9.962,9.962c0,3.524,1.352,7.292,4.018,11.2a40.017,40.017,0,0,0,5.944,6.832,39.78,39.78,0,0,0,5.944-6.832c2.666-3.908,4.018-7.677,4.018-11.2A9.974,9.974,0,0,0,12.808,2.846Zm0,15.656A5.692,5.692,0,1,1,18.5,12.808,5.7,5.7,0,0,1,12.808,18.5Zm0-8.539a2.847,2.847,0,1,0,2.847,2.846A2.849,2.849,0,0,0,12.808,9.962Z"/>
</svg>
