<svg xmlns="http://www.w3.org/2000/svg" width="306" height="300.277" viewBox="0 0 306 300.277">
  <defs>
    <style>
      .cls-1 {
        fill: none;
        stroke: #1a83ff;
        stroke-miterlimit: 10;
        stroke-width: 4px;
      }

      .cls-2, .cls-3 {
        fill: #1a83ff;
      }

      .cls-2 {
        opacity: 0.1;
      }

      .cls-4 {
        fill: #fff;
        font-size: 5px;
        font-family: Raleway-SemiBold, Raleway;
        font-weight: 600;
      }
    </style>
  </defs>
  <g id="tere-kosoven" transform="translate(1158.276 -972.127)">
    <path id="Path_1415" data-name="Path 1415" class="cls-1" d="M-1156.276,1030.93c.921-.315,1.8.152,2.7.139a48.53,48.53,0,0,0,5.836-.176,5.324,5.324,0,0,0,3.06-1.477c.784-.74,1.515-1.536,2.3-2.277,1.527-1.444,2.958-1.267,4.131.487.626.938.929,2.03,1.46,3.018a9.611,9.611,0,0,0,2.966,3.293c1.957,1.4,3.867,2.861,5.875,4.188a23.967,23.967,0,0,1,4.3,3.946c2.695,2.932,5.643,5.622,8.308,8.573a10.464,10.464,0,0,0,7.624,3.326c3.614.212,7.071.855,10.08,3.034.7.51,1.42,1.018,2.083,1.574a52.118,52.118,0,0,0,10.854,6.5,6.91,6.91,0,0,1,4.192,6.23c.158,2.985-.675,5.825-1.252,8.7-.155.773-.778.978-1.477,1.113-2.805.546-5.644.887-8.452,1.42a15.763,15.763,0,0,0-1.812.42q-2.383.717-4.7,1.63a4.366,4.366,0,0,0-2.7,3.97,1.23,1.23,0,0,0,0,.372c.542,2.818-.554,4.976-2.631,6.8a1.875,1.875,0,0,1-1.889.6,17.38,17.38,0,0,1-5.4-2.146,20.77,20.77,0,0,0-7.251-3.145,2.61,2.61,0,0,0-2.25.229,26.172,26.172,0,0,0-5.424,4.512,3.147,3.147,0,0,0-.57,1.587c-.588,3.105.867,5.3,3.008,7.28,1.977,1.832,3.835,3.79,5.734,5.7,1.594,1.606,2.137,3.374,1.007,5.511-.676,1.277-1.034,2.712-1.841,3.935-1.639,2.484-1.254,5.246-1.019,7.96a6.053,6.053,0,0,1-.993,4.366c-.708.954-1.079,1.042-2.08.47-2.393-1.366-2.383-1.353-4.576.3a18.3,18.3,0,0,0-2.772,3.177,14.632,14.632,0,0,0-1.213,1.576c-1.946,3.1-4.971,3.795-8.234,3.293a8.52,8.52,0,0,0-7.3,2.114,23.386,23.386,0,0,1-8.215,4.784,2.1,2.1,0,0,1-1.456.1" transform="translate(0 -25.058)"/>
    <path id="Path_1416" data-name="Path 1416" class="cls-1" d="M-972.26,1432.512a1.128,1.128,0,0,1-.322-.788c-.02-2.405-.382-4.786-.507-7.182-.209-4.012,1.789-7.017,4.743-9.4a5.72,5.72,0,0,0,2.121-5.8c-.362-2.742-1.462-5.368-1.177-8.217a4.421,4.421,0,0,1,3.355-3.605,1.483,1.483,0,0,1,1.286.621c.566.606,1.093,1.248,1.662,1.853a5.448,5.448,0,0,0,1.943,1.31,3,3,0,0,0,3.982-1.233c.344-.521.566-1.108.911-1.626.835-1.254,1.719-1.335,2.7-.205.734.846,1.36,1.78,2.036,2.672a3.238,3.238,0,0,0,5.265.372,24.964,24.964,0,0,0,6.119-9.985,11.5,11.5,0,0,0,.3-7.3,19.457,19.457,0,0,1-1.092-8.7,101.3,101.3,0,0,1,1.842-10.017,14.187,14.187,0,0,1,2.763-5.778,12.269,12.269,0,0,1,5.706-3.819c8.283-2.813,16.525-5.745,24.825-8.51a17.832,17.832,0,0,0,7.53-4.674,31.192,31.192,0,0,1,5.516-5,3.928,3.928,0,0,1,4.739-.156,52.56,52.56,0,0,1,11.024,9.435,16.645,16.645,0,0,1,2.69,4.461c.992,2.386,2.579,3.976,5.291,4.267,1.355.145,2.67.594,4.029.753,1.586.185,2.072-.119,2.257-1.66a15.633,15.633,0,0,0-.495-6.139,5.578,5.578,0,0,1,.768-5.048c2.191-3.222,4.274-6.519,6.4-9.783a5.063,5.063,0,0,1,3.7-2.669,4.914,4.914,0,0,1,2.077.223c1.306.408,2.538,1.041,3.879,1.331.458.1,1.077.261,1.39-.211a1.42,1.42,0,0,0-.121-1.422c-.132-.259-.3-.5-.421-.761-.357-.8-.808-1.6-.011-2.4a2.813,2.813,0,0,1,3-.607,3.772,3.772,0,0,1,.914.64c1.578,1.374,1.8,1.382,3.163-.171a1.307,1.307,0,0,1,2.038-.283c1.5,1.192,3.207.9,4.868.61a26.653,26.653,0,0,0,3.25-.835c1.183-.364,2.32-.649,3.446.16.27.194.647.1.977.109,1,.022,1.993.043,2.987,0a19.179,19.179,0,0,1,7.11.885,5.263,5.263,0,0,0,6.63-2.1c1.332-1.923,3.5-2.744,5.361-3.964,3.05-2,6.218-3.824,9.27-5.824a9.673,9.673,0,0,1,5.743-1.687c.249.007.5,0,.747,0,5.341,0,3.774.336,7.776-3.086,2.732-2.336,3.377-2.516,6.608-.8a21.412,21.412,0,0,1,3.564,2v.249" transform="translate(-88.163 -161.487)"/>
    <path id="Path_1417" data-name="Path 1417" class="cls-1" d="M-1156.276,1005.125v.5a45.7,45.7,0,0,0,6.8.334,7.343,7.343,0,0,0,5.863-2.727,13.926,13.926,0,0,1,1.5-1.492,2.225,2.225,0,0,1,3.688.435,10.039,10.039,0,0,1,1.017,1.988,10.174,10.174,0,0,0,3.732,4.687,68.076,68.076,0,0,1,12.072,10.112c2.3,2.5,4.84,4.777,7.172,7.249a8.133,8.133,0,0,0,4.435,2.312,16.9,16.9,0,0,0,2.833.36,17.6,17.6,0,0,1,10.672,3.8,42.032,42.032,0,0,0,8.492,5.593c1.427.663,2.823,1.4,4.226,2.115a5.93,5.93,0,0,1,2.963,3.534,11.5,11.5,0,0,1,.24,5.537c-.3,1.544-.595,3.09-.862,4.64-.245,1.422.006,1.719,1.4,1.374,4.251-1.054,8.657-1.52,12.711-3.324a13.389,13.389,0,0,1,1.73-.7c2.359-.686,3.3-2.77,4.521-4.563a1.937,1.937,0,0,0,.082-1.576,6.093,6.093,0,0,0-3.02-4.175c-2.878-1.628-3.288-2.815-2.5-6a8.043,8.043,0,0,1,.416-1.56c1.359-2.845,2.628-4.516,5.712-4.462a6.638,6.638,0,0,0,6.776-4.457c1.259-3.017,1.356-2.985,4.534-2.572.8.1,1.678.365,2.391-.268a15.563,15.563,0,0,0,2.594-2.494,56.1,56.1,0,0,0,5.439-9.194,18.712,18.712,0,0,0,1.631-6.073,1.83,1.83,0,0,0-1.861-2.248c-.372-.034-.746-.019-1.119-.021-2.05-.013-2.361-.221-3.084-2.161a90.454,90.454,0,0,0-3.124-8.513,4.467,4.467,0,0,1-.4-2.305c.115-1.6.989-2.991,2.113-3.2a9.069,9.069,0,0,1,2.217-.288,9.9,9.9,0,0,0,6.652-2.344c2.721-2.04,5.454-4.064,8.161-6.123a13.2,13.2,0,0,1,5.165-2.342,6.778,6.778,0,0,1,2.942-.325c4.284.968,7.089,3.735,8.97,7.571.241.49.277.83-.48.879-1.656.108-2.332.806-2.331,2.408a19.9,19.9,0,0,1-.458,3.941c-.371,1.851-.193,2.3,1.438,3.264q10.49,6.214,21.051,12.308a10.206,10.206,0,0,0,4.67,1.6c2.113.065,4.216.358,6.329.3a4.771,4.771,0,0,1,4.338,2.617,17.464,17.464,0,0,1,2.43,6.478c.283,1.8.784,3.561,1.105,5.357a10.391,10.391,0,0,0,1.306,3.478c1.053,1.78,2.535,2.15,4.26,1.086.531-.327,1.011-.727,1.538-1.057.741-.464,2.431-.417,2.9.25,1.089,1.553,2.346,3.127,2.32,5.126a56.912,56.912,0,0,0,.594,7.924,5.87,5.87,0,0,0,.726,2.984,45.639,45.639,0,0,0,3.081,3.583,3.568,3.568,0,0,0,2.483,1,15.163,15.163,0,0,0,1.866.017,5.719,5.719,0,0,1,3.822,1.222c.8.6,1.56,1.237,2.348,1.845a5.881,5.881,0,0,0,2.107,1.295,26.405,26.405,0,0,0,6.217,1.145,2.235,2.235,0,0,1,2.171,2.089,26.058,26.058,0,0,1-.994,8.723,39.231,39.231,0,0,0-1.695,6.617,4.786,4.786,0,0,1-.767,2.33c-.517.724-.269,1.24.414,1.637a7.851,7.851,0,0,0,3.684.983c1.406.061,2.818-.266,4.2-.091,3.943.5,7.879,1.072,11.826,1.513a11.334,11.334,0,0,1,8.594,4.749,22.434,22.434,0,0,0,3.112,3.718c2.133,1.939,3.507,2.427,6.026,1.022,1.125-.628,2.344-1.056,3.5-1.617a6.23,6.23,0,0,1,1.308-.351,10.453,10.453,0,0,1,5.389.506c2.754.77,5.263,1.876,5.756,5.189a2.706,2.706,0,0,0,.227.709,1.868,1.868,0,0,1-.147,1.657,5.031,5.031,0,0,1-2.932,2.359,2.89,2.89,0,0,0-1.972,2.6,19.85,19.85,0,0,1-.648,3.033,1.348,1.348,0,0,1-.542.936,1.5,1.5,0,0,0-.411,2.351,3.877,3.877,0,0,1,.334,3.2,23.36,23.36,0,0,1-2.819,6.188,22.439,22.439,0,0,0-2.41,4.426l-.005,0-.79,1.449a12.317,12.317,0,0,1-2.465,3.692c-1.417,1.4-2.823,2.806-4.171,4.267a5.781,5.781,0,0,0-1.639,3.651,31.717,31.717,0,0,0,.422,5.816c.285,2.4.091,4.634-2.068,6.225a5.533,5.533,0,0,0-.715.691,3.657,3.657,0,0,1-1.687.984c-2.1.633-4.187,1.326-6.289,1.962a4.533,4.533,0,0,0-1.667,1.008,5.488,5.488,0,0,0-2.139,5.333,1.769,1.769,0,0,1-.01.5,2.115,2.115,0,0,0,.454,1.5c.826,1.191,1.569,2.443,2.433,3.6a18.752,18.752,0,0,1,3.675,7.784c.247,1.328.914,1.732,2.309,1.727,1.451-.005,2.9,0,4.353-.063a12.217,12.217,0,0,1,3.8.447,17.726,17.726,0,0,0,4.5.9,2.428,2.428,0,0,0,1.286-.338,9.5,9.5,0,0,0,2.76-2.648,5.143,5.143,0,0,1,1.377-1.235q7.071-4.4,14.138-8.812a2.671,2.671,0,0,1,.87-.461,14.894,14.894,0,0,1,4.047-.563c1.073.075,2.157-.011,3.233.039a3.182,3.182,0,0,0,2.466-.936c1.177-1.1,2.4-2.163,3.649-3.188a3.206,3.206,0,0,1,3.315-.795c.585.214,1.157.444,1.718.713a37.821,37.821,0,0,0,3.8,1.823c.008-.124.023-.248.023-.372" transform="translate(0)"/>
    <path id="Path_1418" data-name="Path 1418" class="cls-1" d="M-1060.921,1393.925c.339-2.2-.138-4.367-.306-6.541a11.513,11.513,0,0,1,.988-6.52,18.067,18.067,0,0,1,4.119-4.771,5.492,5.492,0,0,0,1.675-5.29c-.37-2.612-1.257-5.123-1.206-7.833a3.433,3.433,0,0,1,2-3.437c1.963-1.038,2.1-1.606,1.437-3.729a5.773,5.773,0,0,1,1.785-6.135,8.314,8.314,0,0,0,2.931-7.8,53.5,53.5,0,0,0-2.984-10.873c-2-4.822-3.886-9.66-3.41-15.107.336-3.833-.961-7.442-2.46-10.926-.917-2.131-1.981-4.2-2.812-6.366a29.32,29.32,0,0,0-8.665-11.64c-2.727-2.351-5.751-4.348-8.639-6.511a6.021,6.021,0,0,0-.585-.359c-.046-.026-.089-.055-.136-.082-.084-.058-.165-.117-.25-.171a2.643,2.643,0,0,0-.241-.16,4.02,4.02,0,0,1-.449-.316c-.036-.029-.07-.06-.1-.088-.069-.061-.139-.12-.214-.174a2.029,2.029,0,0,0-.231-.157,2.976,2.976,0,0,1-.342-.263c-.036-.034-.07-.073-.105-.107-.069-.078-.141-.158-.216-.231-.039-.038-.079-.081-.118-.119a2.746,2.746,0,0,0-.267-.232c-.878-.688-1.877-1.234-2.691-1.992a6.829,6.829,0,0,0-5.027-1.693c-2.94.028-5.881.009-8.821.007a1.876,1.876,0,0,1-1.6-.5,7.708,7.708,0,0,1-2.13-5.774,6.223,6.223,0,0,0-2.22-5.935c-1.9-1.67-1.886-2.346-.406-4.43a3.339,3.339,0,0,0-.677-4.3,11.207,11.207,0,0,1-2.8-4.206c-.713-2.079-1.661-4.063-2.419-6.124a12.673,12.673,0,0,0-1.193-2.309,12.7,12.7,0,0,0-5.214-4.273c-2.009-1.071-4.005-2.14-5.4-4.071-.915-1.267-2.37-1.916-3.673-2.717a1.283,1.283,0,0,0-1.516.068,12.22,12.22,0,0,0-2.99,2.587c-1.191,1.643-2.531,3.172-3.763,4.785a2.794,2.794,0,0,1-1.223,1.01,10.33,10.33,0,0,1-5.96.771c-3.034-.689-5.253.584-7.459,2.376-2.768,2.248-5.707,4.243-9.369,4.772" transform="translate(0 -122.901)"/>
    <path id="Path_1419" data-name="Path 1419" class="cls-2" d="M-891.181,1170.542c-4.53-3.166-7.568-2.211-10.609-6.588-2-2.875-1.931-6.508-1.592-9.887a19.062,19.062,0,0,1,1.909-7.429c3.724-6.755,13.432-8.69,19.341-14.036,4.894-4.428,7.048-11.108,12.734-14.689,6.344-3.995,22.332-8.342,29.25-5.213,6.363,2.879,15.227,5.674,19.2,10.993,1.969,2.635-1.812,10.423.352,12.931,5.047,5.848,9.438,6.837,17.44,8.56,5.605,1.206,9.716,6.33,15.216,7.881s10.882,4.487,13.357,9.171c1.8,3.415,1.865,7.371,1.343,11.123-.764,5.494-3.219,11.405-8.742,13.844-3.15,1.391-6.815,1.422-10.317,1.224-9.774-.552-19.364-2.652-29.111-3.5s-20.036-.345-28.594,3.94c-4.519,2.263-8.415,5.511-13.161,7.361a36.14,36.14,0,0,1-14.922,1.906c-4.2-.218-9.076-1.311-10.688-4.809-2.655-5.761,7.615-7.729,6.187-13.833C-883.3,1176.455-885.14,1174.764-891.181,1170.542Z" transform="translate(-121.633 -66.191)"/>
    <path id="Path_1420" data-name="Path 1420" class="cls-2" d="M-864.785,1170.434c-2.288-1.947-2.887-5.368-2.133-8.276a18.553,18.553,0,0,1,4.67-7.6,8.472,8.472,0,0,1,2.913-2.3c2.088-.845,4.431-.071,6.628.425a26.155,26.155,0,0,0,16.965-1.94c3.211-1.549,6.064-3.74,9.153-5.519s6.574-3.173,10.127-2.879c6.205.513,10.734,5.8,15.068,10.272a70.458,70.458,0,0,0,18.457,13.936,12.541,12.541,0,0,1,3.523,2.262,10.065,10.065,0,0,1,2.136,4.39c1.125,4.06,1.594,8.658-.569,12.273-2.478,4.139-7.818,5.8-12.624,5.385s-9.282-2.491-13.757-4.291c-6.936-2.79-14.459-5-21.819-3.687-9.125,1.625-17.213,8.519-26.453,7.783a16.713,16.713,0,0,1-10.334-4.741,6.357,6.357,0,0,1-1.973-3.229c-.373-2.05.909-4.022,1.147-6.093C-863.413,1174.474-863.062,1171.714-864.785,1170.434Z" transform="translate(-139.123 -80.955)"/>
    <path id="Path_1421" data-name="Path 1421" class="cls-2" d="M-825.233,1292.814c1.375-4.785-.462-10.085-2.742-14.511s-6.3-8.1-11.149-9.229c-4.507-1.052-9.232.12-13.578,1.711s-8.586,3.619-13.155,4.359c-5.617.91-11.338-.187-17.02-.487s-11.844.382-16.11,4.148c-4.523,3.993-5.823,10.4-7.012,16.318s-2.861,12.334-7.752,15.867c-2.469,1.783-5.5,2.61-8.115,4.166s-4.955,4.326-4.482,7.335c.383,2.436,2.573,4.289,4.947,4.954a16.152,16.152,0,0,0,7.331-.1,58.255,58.255,0,0,0,20.732-8.2c4.7-3.033,8.96-6.8,14.056-9.1s11.484-2.863,15.982.457c3.034,2.24,4.791,5.919,7.911,8.039a10.5,10.5,0,0,0,10.553.6c6.469-3.391,7.693-12.409,13.323-17.061A19.954,19.954,0,0,0-825.233,1292.814Z" transform="translate(-110.637 -141.777)"/>
    <path id="Path_1422" data-name="Path 1422" class="cls-2" d="M-868.242,1301.766a5.857,5.857,0,0,1,2.317-4.135,10.294,10.294,0,0,1,4.459-1.879c9.172-1.776,18.505,4.235,27.694,2.548,2.9-.533,5.647-1.823,8.58-2.161a11.35,11.35,0,0,1,7.537,1.652,8.585,8.585,0,0,1,3.893,6.519,6.928,6.928,0,0,1-3.632,6.491,16.618,16.618,0,0,1-4.414,1.093c-7.623,1.411-14.442,6.495-22.194,6.555-5.737.045-11.092-2.685-16.7-3.9a12.324,12.324,0,0,0-4.62-.292c-2.309.386-4.3,1.8-6.487,2.632a6.353,6.353,0,0,1-3.018.49,3.147,3.147,0,0,1-2.473-1.629,3.45,3.45,0,0,1,.767-3.613,12.7,12.7,0,0,1,3.153-2.286,11.375,11.375,0,0,0,3.3-2.73C-869.216,1305.975-867.913,1303.163-868.242,1301.766Z" transform="translate(-134.159 -154.651)"/>
    <path id="Path_1423" data-name="Path 1423" class="cls-2" d="M-1000.546,1322.891a7.472,7.472,0,0,0,5.818,1.624,11.066,11.066,0,0,0,5.416-3.039,17.454,17.454,0,0,0,4.364-6.729c2.8-7.84-.285-16.588,1.033-24.807,1.013-6.318,4.541-11.895,7.71-17.453s6.126-11.624,5.808-18.014a10.8,10.8,0,0,0-1.055-4.439,10.283,10.283,0,0,0-3.393-3.63c-5.7-3.925-13.331-3.7-20.041-1.983s-13.066,4.733-19.878,5.977c-11.043,2.017-22.321-.768-33.282-3.188a7.12,7.12,0,0,0-4.139-.074c-1.767.7-2.679,2.7-2.926,4.583-.381,2.9.4,5.821,1.164,8.646,1.181,4.34,2.5,8.913,5.769,12,2.843,2.683,6.748,3.844,10.434,5.147,6.593,2.332,13.026,5.443,18.207,10.14s9.03,11.133,9.575,18.1c.205,2.624-.051,5.292.456,7.876C-1008.732,1317.575-1003.756,1320.475-1000.546,1322.891Z" transform="translate(-48.644 -129.539)"/>
    <path id="Path_1424" data-name="Path 1424" class="cls-2" d="M-1025.43,1274.9c3.435-2,7.749,1.789,11.669,1.128s7.727-1.92,11.664-2.48c5.264-.749,10.617-.23,15.9.36,3.921.438,8,.973,11.285,3.16a5.276,5.276,0,0,1,2.563,3.412,5.3,5.3,0,0,1-.522,2.747,13.607,13.607,0,0,1-2.823,4.22c-1.133,1.151-2.47,2.1-3.519,3.328a9.833,9.833,0,0,0-2.284,7.2c.2,2.221,1.163,4.3,1.6,6.487s.2,4.755-1.5,6.192c-2.116,1.782-5.474.926-7.564-.886s-3.387-4.356-5.189-6.454c-3.62-4.213-9-6.375-14.062-8.667-4.543-2.058-8.982-4.335-13.42-6.61a33.8,33.8,0,0,1-7-4.342,4.568,4.568,0,0,1-1.5-2.008C-1030.764,1279.6-1027.314,1276-1025.43,1274.9Z" transform="translate(-60.677 -143.945)"/>
    <path id="Path_1425" data-name="Path 1425" class="cls-2" d="M-1018.221,1189.431a24.94,24.94,0,0,0,11.615-6.456c4.858-5.181,6.358-12.765,5.915-19.853s-2.585-13.942-4.1-20.881c-.943-4.322-1.891-9.113-5.411-11.792-3.208-2.441-7.742-2.368-11.564-1.086s-7.193,3.6-10.779,5.443a46.274,46.274,0,0,1-15.238,4.721c-2.8.357-5.76.5-8.166,1.976-2.3,1.411-3.764,3.856-5.91,5.487a13.674,13.674,0,0,1-4.906,2.24,20.479,20.479,0,0,1-10.857-.2c-1.6-.475-3.506-1.1-4.794-.031a3.194,3.194,0,0,0-.742,3.383,11.931,11.931,0,0,0,1.842,3.162c2.857,4.095,4.627,9.488,2.692,14.091-.669,1.589-1.752,3.018-2.118,4.7-.827,3.8,2.141,7.27,4.881,10.025a17.461,17.461,0,0,0,5.333,4.125c2.534,1.067,5.408.876,8.131.5,7.515-1.039,15.009-3.358,22.541-2.448,3.813.46,7.478,1.738,11.255,2.436C-1025.183,1189.6-1021.6,1190.218-1018.221,1189.431Z" transform="translate(-35.109 -74.302)"/>
    <path id="Path_1426" data-name="Path 1426" class="cls-2" d="M-1062.1,1179.04a5.968,5.968,0,0,1,2.49-6.571,6.445,6.445,0,0,1,2.172-.664,29.978,29.978,0,0,1,5.647-.4c5.409.13,10.889,1.717,16.152.461a65.559,65.559,0,0,0,7.3-2.736c6.344-2.34,13.959-2.2,19.356,1.871a4.319,4.319,0,0,1,1.593,1.879c.556,1.571-.56,3.237-1.808,4.342-2.607,2.308-6.255,3.887-7.339,7.2a10.49,10.49,0,0,0-.026,5.062,6.387,6.387,0,0,1,.144,2.174,3.783,3.783,0,0,1-2.235,2.663,7.226,7.226,0,0,1-3.547.479c-3.4-.266-6.549-1.8-9.706-3.093s-6.589-2.387-9.934-1.72c-4.333.862-7.7,4.508-12.021,5.427a10.192,10.192,0,0,1-6.829-.957,4.325,4.325,0,0,1-1.453-1.132,4.214,4.214,0,0,1-.733-2.161,28.749,28.749,0,0,1,.463-5.831C-1062.217,1183.385-1061.541,1180.912-1062.1,1179.04Z" transform="translate(-44.928 -93.13)"/>
    <path id="Path_1427" data-name="Path 1427" class="cls-2" d="M-946.406,1101.684c-2.5-1.981-5.228-3.791-6.252-6.808a18.282,18.282,0,0,1-.318-9.443c1.174-5.837,4.423-11.426,9.512-14.516,4.028-2.446,8.99-3.255,12.622-6.256,2.554-2.111,4.2-5.115,6.561-7.443a19.748,19.748,0,0,1,12.739-5.359,29.1,29.1,0,0,1,13.687,2.874,10.209,10.209,0,0,1,3.013,1.906c1.621,1.614,2.155,3.987,2.707,6.207,1.946,7.825,5.064,15.482,10.135,21.752a23.115,23.115,0,0,1,3.482,4.9,5.71,5.71,0,0,1-.3,5.735,8.1,8.1,0,0,1-2.759,1.99c-6.248,3.275-12.747,6.549-19.782,7.069-6.021.444-12.416-1.114-17.91,1.388-3.937,1.793-6.972,5.527-11.217,6.363a11.629,11.629,0,0,1-9-2.445C-942.051,1107.683-943.9,1103.675-946.406,1101.684Z" transform="translate(-97.627 -37.404)"/>
    <path id="Path_1428" data-name="Path 1428" class="cls-2" d="M-888.624,1105.442c-2.34-2.821-5.944-4.337-9.481-5.3a48.4,48.4,0,0,0-10.885-1.37,43.5,43.5,0,0,0-10.409.559c-5.142,1.057-9.912,3.7-15.133,4.253-1.765.185-3.77.222-4.956,1.543-1.386,1.546-.857,4.01.14,5.831a14.961,14.961,0,0,0,6.135,6.022,20.115,20.115,0,0,0,9.182,2.031,65.9,65.9,0,0,0,9.444-.867c7.95-1.089,16.118-1.961,23.932-.137a12.551,12.551,0,0,0,3.522.535,3.45,3.45,0,0,0,2.958-1.7,4.266,4.266,0,0,0,.237-2.384C-884.226,1112.046-887.069,1107.316-888.624,1105.442Z" transform="translate(-103.939 -59.969)"/>
    <path id="Path_1429" data-name="Path 1429" class="cls-2" d="M-783.275,1176.59c-2.982-4.6-8.6-12.122-13.949-13.309s-10.972-.1-16.123,1.776c-4,1.455-7.966,3.408-12.224,3.466-2.545.035-5.1-.617-7.618-.262a11.308,11.308,0,0,0-3.934,1.376,11.79,11.79,0,0,0-5.475,6.423,9.272,9.272,0,0,0,1.142,8.237,10.6,10.6,0,0,0,4.992,3.555c3.727,1.365,7.85,1.158,11.759.469s7.734-1.843,11.673-2.33a35.049,35.049,0,0,1,12.549.727c5.166,1.257,10.055,3.692,15.34,4.271,2.359.258,5.021.024,6.645-1.706,1.751-1.864,1.652-4.908.463-7.171S-781.884,1178.735-783.275,1176.59Z" transform="translate(-150.745 -90.813)"/>
    <rect id="Rectangle_32" data-name="Rectangle 32" class="cls-3" width="41.808" height="16.331" rx="8" transform="translate(-976.697 1074.527)"/>
    <text id="Prishtinë" class="cls-4" transform="translate(-968.639 1083.942)"><tspan x="0" y="0">Prishtinë</tspan></text>
    <rect id="Rectangle_33" data-name="Rectangle 33" class="cls-3" width="41.808" height="16.331" rx="8" transform="translate(-1082.171 1133.821)"/>
    <text id="Gjakovë" class="cls-4" transform="translate(-1072.953 1143.236)"><tspan x="0" y="0">Gjakovë</tspan></text>
    <rect id="Rectangle_34" data-name="Rectangle 34" class="cls-3" width="41.808" height="16.331" rx="8" transform="translate(-1103.075 1078.684)"/>
    <text id="Pejë" class="cls-4" transform="translate(-1088.557 1088.099)"><tspan x="0" y="0">Pejë</tspan></text>
    <rect id="Rectangle_35" data-name="Rectangle 35" class="cls-3" width="41.808" height="16.331" rx="8" transform="translate(-997.601 1137.168)"/>
    <text id="Ferizaj" class="cls-4" transform="translate(-986.223 1146.583)"><tspan x="0" y="0">Ferizaj</tspan></text>
    <rect id="Rectangle_36" data-name="Rectangle 36" class="cls-3" width="41.808" height="16.331" rx="8" transform="translate(-1040.363 1038.344)"/>
    <text id="Mitrovicë" class="cls-4" transform="translate(-1032.978 1047.758)"><tspan x="0" y="0">Mitrovicë</tspan></text>
  </g>
</svg>
