<svg xmlns="http://www.w3.org/2000/svg" width="21.936" height="14.677" viewBox="0 0 21.936 14.677">
  <defs>
    <style>
      .cls-1 {
        fill: #6ea0f5;
      }
    </style>
  </defs>
  <g id="thonjeza-1" transform="translate(-4.609 -7.395)">
    <path id="Path_1540" data-name="Path 1540" class="cls-1" d="M-817.02-360.641c-.928-2.561-4-2.765-4-2.765s.451-2.251,3.962-4.143l-1.62-2.341s-7.113,2.341-7.113,9.275c0,2.611,1.26,5.4,4.411,5.4,2.908,0,4.385-1.537,4.6-3.822.009-.094.017-.187.02-.284A4.508,4.508,0,0,0-817.02-360.641Z" transform="translate(843.308 377.285)"/>
    <path id="Path_1541" data-name="Path 1541" class="cls-1" d="M-888.459-360.765c-.916-2.526-3.945-2.728-3.945-2.728s.445-2.221,3.908-4.087l-1.6-2.31s-7.018,2.31-7.018,9.151c0,2.576,1.243,5.33,4.352,5.33,2.869,0,4.326-1.517,4.534-3.771.009-.092.017-.185.02-.28A4.449,4.449,0,0,0-888.459-360.765Z" transform="translate(901.72 377.384)"/>
  </g>
</svg>
