<svg xmlns="http://www.w3.org/2000/svg" width="15.985" height="15.985" viewBox="0 0 15.985 15.985">
  <defs>
    <style>
      .cls-1 {
        fill: #80baff;
      }

      .cls-2 {
        fill: #fff;
      }
    </style>
  </defs>
  <g id="ulese" transform="translate(-130.784 -3322.894)">
    <rect id="Rectangle_39" data-name="Rectangle 39" class="cls-1" width="15.985" height="15.985" rx="5" transform="translate(130.784 3322.894)"/>
    <g id="Group_29" data-name="Group 29" transform="translate(135.483 3325.332)">
      <g id="Group_25" data-name="Group 25" transform="translate(0 2.232)">
        <path id="Path_1527" data-name="Path 1527" class="cls-2" d="M156.083,3447.858a.557.557,0,0,1-.152-.021v0a.673.673,0,0,1-.445-.122q-.684-.417-1.366-.836l-.584-.359a.374.374,0,0,1-.161-.162,1.508,1.508,0,0,1-.82-1.149c-.028-.187-.058-.375-.088-.561l-.033-.208a.273.273,0,0,1-.046-.205.252.252,0,0,1,.015-.048,3.125,3.125,0,0,1-.239-1.157l-.016-.2q-.1-1.183-.2-2.367l0-.056a.854.854,0,0,1,.134-.655.275.275,0,0,1,.122-.21,1.166,1.166,0,0,1,.8-.349c.075-.01.149-.021.221-.037a9.8,9.8,0,0,0,1.136-.145.176.176,0,0,1,.053,0,1.065,1.065,0,0,0,.228-.014,1.084,1.084,0,0,1,.466.014,1.182,1.182,0,0,1,.858.749c.21.606.485,1.2.749,1.776l.177.385a3.019,3.019,0,0,1,.236,1.09,1.283,1.283,0,0,1-.3.877.941.941,0,0,0,.526.095,2.243,2.243,0,0,1,1.319.356c.163.1.331.2.5.293l.168.095a.958.958,0,0,1,.448,1,.911.911,0,0,1-.547.848q-1.062.454-2.127.9l-.709.3A.815.815,0,0,1,156.083,3447.858Zm-.174-.208.018.146.015-.05Zm.033-.194a.41.41,0,0,1,.085.008.328.328,0,0,0,.226-.037l.709-.3q1.063-.448,2.126-.9a.528.528,0,0,0,.312-.519c.025-.347-.044-.52-.253-.64h0l-.166-.093c-.175-.1-.35-.2-.519-.305a1.789,1.789,0,0,0-1.095-.3,1.272,1.272,0,0,1-.838-.213.216.216,0,0,1-.178-.1.185.185,0,0,1,.008-.216,1.093,1.093,0,0,0,.376-.808,2.548,2.548,0,0,0-.2-.952l-.176-.383c-.269-.584-.547-1.187-.764-1.811a.81.81,0,0,0-.6-.5.774.774,0,0,0-.308,0,1.425,1.425,0,0,1-.281.016,9.375,9.375,0,0,1-1.128.143c-.053.014-.136.026-.22.039-.271.039-.444.072-.573.236a.186.186,0,0,1-.019.022.255.255,0,0,1-.056.135c-.1.092-.091.207-.074.4l.005.059q.093,1.183.2,2.364l.016.2a2.546,2.546,0,0,0,.253,1.115.193.193,0,0,1,.018.152.2.2,0,0,1-.016.04.216.216,0,0,1,.006.025l.041.254c.031.188.061.377.089.565a1.144,1.144,0,0,0,.7.9.191.191,0,0,1,.105.134l.585.359q.682.419,1.364.836a.324.324,0,0,0,.2.068A.427.427,0,0,1,155.942,3447.456Zm.556-3.321h0Zm-.486,3.322a.194.194,0,0,1-.194-.192,1.388,1.388,0,0,0-.1-.521l-.076-.086a.2.2,0,0,1-.038-.067.187.187,0,0,1-.022-.027,1,1,0,0,0-.085-.11.192.192,0,0,1-.048-.1.2.2,0,0,1-.11-.042c-.039-.032-.08-.061-.123-.089l-.371-.27a.192.192,0,0,1-.08-.157.2.2,0,0,1,.037-.114.193.193,0,0,1,.27-.042l.366.266c.046.03.1.066.143.1a.2.2,0,0,1,.071.127.19.19,0,0,1,.134.064,1.366,1.366,0,0,1,.119.154.188.188,0,0,1,.022.045l.005.006.1.109a.206.206,0,0,1,.033.053,1.793,1.793,0,0,1,.143.7h0a.193.193,0,0,1-.193.194Zm-1.535-1.67a.192.192,0,0,1-.076-.015.77.77,0,0,0-.105-.037c-.01,0-.052,0-.094.006h-.038l-.086,0a.191.191,0,0,1-.2-.19v0a.193.193,0,0,1,.19-.193l.069,0h.019l.019,0a1.113,1.113,0,0,1,.18,0,1.031,1.031,0,0,1,.194.061.193.193,0,0,1-.076.372Zm-.675-.684a.193.193,0,0,1,0-.387.575.575,0,0,0,.193-.035l.026-.007c.185-.038.372-.083.569-.137l.243-.07h0l.013,0c.206-.062.409-.131.611-.2a.194.194,0,0,1,.248.116.2.2,0,0,1,.011.066.193.193,0,0,1-.127.181q-.313.114-.63.21c-.3.091-.577.163-.85.219l-.062.019a.9.9,0,0,1-.245.033Zm-.512-.01a.182.182,0,0,1-.178-.131c-.013-.046-.022-.075-.033-.1a.2.2,0,0,1-.014-.072.193.193,0,0,1,.373-.072c.016.039.028.079.04.12a.2.2,0,0,1,.008.057.2.2,0,0,1-.137.192A.226.226,0,0,1,153.289,3445.093Zm-.017-.536a.206.206,0,0,1-.075-.015.194.194,0,0,1-.118-.179.188.188,0,0,1,.015-.075l.178.075-.167-.1a.193.193,0,0,1,.364.131l-.018.046A.194.194,0,0,1,153.272,3444.557Zm-.238-2.3a.191.191,0,0,1-.137-.058.189.189,0,0,1-.056-.135.2.2,0,0,1,.058-.139c.015-.015.032-.029.053-.046a.193.193,0,1,1,.25.294l-.032.028A.193.193,0,0,1,153.034,3442.253Zm-.221-.721a.194.194,0,0,1-.186-.137.224.224,0,0,1-.05-.132l0-.141v0a.193.193,0,0,1,.19-.193h0a.194.194,0,0,1,.194.19v.083a.435.435,0,0,1,.035.083.187.187,0,0,1,.008.057.194.194,0,0,1-.137.185A.187.187,0,0,1,152.812,3441.532Z" transform="translate(-151.935 -3438.982)"/>
      </g>
      <g id="Group_26" data-name="Group 26" transform="translate(0.251)">
        <path id="Path_1528" data-name="Path 1528" class="cls-2" d="M153.167,3437.406c-.044,0-.088,0-.133,0a.192.192,0,0,1-.124-.054l-.008-.008a.449.449,0,0,1-.188-.1h0a1.6,1.6,0,0,1-.245-1.551.2.2,0,0,1,.065-.063.573.573,0,0,1,.486-.322c.35-.053.715-.093,1.086-.119a.762.762,0,0,1,.844.7c.02.149.037.3.051.447a.8.8,0,0,1-.612.956.225.225,0,0,1-.062.012,5,5,0,0,0-.526.05A4.778,4.778,0,0,1,153.167,3437.406Zm-.041-.387a4.018,4.018,0,0,0,.624-.051c.173-.023.352-.046.534-.053.3-.115.361-.218.331-.547q-.019-.215-.049-.429a.375.375,0,0,0-.433-.368c-.36.025-.715.064-1.054.115l-.055.01a.164.164,0,0,1,.021.023.7.7,0,0,1,.04.063l.007.014.008.014h0a.209.209,0,0,1,.011.046l.014,0-.005.005.006,0,.015.024.005.008h0l.018.026a1.61,1.61,0,0,1,.109.238h0v0h0v0a.212.212,0,0,1,.008.031.2.2,0,0,1,.012.032,1.315,1.315,0,0,1,.032.13.188.188,0,0,1,0,.036.194.194,0,0,1-.384.036c-.006-.031-.013-.061-.022-.091,0-.008,0-.015-.006-.023a.212.212,0,0,1-.009-.023,1.238,1.238,0,0,0-.085-.186.373.373,0,0,1-.042-.066h0l-.018-.033-.005-.011a1.468,1.468,0,0,0,.2.944h0a.235.235,0,0,0,.035.026.136.136,0,0,1,.13.05Z" transform="translate(-152.362 -3435.182)"/>
      </g>
      <g id="Group_27" data-name="Group 27" transform="translate(1.123 1.854)">
        <path id="Path_1529" data-name="Path 1529" class="cls-2" d="M154.176,3439.24h-.006a.271.271,0,0,1-.277-.245.182.182,0,0,1-.032-.091l-.012-.139a.2.2,0,0,1,0-.059.323.323,0,0,1,.111-.323.193.193,0,0,1,.29.054.969.969,0,0,1,.107.469c0,.04,0,.081.008.121a.192.192,0,0,1-.193.212Zm-.23-.191h0Zm-.085-.372h0Z" transform="translate(-153.846 -3438.34)"/>
      </g>
      <g id="Group_28" data-name="Group 28" transform="translate(1.895 1.77)">
        <path id="Path_1530" data-name="Path 1530" class="cls-2" d="M155.45,3439.093h-.012a.191.191,0,0,1-.143-.078.681.681,0,0,1-.117-.409.634.634,0,0,0-.012-.126.264.264,0,0,1,.062-.206.223.223,0,0,1,.2-.077.256.256,0,0,1,.207.2.191.191,0,0,1,.032.091l-.107.01v.009l.109,0,.011.117a.2.2,0,0,1-.009.08.333.333,0,0,1-.078.332A.2.2,0,0,1,155.45,3439.093Zm.032-.592h.051l0-.007-.055,0Zm.059-.111v0Zm.069-.025Z" transform="translate(-155.161 -3438.195)"/>
      </g>
    </g>
  </g>
</svg>
